Caveat-Bold.ufo
<glyph name="quotedbl" format="2">
  <advance width="237"/>
  <unicode hex="0022"/>
  <outline>
    <contour>
      <point x="200" y="431" type="curve"/>
      <point x="215" y="436"/>
      <point x="225" y="436"/>
      <point x="224" y="441" type="curve"/>
      <point x="247" y="467"/>
      <point x="272" y="500"/>
      <point x="280" y="530" type="curve"/>
      <point x="288" y="556"/>
      <point x="302" y="598"/>
      <point x="305" y="630" type="curve"/>
      <point x="309" y="652"/>
      <point x="267" y="668"/>
      <point x="249" y="677" type="curve"/>
      <point x="239" y="682"/>
      <point x="229" y="644"/>
      <point x="230" y="635" type="curve"/>
      <point x="230" y="610"/>
      <point x="221" y="584"/>
      <point x="219" y="570" type="curve"/>
      <point x="212" y="550"/>
      <point x="187" y="506"/>
      <point x="171" y="480" type="curve"/>
      <point x="164" y="470"/>
      <point x="155" y="453"/>
      <point x="158" y="439" type="curve"/>
      <point x="167" y="431"/>
      <point x="179" y="427"/>
    </contour>
    <contour>
      <point x="331" y="431" type="curve"/>
      <point x="346" y="436"/>
      <point x="356" y="436"/>
      <point x="355" y="441" type="curve"/>
      <point x="378" y="467"/>
      <point x="403" y="500"/>
      <point x="411" y="530" type="curve"/>
      <point x="419" y="556"/>
      <point x="433" y="598"/>
      <point x="436" y="630" type="curve"/>
      <point x="440" y="652"/>
      <point x="398" y="668"/>
      <point x="380" y="677" type="curve"/>
      <point x="370" y="682"/>
      <point x="360" y="644"/>
      <point x="361" y="635" type="curve"/>
      <point x="361" y="610"/>
      <point x="352" y="584"/>
      <point x="350" y="570" type="curve"/>
      <point x="343" y="550"/>
      <point x="318" y="506"/>
      <point x="302" y="480" type="curve"/>
      <point x="295" y="470"/>
      <point x="286" y="453"/>
      <point x="290" y="439" type="curve"/>
      <point x="299" y="431"/>
      <point x="311" y="427"/>
    </contour>
  </outline>
</glyph>
<glyph name="period" format="2">
  <advance width="198"/>
  <unicode hex="002E"/>
  <outline>
    <contour>
      <point x="162" y="52" type="curve"/>
      <point x="215" y="79"/>
      <point x="221" y="116"/>
      <point x="176" y="144" type="curve"/>
      <point x="150" y="155"/>
      <point x="144" y="155"/>
      <point x="118" y="139" type="curve"/>
      <point x="79" y="112"/>
      <point x="69" y="84"/>
      <point x="96" y="58" type="curve"/>
      <point x="118" y="42"/>
      <point x="134" y="42"/>
    </contour>
  </outline>
</glyph>
<glyph name="zero" format="2">
  <advance width="450"/>
  <unicode hex="0030"/>
  <outline>
    <contour>
      <point x="293" y="3" type="curve"/>
      <point x="314" y="3"/>
      <point x="381" y="46"/>
      <point x="401" y="67" type="curve"/>
      <point x="425" y="91"/>
      <point x="446" y="118"/>
      <point x="446" y="123" type="curve"/>
      <point x="446" y="127"/>
      <point x="451" y="127"/>
      <point x="451" y="127" type="curve"/>
      <point x="456" y="127"/>
      <point x="475" y="163"/>
      <point x="475" y="169" type="curve"/>
      <point x="470" y="174"/>
      <point x="475" y="178"/>
      <point x="480" y="183" type="curve"/>
      <point x="485" y="193"/>
      <point x="500" y="228"/>
      <point x="506" y="239" type="curve"/>
      <point x="506" y="244"/>
      <point x="506" y="252"/>
      <point x="510" y="260" type="curve"/>
      <point x="520" y="284"/>
      <point x="537" y="374"/>
      <point x="537" y="400" type="curve"/>
      <point x="537" y="415"/>
      <point x="532" y="435"/>
      <point x="527" y="446" type="curve"/>
      <point x="517" y="476" type="line"/>
      <point x="527" y="476" type="line"/>
      <point x="537" y="471"/>
      <point x="537" y="483"/>
      <point x="537" y="493" type="curve"/>
      <point x="537" y="513"/>
      <point x="472" y="543"/>
      <point x="432" y="543" type="curve"/>
      <point x="422" y="543"/>
      <point x="387" y="543"/>
      <point x="373" y="539" type="curve"/>
      <point x="333" y="529"/>
      <point x="299" y="507"/>
      <point x="265" y="477" type="curve"/>
      <point x="200" y="421"/>
      <point x="150" y="329"/>
      <point x="135" y="244" type="curve"/>
      <point x="125" y="178"/>
      <point x="131" y="95"/>
      <point x="199" y="37" type="curve"/>
      <point x="220" y="19"/>
      <point x="279" y="3"/>
    </contour>
    <contour>
      <point x="291" y="99" type="curve"/>
      <point x="266" y="94"/>
      <point x="269" y="86"/>
      <point x="254" y="100" type="curve"/>
      <point x="250" y="105"/>
      <point x="235" y="121"/>
      <point x="230" y="130" type="curve"/>
      <point x="220" y="149"/>
      <point x="218" y="148"/>
      <point x="218" y="183" type="curve"/>
      <point x="218" y="203"/>
      <point x="218" y="232"/>
      <point x="218" y="237" type="curve"/>
      <point x="222" y="252"/>
      <point x="242" y="300"/>
      <point x="252" y="315" type="curve"/>
      <point x="256" y="325"/>
      <point x="261" y="334"/>
      <point x="261" y="339" type="curve"/>
      <point x="261" y="344"/>
      <point x="280" y="374"/>
      <point x="304" y="398" type="curve"/>
      <point x="333" y="434"/>
      <point x="353" y="460"/>
      <point x="353" y="442" type="curve"/>
      <point x="353" y="435"/>
      <point x="367" y="430"/>
      <point x="377" y="435" type="curve"/>
      <point x="387" y="442"/>
      <point x="405" y="447"/>
      <point x="415" y="447" type="curve"/>
      <point x="424" y="447"/>
      <point x="434" y="442"/>
      <point x="439" y="438" type="curve"/>
      <point x="448" y="427"/>
      <point x="448" y="430"/>
      <point x="448" y="395" type="curve"/>
      <point x="443" y="377"/>
      <point x="443" y="347"/>
      <point x="443" y="333" type="curve"/>
      <point x="443" y="318"/>
      <point x="439" y="294"/>
      <point x="429" y="279" type="curve"/>
      <point x="410" y="225"/>
      <point x="405" y="211"/>
      <point x="391" y="191" type="curve"/>
      <point x="376" y="156"/>
      <point x="353" y="129"/>
      <point x="329" y="113" type="curve"/>
      <point x="319" y="103"/>
      <point x="305" y="99"/>
    </contour>
  </outline>
</glyph>
<glyph name="three" format="2">
  <advance width="450"/>
  <unicode hex="0033"/>
  <outline>
    <contour>
      <point x="244" y="1" type="curve"/>
      <point x="287" y="4"/>
      <point x="348" y="11"/>
      <point x="385" y="32" type="curve"/>
      <point x="454" y="73"/>
      <point x="508" y="160"/>
      <point x="480" y="222" type="curve"/>
      <point x="466" y="241"/>
      <point x="430" y="281"/>
      <point x="392" y="295" type="curve"/>
      <point x="381" y="304"/>
      <point x="345" y="308"/>
      <point x="345" y="308" type="curve"/>
      <point x="345" y="312"/>
      <point x="394" y="326"/>
      <point x="408" y="337" type="curve"/>
      <point x="439" y="352"/>
      <point x="450" y="364"/>
      <point x="483" y="385" type="curve"/>
      <point x="522" y="420"/>
      <point x="532" y="448"/>
      <point x="526" y="477" type="curve"/>
      <point x="515" y="530"/>
      <point x="477" y="552"/>
      <point x="416" y="559" type="curve"/>
      <point x="391" y="561"/>
      <point x="307" y="551"/>
      <point x="280" y="544" type="curve"/>
      <point x="257" y="533"/>
      <point x="213" y="507"/>
      <point x="210" y="499" type="curve"/>
      <point x="206" y="489"/>
      <point x="224" y="444"/>
      <point x="234" y="441" type="curve"/>
      <point x="239" y="441"/>
      <point x="286" y="453"/>
      <point x="288" y="458" type="curve"/>
      <point x="289" y="463"/>
      <point x="349" y="477"/>
      <point x="359" y="473" type="curve"/>
      <point x="363" y="473"/>
      <point x="363" y="473"/>
      <point x="363" y="473" type="curve"/>
      <point x="363" y="478"/>
      <point x="384" y="481"/>
      <point x="418" y="478" type="curve"/>
      <point x="452" y="471"/>
      <point x="450" y="463"/>
      <point x="434" y="445" type="curve"/>
      <point x="415" y="429"/>
      <point x="396" y="420"/>
      <point x="313" y="374" type="curve"/>
      <point x="221" y="324"/>
      <point x="202" y="310"/>
      <point x="204" y="301" type="curve"/>
      <point x="207" y="295"/>
      <point x="214" y="267"/>
      <point x="222" y="258" type="curve"/>
      <point x="239" y="249"/>
      <point x="258" y="241"/>
      <point x="270" y="243" type="curve"/>
      <point x="297" y="245"/>
      <point x="346" y="228"/>
      <point x="372" y="210" type="curve"/>
      <point x="410" y="185"/>
      <point x="408" y="163"/>
      <point x="372" y="128" type="curve"/>
      <point x="334" y="90"/>
      <point x="255" y="75"/>
      <point x="188" y="89" type="curve"/>
      <point x="159" y="93"/>
      <point x="146" y="79"/>
      <point x="145" y="58" type="curve"/>
      <point x="142" y="34"/>
      <point x="193" y="1"/>
    </contour>
  </outline>
</glyph>
<glyph name="four" format="2">
  <advance width="450"/>
  <unicode hex="0034"/>
  <outline>
    <contour>
      <point x="331" y="-12" type="curve" smooth="yes"/>
      <point x="353" y="-12"/>
      <point x="382" y="11"/>
      <point x="382" y="38" type="curve"/>
      <point x="375" y="52"/>
      <point x="372" y="62"/>
      <point x="416" y="181" type="curve" smooth="yes"/>
      <point x="439" y="243"/>
      <point x="471" y="320"/>
      <point x="510" y="397" type="curve" smooth="yes"/>
      <point x="536" y="447"/>
      <point x="554" y="466"/>
      <point x="554" y="491" type="curve" smooth="yes"/>
      <point x="554" y="494"/>
      <point x="546" y="502"/>
      <point x="536" y="511" type="curve" smooth="yes"/>
      <point x="522" y="523"/>
      <point x="505" y="536"/>
      <point x="501" y="536" type="curve" smooth="yes"/>
      <point x="498" y="536"/>
      <point x="473" y="508"/>
      <point x="440" y="447" type="curve" smooth="yes"/>
      <point x="430" y="428"/>
      <point x="419" y="406"/>
      <point x="408" y="380" type="curve" smooth="yes"/>
      <point x="391" y="341"/>
      <point x="387" y="320"/>
      <point x="371" y="307" type="curve" smooth="yes"/>
      <point x="364" y="302"/>
      <point x="356" y="299"/>
      <point x="345" y="295" type="curve" smooth="yes"/>
      <point x="336" y="292"/>
      <point x="325" y="289"/>
      <point x="311" y="286" type="curve" smooth="yes"/>
      <point x="299" y="283"/>
      <point x="285" y="281"/>
      <point x="268" y="278" type="curve"/>
      <point x="255" y="278"/>
      <point x="251" y="281"/>
      <point x="251" y="288" type="curve" smooth="yes"/>
      <point x="251" y="308"/>
      <point x="326" y="431"/>
      <point x="358" y="468" type="curve" smooth="yes"/>
      <point x="376" y="489"/>
      <point x="386" y="502"/>
      <point x="391" y="510" type="curve" smooth="yes"/>
      <point x="395" y="516"/>
      <point x="396" y="519"/>
      <point x="396" y="519" type="curve"/>
      <point x="396" y="526"/>
      <point x="378" y="566"/>
      <point x="363" y="566" type="curve" smooth="yes"/>
      <point x="353" y="566"/>
      <point x="327" y="555"/>
      <point x="319" y="551" type="curve"/>
      <point x="301" y="534"/>
      <point x="228" y="435"/>
      <point x="203" y="394" type="curve" smooth="yes"/>
      <point x="199" y="388"/>
      <point x="196" y="383"/>
      <point x="195" y="380" type="curve"/>
      <point x="195" y="369"/>
      <point x="188" y="368"/>
      <point x="168" y="318" type="curve"/>
      <point x="142" y="292"/>
      <point x="176" y="240"/>
      <point x="188" y="229" type="curve"/>
      <point x="212" y="189"/>
      <point x="240" y="195"/>
      <point x="306" y="209" type="curve" smooth="yes"/>
      <point x="324" y="213"/>
      <point x="338" y="216"/>
      <point x="340" y="216" type="curve"/>
      <point x="340" y="212"/>
      <point x="333" y="195"/>
      <point x="325" y="171" type="curve" smooth="yes"/>
      <point x="313" y="135"/>
      <point x="297" y="85"/>
      <point x="296" y="44" type="curve"/>
      <point x="296" y="6"/>
      <point x="325" y="-12"/>
    </contour>
  </outline>
</glyph>
<glyph name="F" format="2">
  <advance width="466"/>
  <unicode hex="0046"/>
  <outline>
    <contour>
      <point x="520" y="301" type="curve"/>
      <point x="545" y="314"/>
      <point x="536" y="366"/>
      <point x="513" y="369" type="curve"/>
      <point x="505" y="370"/>
      <point x="480" y="367"/>
      <point x="460" y="363" type="curve"/>
      <point x="395" y="357"/>
      <point x="310" y="351"/>
      <point x="283" y="359" type="curve"/>
      <point x="288" y="365"/>
      <point x="332" y="482"/>
      <point x="344" y="502" type="curve"/>
      <point x="356" y="536"/>
      <point x="372" y="555"/>
      <point x="377" y="555" type="curve"/>
      <point x="377" y="555"/>
      <point x="401" y="563"/>
      <point x="430" y="565" type="curve"/>
      <point x="503" y="575"/>
      <point x="543" y="578"/>
      <point x="601" y="570" type="curve"/>
      <point x="649" y="569"/>
      <point x="655" y="569"/>
      <point x="656" y="581" type="curve"/>
      <point x="658" y="587"/>
      <point x="665" y="618"/>
      <point x="652" y="625" type="curve"/>
      <point x="645" y="630"/>
      <point x="640" y="632"/>
      <point x="645" y="630" type="curve"/>
      <point x="645" y="630"/>
      <point x="648" y="635"/>
      <point x="643" y="641" type="curve"/>
      <point x="635" y="648"/>
      <point x="625" y="648"/>
      <point x="597" y="653" type="curve"/>
      <point x="590" y="648"/>
      <point x="571" y="651"/>
      <point x="548" y="647" type="curve"/>
      <point x="527" y="653"/>
      <point x="483" y="648"/>
      <point x="459" y="646" type="curve"/>
      <point x="390" y="631"/>
      <point x="394" y="634"/>
      <point x="394" y="641" type="curve"/>
      <point x="404" y="691"/>
      <point x="332" y="686"/>
      <point x="320" y="639" type="curve"/>
      <point x="319" y="634"/>
      <point x="313" y="629"/>
      <point x="307" y="625" type="curve"/>
      <point x="299" y="627"/>
      <point x="278" y="631"/>
      <point x="253" y="626" type="curve"/>
      <point x="233" y="621"/>
      <point x="223" y="619"/>
      <point x="214" y="617" type="curve"/>
      <point x="194" y="615"/>
      <point x="181" y="587"/>
      <point x="178" y="566" type="curve"/>
      <point x="178" y="554"/>
      <point x="190" y="550"/>
      <point x="204" y="552" type="curve"/>
      <point x="209" y="553"/>
      <point x="215" y="553"/>
      <point x="231" y="556" type="curve"/>
      <point x="248" y="557"/>
      <point x="258" y="558"/>
      <point x="263" y="559" type="curve"/>
      <point x="268" y="559"/>
      <point x="263" y="545"/>
      <point x="258" y="527" type="curve"/>
      <point x="255" y="517"/>
      <point x="248" y="498"/>
      <point x="246" y="493" type="curve"/>
      <point x="245" y="490"/>
      <point x="217" y="411"/>
      <point x="208" y="384" type="curve"/>
      <point x="195" y="355"/>
      <point x="184" y="342"/>
      <point x="178" y="337" type="curve"/>
      <point x="168" y="325"/>
      <point x="168" y="325"/>
      <point x="170" y="310" type="curve"/>
      <point x="163" y="293"/>
      <point x="162" y="272"/>
      <point x="148" y="247" type="curve"/>
      <point x="122" y="195"/>
      <point x="88" y="77"/>
      <point x="80" y="43" type="curve"/>
      <point x="71" y="14"/>
      <point x="81" y="-11"/>
      <point x="111" y="-25" type="curve"/>
      <point x="121" y="-37"/>
      <point x="149" y="-39"/>
      <point x="153" y="-19" type="curve"/>
      <point x="159" y="-15"/>
      <point x="159" y="10"/>
      <point x="171" y="42" type="curve"/>
      <point x="171" y="68"/>
      <point x="232" y="221"/>
      <point x="254" y="261" type="curve"/>
      <point x="254" y="272"/>
      <point x="263" y="279"/>
      <point x="263" y="279" type="curve"/>
      <point x="287" y="274"/>
      <point x="399" y="278"/>
      <point x="433" y="281" type="curve"/>
      <point x="492" y="287"/>
      <point x="512" y="296"/>
    </contour>
  </outline>
</glyph>
<glyph name="J" format="2">
  <advance width="315"/>
  <unicode hex="004A"/>
  <anchor x="410" y="785" name="topUC"/>
  <outline>
    <contour>
      <point x="92" y="-204" type="curve"/>
      <point x="114" y="-192"/>
      <point x="174" y="-128"/>
      <point x="180" y="-112" type="curve"/>
      <point x="180" y="-106"/>
      <point x="186" y="-102"/>
      <point x="186" y="-102" type="curve"/>
      <point x="191" y="-102"/>
      <point x="191" y="-96"/>
      <point x="191" y="-96" type="curve"/>
      <point x="191" y="-91"/>
      <point x="203" y="-75"/>
      <point x="210" y="-59" type="curve"/>
      <point x="221" y="-42"/>
      <point x="234" y="-4"/>
      <point x="245" y="23" type="curve"/>
      <point x="258" y="55"/>
      <point x="269" y="82"/>
      <point x="269" y="82" type="curve"/>
      <point x="275" y="88"/>
      <point x="282" y="104"/>
      <point x="282" y="115" type="curve"/>
      <point x="287" y="132"/>
      <point x="297" y="165"/>
      <point x="308" y="191" type="curve"/>
      <point x="315" y="218"/>
      <point x="337" y="279"/>
      <point x="344" y="301" type="curve"/>
      <point x="362" y="345"/>
      <point x="384" y="414"/>
      <point x="414" y="497" type="curve"/>
      <point x="464" y="632"/>
      <point x="469" y="643"/>
      <point x="453" y="665" type="curve"/>
      <point x="443" y="676"/>
      <point x="393" y="697"/>
      <point x="386" y="692" type="curve"/>
      <point x="368" y="689"/>
      <point x="322" y="686"/>
      <point x="296" y="682" type="curve"/>
      <point x="255" y="677"/>
      <point x="218" y="660"/>
      <point x="218" y="649" type="curve"/>
      <point x="217" y="638"/>
      <point x="233" y="610"/>
      <point x="239" y="615" type="curve"/>
      <point x="239" y="615"/>
      <point x="239" y="609"/>
      <point x="239" y="604" type="curve"/>
      <point x="235" y="587"/>
      <point x="265" y="593"/>
      <point x="288" y="602" type="curve"/>
      <point x="316" y="607"/>
      <point x="344" y="612"/>
      <point x="344" y="612" type="curve"/>
      <point x="348" y="606"/>
      <point x="330" y="554"/>
      <point x="306" y="477" type="curve"/>
      <point x="293" y="438"/>
      <point x="281" y="401"/>
      <point x="276" y="391" type="curve"/>
      <point x="269" y="374"/>
      <point x="257" y="336"/>
      <point x="251" y="308" type="curve"/>
      <point x="239" y="275"/>
      <point x="216" y="210"/>
      <point x="209" y="189" type="curve"/>
      <point x="204" y="167"/>
      <point x="197" y="150"/>
      <point x="196" y="145" type="curve"/>
      <point x="191" y="139"/>
      <point x="191" y="134"/>
      <point x="191" y="134" type="curve"/>
      <point x="179" y="101"/>
      <point x="119" y="-29"/>
      <point x="102" y="-68" type="curve"/>
      <point x="61" y="-132"/>
      <point x="25" y="-146"/>
      <point x="-12" y="-113" type="curve"/>
      <point x="-21" y="-101"/>
      <point x="-32" y="-94"/>
      <point x="-37" y="-94" type="curve"/>
      <point x="-43" y="-94"/>
      <point x="-47" y="-101"/>
      <point x="-50" y="-112" type="curve"/>
      <point x="-56" y="-129"/>
      <point x="-60" y="-165"/>
      <point x="-50" y="-176" type="curve"/>
      <point x="-18" y="-211"/>
      <point x="45" y="-230"/>
    </contour>
  </outline>
</glyph>
<glyph name="M" format="2">
  <advance width="729"/>
  <unicode hex="004D"/>
  <outline>
    <contour>
      <point x="675" y="-48" type="curve"/>
      <point x="679" y="-42"/>
      <point x="683" y="-41"/>
      <point x="688" y="-43" type="curve"/>
      <point x="693" y="-45"/>
      <point x="715" y="-25"/>
      <point x="721" y="27" type="curve"/>
      <point x="721" y="69"/>
      <point x="724" y="113"/>
      <point x="736" y="135" type="curve"/>
      <point x="736" y="169"/>
      <point x="742" y="190"/>
      <point x="752" y="235" type="curve"/>
      <point x="765" y="280"/>
      <point x="785" y="354"/>
      <point x="792" y="389" type="curve"/>
      <point x="819" y="472"/>
      <point x="841" y="575"/>
      <point x="840" y="604" type="curve"/>
      <point x="836" y="661"/>
      <point x="769" y="699"/>
      <point x="740" y="667" type="curve"/>
      <point x="717" y="641"/>
      <point x="689" y="590"/>
      <point x="658" y="543" type="curve"/>
      <point x="528" y="312"/>
      <point x="483" y="244"/>
      <point x="441" y="185" type="curve"/>
      <point x="430" y="169"/>
      <point x="425" y="159"/>
      <point x="417" y="149" type="curve"/>
      <point x="413" y="144"/>
      <point x="404" y="137"/>
      <point x="400" y="139" type="curve"/>
      <point x="384" y="155"/>
      <point x="423" y="270"/>
      <point x="451" y="421" type="curve"/>
      <point x="458" y="450"/>
      <point x="469" y="509"/>
      <point x="472" y="541" type="curve"/>
      <point x="480" y="587"/>
      <point x="463" y="615"/>
      <point x="448" y="632" type="curve"/>
      <point x="432" y="647"/>
      <point x="414" y="655"/>
      <point x="403" y="655" type="curve"/>
      <point x="388" y="655"/>
      <point x="368" y="627"/>
      <point x="349" y="590" type="curve"/>
      <point x="343" y="581"/>
      <point x="336" y="556"/>
      <point x="327" y="549" type="curve"/>
      <point x="312" y="531"/>
      <point x="279" y="467"/>
      <point x="220" y="362" type="curve"/>
      <point x="195" y="315"/>
      <point x="156" y="249"/>
      <point x="140" y="224" type="curve"/>
      <point x="125" y="194"/>
      <point x="109" y="166"/>
      <point x="103" y="158" type="curve"/>
      <point x="102" y="148"/>
      <point x="98" y="137"/>
      <point x="91" y="128" type="curve"/>
      <point x="87" y="123"/>
      <point x="68" y="96"/>
      <point x="51" y="62" type="curve"/>
      <point x="34" y="29"/>
      <point x="35" y="6"/>
      <point x="40" y="-13" type="curve"/>
      <point x="49" y="-37"/>
      <point x="64" y="-57"/>
      <point x="84" y="-58" type="curve"/>
      <point x="91" y="-50"/>
      <point x="109" y="-28"/>
      <point x="247" y="227" type="curve"/>
      <point x="290" y="321"/>
      <point x="346" y="426"/>
      <point x="361" y="449" type="curve"/>
      <point x="371" y="466"/>
      <point x="374" y="467"/>
      <point x="370" y="434" type="curve"/>
      <point x="361" y="408"/>
      <point x="328" y="284"/>
      <point x="310" y="197" type="curve"/>
      <point x="290" y="93"/>
      <point x="302" y="69"/>
      <point x="329" y="38" type="curve"/>
      <point x="367" y="6"/>
      <point x="391" y="19"/>
      <point x="438" y="56" type="curve"/>
      <point x="470" y="82"/>
      <point x="504" y="120"/>
      <point x="509" y="132" type="curve"/>
      <point x="509" y="132"/>
      <point x="535" y="166"/>
      <point x="548" y="184" type="curve"/>
      <point x="564" y="204"/>
      <point x="576" y="227"/>
      <point x="582" y="242" type="curve"/>
      <point x="585" y="248"/>
      <point x="592" y="259"/>
      <point x="602" y="274" type="curve"/>
      <point x="620" y="305"/>
      <point x="650" y="365"/>
      <point x="672" y="405" type="curve"/>
      <point x="694" y="440"/>
      <point x="700" y="459"/>
      <point x="711" y="475" type="curve"/>
      <point x="726" y="498"/>
      <point x="729" y="506"/>
      <point x="729" y="506" type="curve"/>
      <point x="730" y="509"/>
      <point x="733" y="514"/>
      <point x="736" y="518" type="curve"/>
      <point x="736" y="518"/>
      <point x="729" y="479"/>
      <point x="711" y="410" type="curve"/>
      <point x="675" y="261"/>
      <point x="636" y="116"/>
      <point x="624" y="46" type="curve"/>
      <point x="623" y="3"/>
      <point x="622" y="-17"/>
      <point x="632" y="-36" type="curve"/>
      <point x="644" y="-54"/>
      <point x="669" y="-53"/>
    </contour>
  </outline>
</glyph>
<glyph name="N" format="2">
  <advance width="619"/>
  <unicode hex="004E"/>
  <anchor x="312" y="-110" name="bottom"/>
  <anchor x="564" y="785" name="topUC"/>
  <outline>
    <contour>
      <point x="110" y="-85" type="curve"/>
      <point x="143" y="-104"/>
      <point x="148" y="-96"/>
      <point x="162" y="-59" type="curve"/>
      <point x="172" y="-30"/>
      <point x="193" y="67"/>
      <point x="241" y="192" type="curve"/>
      <point x="248" y="221"/>
      <point x="260" y="249"/>
      <point x="268" y="265" type="curve"/>
      <point x="272" y="278"/>
      <point x="312" y="374"/>
      <point x="330" y="427" type="curve"/>
      <point x="355" y="499"/>
      <point x="375" y="541"/>
      <point x="373" y="428" type="curve"/>
      <point x="371" y="332"/>
      <point x="378" y="256"/>
      <point x="391" y="172" type="curve"/>
      <point x="403" y="68"/>
      <point x="419" y="27"/>
      <point x="458" y="-24" type="curve"/>
      <point x="501" y="-79"/>
      <point x="557" y="-53"/>
      <point x="589" y="21" type="curve"/>
      <point x="618" y="87"/>
      <point x="659" y="192"/>
      <point x="694" y="343" type="curve"/>
      <point x="700" y="342"/>
      <point x="708" y="378"/>
      <point x="713" y="413" type="curve"/>
      <point x="719" y="452"/>
      <point x="741" y="528"/>
      <point x="741" y="550" type="curve"/>
      <point x="761" y="636"/>
      <point x="771" y="688"/>
      <point x="769" y="703" type="curve"/>
      <point x="763" y="732"/>
      <point x="711" y="757"/>
      <point x="690" y="718" type="curve"/>
      <point x="683" y="711"/>
      <point x="676" y="697"/>
      <point x="676" y="675" type="curve"/>
      <point x="676" y="661"/>
      <point x="669" y="638"/>
      <point x="663" y="638" type="curve"/>
      <point x="664" y="631"/>
      <point x="663" y="625"/>
      <point x="663" y="616" type="curve"/>
      <point x="663" y="610"/>
      <point x="644" y="531"/>
      <point x="631" y="482" type="curve"/>
      <point x="625" y="430"/>
      <point x="612" y="373"/>
      <point x="605" y="350" type="curve"/>
      <point x="540" y="88"/>
      <point x="519" y="63"/>
      <point x="507" y="63" type="curve"/>
      <point x="495" y="63"/>
      <point x="487" y="168"/>
      <point x="479" y="215" type="curve"/>
      <point x="461" y="281"/>
      <point x="463" y="366"/>
      <point x="460" y="480" type="curve"/>
      <point x="457" y="576"/>
      <point x="449" y="594"/>
      <point x="440" y="615" type="curve"/>
      <point x="427" y="654"/>
      <point x="362" y="664"/>
      <point x="338" y="623" type="curve"/>
      <point x="302" y="568"/>
      <point x="276" y="523"/>
      <point x="242" y="427" type="curve"/>
      <point x="219" y="377"/>
      <point x="193" y="323"/>
      <point x="192" y="315" type="curve"/>
      <point x="192" y="315"/>
      <point x="169" y="244"/>
      <point x="137" y="170" type="curve"/>
      <point x="122" y="95"/>
      <point x="100" y="74"/>
      <point x="84" y="11" type="curve"/>
      <point x="74" y="-28"/>
      <point x="70" y="-64"/>
    </contour>
  </outline>
</glyph>
<glyph name="b" format="2">
  <advance width="444"/>
  <unicode hex="0062"/>
  <outline>
    <contour>
      <point x="229" y="6" type="curve"/>
      <point x="239" y="9"/>
      <point x="264" y="12"/>
      <point x="275" y="14" type="curve"/>
      <point x="310" y="26"/>
      <point x="377" y="67"/>
      <point x="414" y="105" type="curve"/>
      <point x="437" y="130"/>
      <point x="465" y="165"/>
      <point x="466" y="174" type="curve"/>
      <point x="466" y="179"/>
      <point x="474" y="190"/>
      <point x="481" y="195" type="curve"/>
      <point x="499" y="225"/>
      <point x="505" y="276"/>
      <point x="490" y="304" type="curve"/>
      <point x="473" y="333"/>
      <point x="451" y="357"/>
      <point x="422" y="357" type="curve"/>
      <point x="399" y="357"/>
      <point x="371" y="350"/>
      <point x="367" y="349" type="curve"/>
      <point x="355" y="347"/>
      <point x="316" y="330"/>
      <point x="300" y="319" type="curve"/>
      <point x="283" y="307"/>
      <point x="268" y="295"/>
      <point x="255" y="282" type="curve"/>
      <point x="229" y="253" type="line"/>
      <point x="234" y="275" type="line"/>
      <point x="254" y="327"/>
      <point x="266" y="379"/>
      <point x="322" y="499" type="curve"/>
      <point x="380" y="622"/>
      <point x="383" y="620"/>
      <point x="374" y="634" type="curve"/>
      <point x="364" y="649"/>
      <point x="322" y="669"/>
      <point x="313" y="667" type="curve"/>
      <point x="304" y="663"/>
      <point x="293" y="635"/>
      <point x="277" y="612" type="curve"/>
      <point x="258" y="560"/>
      <point x="216" y="472"/>
      <point x="215" y="463" type="curve"/>
      <point x="199" y="418"/>
      <point x="188" y="388"/>
      <point x="183" y="384" type="curve"/>
      <point x="183" y="379"/>
      <point x="175" y="366"/>
      <point x="172" y="350" type="curve"/>
      <point x="172" y="334"/>
      <point x="164" y="320"/>
      <point x="164" y="320" type="curve"/>
      <point x="158" y="315"/>
      <point x="139" y="246"/>
      <point x="128" y="194" type="curve"/>
      <point x="121" y="169"/>
      <point x="118" y="154"/>
      <point x="118" y="143" type="curve" smooth="yes"/>
      <point x="118" y="125"/>
      <point x="127" y="121"/>
      <point x="139" y="112" type="curve"/>
      <point x="141" y="100"/>
      <point x="153" y="92"/>
      <point x="158" y="90" type="curve"/>
      <point x="169" y="90"/>
      <point x="189" y="101"/>
      <point x="189" y="106" type="curve"/>
      <point x="189" y="106"/>
      <point x="213" y="134"/>
      <point x="229" y="155" type="curve"/>
      <point x="258" y="194"/>
      <point x="288" y="221"/>
      <point x="346" y="257" type="curve"/>
      <point x="387" y="284"/>
      <point x="405" y="280"/>
      <point x="411" y="269" type="curve"/>
      <point x="420" y="250"/>
      <point x="420" y="244"/>
      <point x="368" y="177" type="curve"/>
      <point x="302" y="116"/>
      <point x="232" y="66"/>
      <point x="195" y="69" type="curve"/>
      <point x="190" y="70"/>
      <point x="184" y="69"/>
      <point x="184" y="65" type="curve"/>
      <point x="182" y="61"/>
      <point x="176" y="61"/>
      <point x="170" y="61" type="curve"/>
      <point x="169" y="55"/>
      <point x="169" y="50"/>
      <point x="180" y="38" type="curve"/>
      <point x="188" y="20"/>
      <point x="202" y="9"/>
    </contour>
  </outline>
</glyph>
<glyph name="e" format="2">
  <advance width="334"/>
  <unicode hex="0065"/>
  <anchor x="184" y="-110" name="bottom"/>
  <anchor x="249" y="40" name="ogonek"/>
  <anchor x="375" y="560" name="top"/>
  <outline>
    <contour>
      <point x="293" y="20" type="curve"/>
      <point x="333" y="43"/>
      <point x="366" y="83"/>
      <point x="366" y="100" type="curve"/>
      <point x="362" y="113"/>
      <point x="347" y="132"/>
      <point x="332" y="133" type="curve"/>
      <point x="325" y="133"/>
      <point x="319" y="132"/>
      <point x="312" y="127" type="curve"/>
      <point x="301" y="120"/>
      <point x="284" y="104"/>
      <point x="269" y="95" type="curve"/>
      <point x="249" y="86"/>
      <point x="241" y="80"/>
      <point x="211" y="85" type="curve"/>
      <point x="187" y="91"/>
      <point x="180" y="111"/>
      <point x="178" y="135" type="curve"/>
      <point x="177" y="174"/>
      <point x="184" y="186"/>
      <point x="216" y="179" type="curve"/>
      <point x="269" y="168"/>
      <point x="296" y="172"/>
      <point x="319" y="182" type="curve"/>
      <point x="375" y="206"/>
      <point x="406" y="263"/>
      <point x="413" y="306" type="curve"/>
      <point x="414" y="324"/>
      <point x="409" y="345"/>
      <point x="388" y="366" type="curve"/>
      <point x="377" y="379"/>
      <point x="351" y="392"/>
      <point x="321" y="396" type="curve"/>
      <point x="289" y="399"/>
      <point x="273" y="395"/>
      <point x="254" y="388" type="curve"/>
      <point x="176" y="362"/>
      <point x="110" y="254"/>
      <point x="98" y="163" type="curve"/>
      <point x="90" y="97"/>
      <point x="106" y="61"/>
      <point x="120" y="44" type="curve"/>
      <point x="155" y="-2"/>
      <point x="233" y="-15"/>
    </contour>
    <contour>
      <point x="280" y="243" type="curve"/>
      <point x="260" y="238"/>
      <point x="220" y="242"/>
      <point x="213" y="252" type="curve"/>
      <point x="220" y="268"/>
      <point x="263" y="316"/>
      <point x="284" y="322" type="curve"/>
      <point x="315" y="329"/>
      <point x="336" y="315"/>
      <point x="336" y="300" type="curve"/>
      <point x="336" y="286"/>
      <point x="294" y="249"/>
    </contour>
  </outline>
</glyph>
<glyph name="f" format="2">
  <advance width="300"/>
  <unicode hex="0066"/>
  <outline>
    <contour>
      <point x="146" y="-121" type="curve"/>
      <point x="153" y="-114"/>
      <point x="155" y="-102"/>
      <point x="157" y="-84" type="curve"/>
      <point x="160" y="-55" type="line"/>
      <point x="160" y="-34"/>
      <point x="163" y="-9"/>
      <point x="164" y="4" type="curve"/>
      <point x="165" y="8"/>
      <point x="165" y="13"/>
      <point x="165" y="14" type="curve"/>
      <point x="165" y="19"/>
      <point x="165" y="28"/>
      <point x="171" y="39" type="curve"/>
      <point x="171" y="50"/>
      <point x="171" y="65"/>
      <point x="179" y="75" type="curve"/>
      <point x="179" y="92"/>
      <point x="200" y="187"/>
      <point x="206" y="204" type="curve"/>
      <point x="209" y="209"/>
      <point x="211" y="215"/>
      <point x="211" y="225" type="curve"/>
      <point x="211" y="229"/>
      <point x="214" y="239"/>
      <point x="220" y="239" type="curve"/>
      <point x="222" y="247"/>
      <point x="282" y="256"/>
      <point x="318" y="265" type="curve"/>
      <point x="346" y="270"/>
      <point x="381" y="281"/>
      <point x="383" y="287" type="curve"/>
      <point x="386" y="298"/>
      <point x="378" y="338"/>
      <point x="362" y="348" type="curve"/>
      <point x="344" y="353"/>
      <point x="342" y="353"/>
      <point x="323" y="348" type="curve"/>
      <point x="291" y="339"/>
      <point x="249" y="333"/>
      <point x="249" y="341" type="curve"/>
      <point x="249" y="345"/>
      <point x="268" y="390"/>
      <point x="268" y="390" type="curve"/>
      <point x="269" y="392" type="line"/>
      <point x="274" y="397"/>
      <point x="281" y="410"/>
      <point x="286" y="423" type="curve"/>
      <point x="296" y="441"/>
      <point x="301" y="457"/>
      <point x="301" y="457" type="curve"/>
      <point x="306" y="457"/>
      <point x="307" y="461"/>
      <point x="307" y="467" type="curve"/>
      <point x="307" y="473"/>
      <point x="314" y="486"/>
      <point x="324" y="500" type="curve"/>
      <point x="338" y="517"/>
      <point x="346" y="534"/>
      <point x="346" y="534" type="curve"/>
      <point x="346" y="543"/>
      <point x="390" y="585"/>
      <point x="399" y="590" type="curve"/>
      <point x="428" y="592"/>
      <point x="430" y="572"/>
      <point x="420" y="555" type="curve"/>
      <point x="414" y="546"/>
      <point x="408" y="532"/>
      <point x="404" y="515" type="curve"/>
      <point x="404" y="515"/>
      <point x="403" y="505"/>
      <point x="403" y="496" type="curve"/>
      <point x="403" y="476"/>
      <point x="425" y="473"/>
      <point x="441" y="482" type="curve"/>
      <point x="452" y="483"/>
      <point x="493" y="551"/>
      <point x="508" y="583" type="curve"/>
      <point x="514" y="594"/>
      <point x="516" y="611"/>
      <point x="503" y="628" type="curve"/>
      <point x="464" y="663"/>
      <point x="451" y="671"/>
      <point x="426" y="671" type="curve"/>
      <point x="398" y="671"/>
      <point x="374" y="661"/>
      <point x="345" y="646" type="curve"/>
      <point x="321" y="627"/>
      <point x="264" y="572"/>
      <point x="251" y="544" type="curve"/>
      <point x="240" y="531"/>
      <point x="230" y="503"/>
      <point x="222" y="481" type="curve"/>
      <point x="203" y="448"/>
      <point x="189" y="407"/>
      <point x="162" y="331" type="curve"/>
      <point x="157" y="322"/>
      <point x="148" y="305"/>
      <point x="147" y="298" type="curve"/>
      <point x="138" y="293"/>
      <point x="133" y="283"/>
      <point x="133" y="272" type="curve"/>
      <point x="133" y="260"/>
      <point x="124" y="222"/>
      <point x="114" y="189" type="curve"/>
      <point x="110" y="159"/>
      <point x="106" y="144"/>
      <point x="103" y="132" type="curve"/>
      <point x="102" y="128"/>
      <point x="99" y="117"/>
      <point x="99" y="116" type="curve"/>
      <point x="93" y="90"/>
      <point x="81" y="15"/>
      <point x="81" y="4" type="curve"/>
      <point x="81" y="-1"/>
      <point x="81" y="-16"/>
      <point x="76" y="-31" type="curve"/>
      <point x="72" y="-65"/>
      <point x="74" y="-71"/>
      <point x="84" y="-82" type="curve"/>
      <point x="103" y="-104"/>
      <point x="138" y="-126"/>
    </contour>
  </outline>
</glyph>
<glyph name="g" format="2">
  <advance width="364"/>
  <unicode hex="0067"/>
  <anchor x="391" y="560" name="top"/>
  <outline>
    <contour>
      <point x="214" y="-200" type="curve"/>
      <point x="240" y="-186"/>
      <point x="286" y="-140"/>
      <point x="319" y="-27" type="curve"/>
      <point x="335" y="35" type="line" smooth="yes"/>
      <point x="346" y="77"/>
      <point x="369" y="132"/>
      <point x="376" y="172" type="curve"/>
      <point x="383" y="202"/>
      <point x="398" y="217"/>
      <point x="410" y="234" type="curve"/>
      <point x="423" y="251"/>
      <point x="430" y="277"/>
      <point x="421" y="297" type="curve"/>
      <point x="414" y="315"/>
      <point x="382" y="348"/>
      <point x="365" y="365" type="curve"/>
      <point x="338" y="388"/>
      <point x="332" y="392"/>
      <point x="310" y="395" type="curve"/>
      <point x="286" y="402"/>
      <point x="254" y="390"/>
      <point x="244" y="385" type="curve"/>
      <point x="202" y="372"/>
      <point x="137" y="298"/>
      <point x="113" y="249" type="curve"/>
      <point x="95" y="204"/>
      <point x="88" y="152"/>
      <point x="97" y="132" type="curve"/>
      <point x="109" y="102"/>
      <point x="117" y="85"/>
      <point x="145" y="70" type="curve"/>
      <point x="174" y="61"/>
      <point x="212" y="63"/>
      <point x="220" y="73" type="curve"/>
      <point x="254" y="87"/>
      <point x="268" y="107"/>
      <point x="298" y="126" type="curve"/>
      <point x="292" y="126" type="line"/>
      <point x="287" y="120"/>
      <point x="280" y="109"/>
      <point x="276" y="93" type="curve"/>
      <point x="264" y="62"/>
      <point x="254" y="28"/>
      <point x="240" y="-21" type="curve"/>
      <point x="221" y="-80"/>
      <point x="214" y="-96"/>
      <point x="192" y="-113" type="curve"/>
      <point x="182" y="-120"/>
      <point x="162" y="-111"/>
      <point x="148" y="-88" type="curve"/>
      <point x="139" y="-78"/>
      <point x="131" y="-62"/>
      <point x="126" y="-48" type="curve"/>
      <point x="122" y="-36"/>
      <point x="71" y="-28"/>
      <point x="64" y="-50" type="curve"/>
      <point x="55" y="-55"/>
      <point x="91" y="-134"/>
      <point x="103" y="-151" type="curve"/>
      <point x="132" y="-193"/>
      <point x="177" y="-215"/>
    </contour>
    <contour>
      <point x="193" y="144" type="curve"/>
      <point x="180" y="149"/>
      <point x="176" y="174"/>
      <point x="190" y="214" type="curve"/>
      <point x="196" y="231"/>
      <point x="206" y="250"/>
      <point x="215" y="262" type="curve"/>
      <point x="242" y="296"/>
      <point x="259" y="312"/>
      <point x="284" y="316" type="curve"/>
      <point x="301" y="319"/>
      <point x="313" y="313"/>
      <point x="314" y="292" type="curve"/>
      <point x="317" y="259"/>
      <point x="308" y="235"/>
      <point x="285" y="203" type="curve"/>
      <point x="251" y="150"/>
      <point x="233" y="145"/>
    </contour>
  </outline>
</glyph>
<glyph name="registered" format="2">
  <advance width="496"/>
  <unicode hex="00AE"/>
  <outline>
    <contour>
      <point x="353" y="73" type="curve"/>
      <point x="380" y="71"/>
      <point x="424" y="84"/>
      <point x="434" y="98" type="curve"/>
      <point x="436" y="100"/>
      <point x="438" y="102"/>
      <point x="442" y="107" type="curve"/>
      <point x="490" y="123"/>
      <point x="562" y="200"/>
      <point x="555" y="203" type="curve"/>
      <point x="550" y="204"/>
      <point x="552" y="207"/>
      <point x="552" y="207" type="curve"/>
      <point x="564" y="209"/>
      <point x="588" y="235"/>
      <point x="584" y="238" type="curve"/>
      <point x="580" y="240"/>
      <point x="586" y="242"/>
      <point x="586" y="242" type="curve"/>
      <point x="592" y="243"/>
      <point x="603" y="328"/>
      <point x="595" y="339" type="curve"/>
      <point x="594" y="341"/>
      <point x="596" y="349"/>
      <point x="594" y="353" type="curve"/>
      <point x="599" y="358"/>
      <point x="590" y="409"/>
      <point x="570" y="439" type="curve"/>
      <point x="570" y="448"/>
      <point x="552" y="467"/>
      <point x="547" y="487" type="curve"/>
      <point x="483" y="578"/>
      <point x="406" y="609"/>
      <point x="314" y="564" type="curve"/>
      <point x="281" y="547"/>
      <point x="217" y="509"/>
      <point x="210" y="498" type="curve"/>
      <point x="207" y="497"/>
      <point x="210" y="491"/>
      <point x="207" y="491" type="curve"/>
      <point x="195" y="484"/>
      <point x="135" y="356"/>
      <point x="147" y="328" type="curve"/>
      <point x="147" y="328"/>
      <point x="151" y="322"/>
      <point x="145" y="317" type="curve"/>
      <point x="144" y="313"/>
      <point x="142" y="272"/>
      <point x="144" y="265" type="curve"/>
      <point x="146" y="264"/>
      <point x="145" y="256"/>
      <point x="147" y="254" type="curve"/>
      <point x="154" y="231"/>
      <point x="153" y="210"/>
      <point x="169" y="182" type="curve"/>
      <point x="195" y="108"/>
      <point x="259" y="71"/>
    </contour>
    <contour>
      <point x="317" y="211" type="curve"/>
      <point x="321" y="225"/>
      <point x="323" y="239"/>
      <point x="323" y="244" type="curve"/>
      <point x="331" y="265" type="line"/>
      <point x="345" y="264"/>
      <point x="345" y="263"/>
      <point x="345" y="263" type="curve"/>
      <point x="365" y="246"/>
      <point x="366" y="239"/>
      <point x="375" y="231" type="curve"/>
      <point x="384" y="222"/>
      <point x="388" y="217"/>
      <point x="404" y="214" type="curve"/>
      <point x="422" y="201"/>
      <point x="442" y="221"/>
      <point x="451" y="240" type="curve"/>
      <point x="455" y="264"/>
      <point x="448" y="263"/>
      <point x="437" y="260" type="curve"/>
      <point x="427" y="264"/>
      <point x="401" y="281"/>
      <point x="399" y="289" type="curve"/>
      <point x="411" y="302" type="line"/>
      <point x="434" y="318"/>
      <point x="444" y="331"/>
      <point x="453" y="348" type="curve"/>
      <point x="467" y="367"/>
      <point x="467" y="372"/>
      <point x="467" y="388" type="curve"/>
      <point x="466" y="398"/>
      <point x="460" y="427"/>
      <point x="449" y="437" type="curve"/>
      <point x="449" y="441"/>
      <point x="419" y="459"/>
      <point x="401" y="461" type="curve"/>
      <point x="395" y="466"/>
      <point x="389" y="466"/>
      <point x="373" y="468" type="curve"/>
      <point x="344" y="470"/>
      <point x="316" y="458"/>
      <point x="316" y="450" type="curve"/>
      <point x="302" y="440"/>
      <point x="304" y="435"/>
      <point x="308" y="429" type="curve"/>
      <point x="316" y="421"/>
      <point x="311" y="417"/>
      <point x="311" y="401" type="curve"/>
      <point x="281" y="361"/>
      <point x="278" y="332"/>
      <point x="276" y="320" type="curve"/>
      <point x="273" y="320"/>
      <point x="272" y="309"/>
      <point x="272" y="298" type="curve"/>
      <point x="264" y="277"/>
      <point x="257" y="256"/>
      <point x="254" y="242" type="curve"/>
      <point x="248" y="217"/>
      <point x="300" y="165"/>
    </contour>
    <contour>
      <point x="288" y="153" type="curve"/>
      <point x="263" y="159"/>
      <point x="227" y="211"/>
      <point x="225" y="221" type="curve"/>
      <point x="227" y="225"/>
      <point x="217" y="245"/>
      <point x="219" y="262" type="curve"/>
      <point x="201" y="290"/>
      <point x="204" y="302"/>
      <point x="222" y="360" type="curve"/>
      <point x="233" y="405"/>
      <point x="258" y="472"/>
      <point x="346" y="498" type="curve"/>
      <point x="358" y="503"/>
      <point x="408" y="522"/>
      <point x="472" y="473" type="curve"/>
      <point x="509" y="421"/>
      <point x="510" y="418"/>
      <point x="510" y="409" type="curve"/>
      <point x="509" y="403"/>
      <point x="518" y="391"/>
      <point x="519" y="389" type="curve"/>
      <point x="533" y="362"/>
      <point x="524" y="286"/>
      <point x="506" y="270" type="curve"/>
      <point x="501" y="268"/>
      <point x="498" y="258"/>
      <point x="500" y="252" type="curve"/>
      <point x="501" y="233"/>
      <point x="444" y="188"/>
      <point x="413" y="174" type="curve"/>
      <point x="358" y="143"/>
      <point x="309" y="135"/>
    </contour>
    <contour>
      <point x="350" y="315" type="curve"/>
      <point x="342" y="317"/>
      <point x="359" y="371"/>
      <point x="363" y="384" type="curve"/>
      <point x="372" y="388"/>
      <point x="367" y="395"/>
      <point x="369" y="400" type="curve"/>
      <point x="378" y="409"/>
      <point x="381" y="411"/>
      <point x="382" y="412" type="curve"/>
      <point x="397" y="407"/>
      <point x="394" y="405"/>
      <point x="399" y="400" type="curve"/>
      <point x="404" y="396"/>
      <point x="405" y="393"/>
      <point x="402" y="387" type="curve"/>
      <point x="402" y="370"/>
      <point x="401" y="378"/>
      <point x="398" y="373" type="curve"/>
      <point x="386" y="357"/>
      <point x="382" y="353"/>
      <point x="378" y="351" type="curve"/>
      <point x="372" y="339"/>
      <point x="372" y="321"/>
    </contour>
  </outline>
</glyph>
<glyph name="acute" format="2">
  <advance width="353"/>
  <unicode hex="00B4"/>
  <anchor x="381" y="560" name="_top"/>
  <outline>
    <contour>
      <point x="343" y="435" type="curve"/>
      <point x="360" y="424"/>
      <point x="377" y="432"/>
      <point x="390" y="453" type="curve"/>
      <point x="417" y="488"/>
      <point x="481" y="518"/>
      <point x="481" y="547" type="curve"/>
      <point x="480" y="575"/>
      <point x="460" y="597"/>
      <point x="442" y="596" type="curve"/>
      <point x="409" y="587"/>
      <point x="332" y="500"/>
      <point x="330" y="488" type="curve"/>
      <point x="327" y="467"/>
      <point x="331" y="442"/>
    </contour>
  </outline>
</glyph>
<glyph name="mu" format="2">
  <advance width="370"/>
  <unicode hex="00B5"/>
  <outline>
    <contour>
      <point x="65" y="-192" type="curve" smooth="yes"/>
      <point x="70" y="-192"/>
      <point x="76" y="-189"/>
      <point x="86" y="-180" type="curve"/>
      <point x="90" y="-175"/>
      <point x="101" y="-160"/>
      <point x="152" y="6" type="curve" smooth="yes"/>
      <point x="155" y="15"/>
      <point x="158" y="25"/>
      <point x="161" y="35" type="curve"/>
      <point x="173" y="21"/>
      <point x="184" y="16"/>
      <point x="198" y="16" type="curve" smooth="yes"/>
      <point x="229" y="16"/>
      <point x="268" y="48"/>
      <point x="292" y="72" type="curve" smooth="yes"/>
      <point x="302" y="83"/>
      <point x="310" y="92"/>
      <point x="311" y="95" type="curve"/>
      <point x="312" y="85"/>
      <point x="310" y="63"/>
      <point x="313" y="53" type="curve" smooth="yes"/>
      <point x="323" y="13"/>
      <point x="342" y="-16"/>
      <point x="363" y="-16" type="curve" smooth="yes"/>
      <point x="394" y="-16"/>
      <point x="415" y="17"/>
      <point x="418" y="24" type="curve"/>
      <point x="418" y="38"/>
      <point x="417" y="47"/>
      <point x="405" y="57" type="curve" smooth="yes"/>
      <point x="385" y="73"/>
      <point x="377" y="91"/>
      <point x="377" y="115" type="curve" smooth="yes"/>
      <point x="377" y="141"/>
      <point x="384" y="161"/>
      <point x="410" y="218" type="curve" smooth="yes"/>
      <point x="427" y="257"/>
      <point x="433" y="289"/>
      <point x="433" y="311" type="curve" smooth="yes"/>
      <point x="433" y="317"/>
      <point x="433" y="322"/>
      <point x="432" y="327" type="curve"/>
      <point x="431" y="329"/>
      <point x="430" y="331"/>
      <point x="429" y="333" type="curve"/>
      <point x="421" y="361"/>
      <point x="415" y="363"/>
      <point x="407" y="362" type="curve"/>
      <point x="394" y="363"/>
      <point x="389" y="366"/>
      <point x="387" y="366" type="curve" smooth="yes"/>
      <point x="379" y="366"/>
      <point x="370" y="359"/>
      <point x="363" y="350" type="curve" smooth="yes"/>
      <point x="349" y="334"/>
      <point x="338" y="310"/>
      <point x="338" y="301" type="curve" smooth="yes"/>
      <point x="338" y="284"/>
      <point x="335" y="269"/>
      <point x="317" y="226" type="curve"/>
      <point x="274" y="130"/>
      <point x="245" y="112"/>
      <point x="225" y="112" type="curve" smooth="yes"/>
      <point x="205" y="112"/>
      <point x="198" y="122"/>
      <point x="198" y="142" type="curve"/>
      <point x="201" y="186"/>
      <point x="261" y="296"/>
      <point x="261" y="344" type="curve" smooth="yes"/>
      <point x="261" y="362"/>
      <point x="251" y="377"/>
      <point x="225" y="377" type="curve" smooth="yes"/>
      <point x="214" y="377"/>
      <point x="204" y="376"/>
      <point x="198" y="368" type="curve" smooth="yes"/>
      <point x="192" y="362"/>
      <point x="179" y="340"/>
      <point x="149" y="281" type="curve"/>
      <point x="125" y="228"/>
      <point x="115" y="193"/>
      <point x="109" y="162" type="curve" smooth="yes"/>
      <point x="88" y="51"/>
      <point x="28" y="-102"/>
      <point x="27" y="-133" type="curve" smooth="yes"/>
      <point x="27" y="-143"/>
      <point x="40" y="-192"/>
    </contour>
  </outline>
</glyph>
<glyph name="threequarters" format="2">
  <advance width="800"/>
  <unicode hex="00BE"/>
  <outline>
    <contour>
      <point x="278" y="-21" type="curve"/>
      <point x="288" y="-19"/>
      <point x="309" y="-5"/>
      <point x="319" y="20" type="curve"/>
      <point x="332" y="50"/>
      <point x="450" y="191"/>
      <point x="493" y="243" type="curve"/>
      <point x="513" y="262"/>
      <point x="526" y="278"/>
      <point x="526" y="283" type="curve"/>
      <point x="526" y="283"/>
      <point x="530" y="290"/>
      <point x="533" y="289" type="curve"/>
      <point x="541" y="292"/>
      <point x="542" y="296"/>
      <point x="545" y="300" type="curve"/>
      <point x="546" y="304"/>
      <point x="600" y="355"/>
      <point x="617" y="370" type="curve"/>
      <point x="626" y="382"/>
      <point x="634" y="389"/>
      <point x="638" y="392" type="curve"/>
      <point x="639" y="397"/>
      <point x="765" y="515"/>
      <point x="784" y="534" type="curve"/>
      <point x="844" y="588"/>
      <point x="851" y="591"/>
      <point x="860" y="613" type="curve"/>
      <point x="866" y="624"/>
      <point x="866" y="636"/>
      <point x="858" y="648" type="curve"/>
      <point x="851" y="660"/>
      <point x="836" y="677"/>
      <point x="836" y="677" type="curve"/>
      <point x="831" y="679"/>
      <point x="824" y="679"/>
      <point x="820" y="677" type="curve"/>
      <point x="810" y="680"/>
      <point x="803" y="679"/>
      <point x="800" y="669" type="curve"/>
      <point x="794" y="656"/>
      <point x="546" y="401"/>
      <point x="511" y="372" type="curve"/>
      <point x="510" y="367"/>
      <point x="503" y="364"/>
      <point x="502" y="360" type="curve"/>
      <point x="500" y="355"/>
      <point x="493" y="349"/>
      <point x="490" y="343" type="curve"/>
      <point x="483" y="342"/>
      <point x="473" y="332"/>
      <point x="469" y="322" type="curve"/>
      <point x="466" y="313"/>
      <point x="458" y="305"/>
      <point x="453" y="307" type="curve"/>
      <point x="445" y="298"/>
      <point x="308" y="143"/>
      <point x="293" y="122" type="curve"/>
      <point x="290" y="114"/>
      <point x="280" y="103"/>
      <point x="270" y="92" type="curve"/>
      <point x="218" y="20"/>
      <point x="239" y="-18"/>
    </contour>
    <component base="three.numerator" xOffset="-50"/>
    <component base="four.denominator" xOffset="450"/>
  </outline>
</glyph>
<glyph name="ae" format="2">
  <advance width="574"/>
  <unicode hex="00E6"/>
  <anchor x="492" y="560" name="top"/>
  <outline>
    <contour>
      <point x="118" y="19" type="curve"/>
      <point x="154" y="-2"/>
      <point x="213" y="8"/>
      <point x="311" y="104" type="curve"/>
      <point x="319" y="112"/>
      <point x="338" y="133"/>
      <point x="343" y="140" type="curve"/>
      <point x="344" y="133"/>
      <point x="349" y="122"/>
      <point x="352" y="115" type="curve"/>
      <point x="363" y="91" type="line"/>
      <point x="404" y="156" type="line"/>
      <point x="425" y="197"/>
      <point x="436" y="215"/>
      <point x="435" y="244" type="curve"/>
      <point x="452" y="298" type="line"/>
      <point x="423" y="324" type="line" smooth="yes"/>
      <point x="402" y="342"/>
      <point x="362" y="377"/>
      <point x="351" y="385" type="curve"/>
      <point x="322" y="401"/>
      <point x="312" y="405"/>
      <point x="259" y="372" type="curve"/>
      <point x="231" y="355"/>
      <point x="185" y="316"/>
      <point x="176" y="290" type="curve"/>
      <point x="175" y="288" type="line"/>
      <point x="174" y="285"/>
      <point x="171" y="281"/>
      <point x="170" y="279" type="curve"/>
      <point x="160" y="280"/>
      <point x="152" y="249"/>
      <point x="138" y="236" type="curve"/>
      <point x="84" y="146"/>
      <point x="63" y="88"/>
      <point x="71" y="75" type="curve"/>
      <point x="77" y="64"/>
      <point x="83" y="55"/>
      <point x="83" y="50" type="curve"/>
      <point x="82" y="44"/>
      <point x="107" y="32"/>
    </contour>
    <contour>
      <point x="169" y="105" type="curve"/>
      <point x="169" y="105"/>
      <point x="184" y="139"/>
      <point x="198" y="166" type="curve"/>
      <point x="238" y="245"/>
      <point x="291" y="310"/>
      <point x="318" y="310" type="curve"/>
      <point x="329" y="310"/>
      <point x="338" y="304"/>
      <point x="352" y="273" type="curve"/>
      <point x="339" y="252" type="line"/>
      <point x="318" y="203"/>
      <point x="255" y="163"/>
      <point x="216" y="126" type="curve"/>
      <point x="189" y="107"/>
      <point x="173" y="102"/>
    </contour>
    <contour>
      <point x="531" y="16" type="curve"/>
      <point x="564" y="30"/>
      <point x="607" y="74"/>
      <point x="611" y="99" type="curve"/>
      <point x="606" y="118"/>
      <point x="586" y="133"/>
      <point x="577" y="133" type="curve"/>
      <point x="570" y="133"/>
      <point x="563" y="130"/>
      <point x="556" y="125" type="curve"/>
      <point x="545" y="116"/>
      <point x="531" y="98"/>
      <point x="504" y="88" type="curve"/>
      <point x="489" y="84"/>
      <point x="472" y="81"/>
      <point x="459" y="84" type="curve"/>
      <point x="436" y="88"/>
      <point x="423" y="108"/>
      <point x="423" y="147" type="curve"/>
      <point x="423" y="179"/>
      <point x="435" y="185"/>
      <point x="466" y="178" type="curve"/>
      <point x="507" y="168"/>
      <point x="529" y="172"/>
      <point x="558" y="181" type="curve"/>
      <point x="605" y="197"/>
      <point x="642" y="247"/>
      <point x="656" y="287" type="curve"/>
      <point x="656" y="306"/>
      <point x="667" y="330"/>
      <point x="635" y="365" type="curve"/>
      <point x="625" y="378"/>
      <point x="597" y="393"/>
      <point x="563" y="396" type="curve"/>
      <point x="540" y="399"/>
      <point x="511" y="396"/>
      <point x="481" y="380" type="curve"/>
      <point x="424" y="353"/>
      <point x="351" y="259"/>
      <point x="344" y="176" type="curve"/>
      <point x="341" y="125"/>
      <point x="335" y="86"/>
      <point x="365" y="45" type="curve"/>
      <point x="392" y="8"/>
      <point x="462" y="-18"/>
    </contour>
    <contour>
      <point x="520" y="242" type="curve"/>
      <point x="502" y="239"/>
      <point x="461" y="243"/>
      <point x="458" y="253" type="curve"/>
      <point x="464" y="263"/>
      <point x="502" y="315"/>
      <point x="536" y="324" type="curve"/>
      <point x="564" y="326"/>
      <point x="582" y="314"/>
      <point x="582" y="299" type="curve"/>
      <point x="582" y="289"/>
      <point x="536" y="244"/>
    </contour>
  </outline>
</glyph>
<glyph name="thorn" format="2">
  <advance width="378"/>
  <unicode hex="00FE"/>
  <outline>
    <contour>
      <point x="69" y="-233" type="curve"/>
      <point x="89" y="-233"/>
      <point x="108" y="-208"/>
      <point x="113" y="-177" type="curve"/>
      <point x="113" y="-170"/>
      <point x="112" y="-144"/>
      <point x="119" y="-142" type="curve"/>
      <point x="126" y="-142"/>
      <point x="131" y="-124"/>
      <point x="131" y="-107" type="curve"/>
      <point x="137" y="-96"/>
      <point x="141" y="-70"/>
      <point x="141" y="-59" type="curve"/>
      <point x="147" y="-50"/>
      <point x="147" y="-28"/>
      <point x="147" y="-28" type="curve"/>
      <point x="141" y="-21"/>
      <point x="147" y="-17"/>
      <point x="147" y="-17" type="curve"/>
      <point x="155" y="-17"/>
      <point x="171" y="19"/>
      <point x="173" y="33" type="curve"/>
      <point x="173" y="39"/>
      <point x="176" y="45"/>
      <point x="180" y="48" type="curve"/>
      <point x="187" y="43"/>
      <point x="193" y="41"/>
      <point x="209" y="41" type="curve"/>
      <point x="241" y="41"/>
      <point x="292" y="57"/>
      <point x="293" y="68" type="curve"/>
      <point x="293" y="74"/>
      <point x="298" y="74"/>
      <point x="298" y="74" type="curve"/>
      <point x="314" y="68"/>
      <point x="369" y="98"/>
      <point x="387" y="119" type="curve"/>
      <point x="392" y="130"/>
      <point x="397" y="141"/>
      <point x="403" y="141" type="curve"/>
      <point x="415" y="152"/>
      <point x="446" y="212"/>
      <point x="446" y="232" type="curve"/>
      <point x="448" y="302"/>
      <point x="382" y="389"/>
      <point x="251" y="308" type="curve"/>
      <point x="179" y="332" type="line"/>
      <point x="175" y="322" type="line" smooth="yes"/>
      <point x="160" y="283"/>
      <point x="88" y="71"/>
      <point x="78" y="32" type="curve"/>
      <point x="78" y="25"/>
      <point x="71" y="4"/>
      <point x="71" y="-6" type="curve"/>
      <point x="65" y="-12"/>
      <point x="59" y="-21"/>
      <point x="59" y="-27" type="curve"/>
      <point x="59" y="-43"/>
      <point x="55" y="-65"/>
      <point x="48" y="-76" type="curve"/>
      <point x="48" y="-83"/>
      <point x="43" y="-97"/>
      <point x="43" y="-110" type="curve"/>
      <point x="43" y="-122"/>
      <point x="37" y="-143"/>
      <point x="32" y="-165" type="curve"/>
      <point x="25" y="-190"/>
      <point x="39" y="-216"/>
      <point x="45" y="-223" type="curve"/>
      <point x="52" y="-236"/>
      <point x="63" y="-233"/>
    </contour>
    <contour>
      <point x="199" y="116" type="curve"/>
      <point x="181" y="116"/>
      <point x="207" y="184"/>
      <point x="239" y="218" type="curve"/>
      <point x="301" y="272"/>
      <point x="331" y="279"/>
      <point x="347" y="255" type="curve"/>
      <point x="368" y="225"/>
      <point x="346" y="195"/>
      <point x="305" y="161" type="curve"/>
      <point x="279" y="139"/>
      <point x="206" y="115"/>
    </contour>
    <contour>
      <point x="170" y="310" type="curve"/>
      <point x="248" y="292" type="line"/>
      <point x="286" y="386" type="line"/>
      <point x="341" y="513"/>
      <point x="357" y="557"/>
      <point x="361" y="577" type="curve"/>
      <point x="366" y="600"/>
      <point x="362" y="619"/>
      <point x="350" y="636" type="curve"/>
      <point x="340" y="646"/>
      <point x="320" y="647"/>
      <point x="320" y="647" type="curve"/>
      <point x="315" y="647"/>
      <point x="303" y="645"/>
      <point x="299" y="641" type="curve"/>
      <point x="283" y="628"/>
      <point x="284" y="619"/>
      <point x="283" y="613" type="curve"/>
      <point x="280" y="601"/>
      <point x="194" y="360"/>
    </contour>
  </outline>
</glyph>
<glyph name="oe" format="2">
  <advance width="541"/>
  <unicode hex="0153"/>
  <outline>
    <contour>
      <point x="166.0" y="-7" type="curve"/>
      <point x="205.0" y="-1"/>
      <point x="234.0" y="12"/>
      <point x="265.0" y="34" type="curve"/>
      <point x="284.0" y="48"/>
      <point x="315.0" y="73"/>
      <point x="354.0" y="150" type="curve"/>
      <point x="396.0" y="241"/>
      <point x="393.0" y="278"/>
      <point x="383.0" y="315" type="curve"/>
      <point x="374.0" y="349"/>
      <point x="347.0" y="370"/>
      <point x="314.0" y="380" type="curve"/>
      <point x="287.0" y="396"/>
      <point x="277.0" y="396"/>
      <point x="239.0" y="387" type="curve"/>
      <point x="206.0" y="373"/>
      <point x="186.0" y="353"/>
      <point x="159.0" y="320" type="curve"/>
      <point x="134.0" y="295"/>
      <point x="113.0" y="261"/>
      <point x="100.0" y="230" type="curve"/>
      <point x="85.0" y="195"/>
      <point x="76.0" y="148"/>
      <point x="79.0" y="139" type="curve"/>
      <point x="81.0" y="132"/>
      <point x="82.0" y="128"/>
      <point x="78.0" y="124" type="curve"/>
      <point x="72.0" y="119"/>
      <point x="72.0" y="116"/>
      <point x="77.0" y="113" type="curve"/>
      <point x="79.0" y="111"/>
      <point x="81.0" y="103"/>
      <point x="80.0" y="91" type="curve"/>
      <point x="80.0" y="67"/>
      <point x="98.0" y="32"/>
      <point x="125.0" y="9" type="curve"/>
      <point x="141.0" y="-1"/>
      <point x="147.0" y="-7"/>
    </contour>
    <contour>
      <point x="249" y="130.0" type="curve"/>
      <point x="182" y="51.0"/>
      <point x="161" y="78.0"/>
      <point x="165" y="126.0" type="curve"/>
      <point x="183" y="198.0"/>
      <point x="203" y="246.0"/>
      <point x="229" y="276.0" type="curve"/>
      <point x="252" y="300.0"/>
      <point x="272" y="303.0"/>
      <point x="286" y="298.0" type="curve"/>
      <point x="296" y="292.0"/>
      <point x="297" y="252.0"/>
      <point x="293" y="232.0" type="curve"/>
      <point x="285" y="190.0"/>
      <point x="268" y="157.0"/>
    </contour>
    <contour>
      <point x="520.0" y="25" type="curve"/>
      <point x="562.0" y="51"/>
      <point x="589.0" y="95"/>
      <point x="584.0" y="106" type="curve"/>
      <point x="579.0" y="117"/>
      <point x="571.0" y="124"/>
      <point x="562.0" y="130" type="curve"/>
      <point x="556.0" y="135"/>
      <point x="542.0" y="136"/>
      <point x="531.0" y="128" type="curve"/>
      <point x="518.0" y="119"/>
      <point x="506.0" y="111"/>
      <point x="495.0" y="101" type="curve"/>
      <point x="476.0" y="89"/>
      <point x="463.0" y="81"/>
      <point x="437.0" y="83" type="curve"/>
      <point x="412.0" y="87"/>
      <point x="397.0" y="103"/>
      <point x="396.0" y="148" type="curve"/>
      <point x="395.0" y="168"/>
      <point x="402.0" y="189"/>
      <point x="429.0" y="180" type="curve"/>
      <point x="478.0" y="167"/>
      <point x="509.0" y="171"/>
      <point x="536.0" y="183" type="curve"/>
      <point x="580.0" y="200"/>
      <point x="620.0" y="256"/>
      <point x="628.0" y="288" type="curve"/>
      <point x="633.0" y="313"/>
      <point x="635.0" y="334"/>
      <point x="611.0" y="362" type="curve"/>
      <point x="596.0" y="378"/>
      <point x="570.0" y="394"/>
      <point x="535.0" y="397" type="curve"/>
      <point x="491.0" y="402"/>
      <point x="476.0" y="392"/>
      <point x="456.0" y="382" type="curve"/>
      <point x="388.0" y="354"/>
      <point x="324.0" y="245"/>
      <point x="316.0" y="166" type="curve"/>
      <point x="311.0" y="103"/>
      <point x="315.0" y="71"/>
      <point x="347.0" y="34" type="curve"/>
      <point x="388.0" y="-5"/>
      <point x="466.0" y="-11"/>
    </contour>
    <contour>
      <point x="499" y="244.0" type="curve"/>
      <point x="488" y="240.0"/>
      <point x="446" y="238.0"/>
      <point x="431" y="252.0" type="curve"/>
      <point x="431" y="258.0"/>
      <point x="469" y="308.0"/>
      <point x="504" y="322.0" type="curve"/>
      <point x="524" y="331.0"/>
      <point x="555" y="318.0"/>
      <point x="554" y="300.0" type="curve"/>
      <point x="553" y="287.0"/>
      <point x="515" y="252.0"/>
    </contour>
  </outline>
</glyph>
<glyph name="Dje-cy" format="2">
  <advance width="661"/>
  <unicode hex="0402"/>
  <outline>
    <contour>
      <point x="314" y="-245" type="curve"/>
      <point x="343" y="-251" type="line"/>
      <point x="348" y="-251"/>
      <point x="358" y="-248"/>
      <point x="365" y="-244" type="curve"/>
      <point x="402" y="-233"/>
      <point x="489" y="-140"/>
      <point x="529" y="-83" type="curve" smooth="yes"/>
      <point x="565" y="-31"/>
      <point x="584" y="15"/>
      <point x="604" y="59" type="curve" smooth="yes"/>
      <point x="620" y="93"/>
      <point x="646" y="165"/>
      <point x="651" y="183" type="curve"/>
      <point x="659" y="205"/>
      <point x="663" y="222"/>
      <point x="665" y="238" type="curve" smooth="yes"/>
      <point x="667" y="250"/>
      <point x="666" y="258"/>
      <point x="671" y="272" type="curve"/>
      <point x="674" y="308"/>
      <point x="680" y="364"/>
      <point x="667" y="397" type="curve"/>
      <point x="662" y="415"/>
      <point x="631" y="413"/>
      <point x="618" y="422" type="curve" smooth="yes"/>
      <point x="595" y="438"/>
      <point x="578" y="433"/>
      <point x="556" y="440" type="curve"/>
      <point x="552" y="439"/>
      <point x="547" y="438"/>
      <point x="543" y="437" type="curve"/>
      <point x="527" y="436"/>
      <point x="474" y="435"/>
      <point x="443" y="415" type="curve" smooth="yes"/>
      <point x="438" y="412"/>
      <point x="433" y="410"/>
      <point x="428" y="407" type="curve"/>
      <point x="450" y="471"/>
      <point x="488" y="566"/>
      <point x="509" y="615" type="curve"/>
      <point x="517" y="620"/>
      <point x="526" y="624"/>
      <point x="534" y="624" type="curve"/>
      <point x="547" y="623"/>
      <point x="553" y="623"/>
      <point x="560" y="626" type="curve"/>
      <point x="570" y="631"/>
      <point x="609" y="629"/>
      <point x="627" y="630" type="curve"/>
      <point x="643" y="630"/>
      <point x="649" y="631"/>
      <point x="658" y="634" type="curve"/>
      <point x="668" y="638"/>
      <point x="670" y="637"/>
      <point x="674" y="635" type="curve" smooth="yes"/>
      <point x="693" y="625"/>
      <point x="704" y="628"/>
      <point x="725" y="620" type="curve" smooth="yes"/>
      <point x="732" y="617"/>
      <point x="738" y="615"/>
      <point x="745" y="612" type="curve"/>
      <point x="754" y="615"/>
      <point x="761" y="619"/>
      <point x="768" y="623" type="curve"/>
      <point x="780" y="628"/>
      <point x="787" y="650"/>
      <point x="778" y="670" type="curve"/>
      <point x="762" y="692"/>
      <point x="752" y="701"/>
      <point x="737" y="707" type="curve" smooth="yes"/>
      <point x="717" y="714"/>
      <point x="711" y="721"/>
      <point x="685" y="721" type="curve"/>
      <point x="619" y="721" type="line" smooth="yes"/>
      <point x="581" y="721"/>
      <point x="533" y="715"/>
      <point x="521" y="709" type="curve"/>
      <point x="518" y="708"/>
      <point x="508" y="710"/>
      <point x="498" y="709" type="curve"/>
      <point x="493" y="708"/>
      <point x="482" y="704"/>
      <point x="477" y="706" type="curve"/>
      <point x="472" y="706"/>
      <point x="467" y="705"/>
      <point x="462" y="705" type="curve"/>
      <point x="455" y="704"/>
      <point x="449" y="703"/>
      <point x="442" y="702" type="curve"/>
      <point x="424" y="698"/>
      <point x="320" y="675"/>
      <point x="286" y="665" type="curve"/>
      <point x="269" y="661"/>
      <point x="254.45825142335926" y="662.1006466636262"/>
      <point x="208" y="635" type="curve"/>
      <point x="201" y="621" type="line"/>
      <point x="201" y="612"/>
      <point x="200" y="596"/>
      <point x="206" y="581" type="curve"/>
      <point x="221" y="553"/>
      <point x="252" y="547"/>
      <point x="271" y="560" type="curve"/>
      <point x="278" y="563"/>
      <point x="309" y="577"/>
      <point x="341" y="584" type="curve" smooth="yes"/>
      <point x="375" y="592"/>
      <point x="362" y="590"/>
      <point x="386" y="596" type="curve" smooth="yes"/>
      <point x="391" y="597"/>
      <point x="398" y="599"/>
      <point x="408" y="601" type="curve"/>
      <point x="404" y="593"/>
      <point x="401" y="586"/>
      <point x="397" y="578" type="curve"/>
      <point x="388" y="555"/>
      <point x="375" y="530"/>
      <point x="370" y="510" type="curve" smooth="yes"/>
      <point x="341" y="429"/>
      <point x="330" y="402"/>
      <point x="316" y="352" type="curve"/>
      <point x="309" y="332"/>
      <point x="305" y="310"/>
      <point x="297" y="291" type="curve" smooth="yes"/>
      <point x="287" y="269"/>
      <point x="283" y="235"/>
      <point x="279" y="224" type="curve" smooth="yes"/>
      <point x="267" y="191"/>
      <point x="260" y="153"/>
      <point x="253" y="120" type="curve"/>
      <point x="220" y="4" type="line"/>
      <point x="235" y="-11"/>
      <point x="249" y="-18"/>
      <point x="261" y="-21" type="curve"/>
      <point x="285" y="-21"/>
      <point x="304" y="-11"/>
      <point x="313" y="12" type="curve" smooth="yes"/>
      <point x="323" y="40"/>
      <point x="352" y="165"/>
      <point x="355" y="187" type="curve"/>
      <point x="356" y="199"/>
      <point x="363" y="210"/>
      <point x="367" y="228" type="curve" smooth="yes"/>
      <point x="372" y="252"/>
      <point x="381" y="289"/>
      <point x="393" y="302" type="curve" smooth="yes"/>
      <point x="423" y="333"/>
      <point x="468" y="357"/>
      <point x="505" y="362" type="curve" smooth="yes"/>
      <point x="526" y="365"/>
      <point x="543" y="372"/>
      <point x="564" y="371" type="curve" smooth="yes"/>
      <point x="577" y="370"/>
      <point x="583" y="369"/>
      <point x="590" y="363" type="curve"/>
      <point x="592" y="321"/>
      <point x="587" y="288"/>
      <point x="573" y="244" type="curve"/>
      <point x="549" y="159" type="line"/>
      <point x="528" y="102"/>
      <point x="519" y="77"/>
      <point x="490" y="22" type="curve"/>
      <point x="490" y="18"/>
      <point x="438" y="-60"/>
      <point x="420" y="-82" type="curve" smooth="yes"/>
      <point x="400" y="-105"/>
      <point x="389" y="-124"/>
      <point x="357" y="-148" type="curve" smooth="yes"/>
      <point x="340" y="-162"/>
      <point x="323" y="-178"/>
      <point x="301" y="-183" type="curve"/>
      <point x="288" y="-187"/>
      <point x="285" y="-192"/>
      <point x="282" y="-208" type="curve"/>
      <point x="285" y="-226"/>
      <point x="296" y="-239"/>
    </contour>
  </outline>
</glyph>
<glyph name="Tshe-cy" format="2">
  <advance width="705"/>
  <unicode hex="040B"/>
  <outline>
    <contour>
      <point x="742" y="700" type="curve"/>
      <point x="727" y="726"/>
      <point x="698" y="731"/>
      <point x="673" y="731" type="curve" smooth="yes"/>
      <point x="666" y="731"/>
      <point x="659" y="731"/>
      <point x="653" y="731" type="curve"/>
      <point x="524" y="721" type="line" smooth="yes"/>
      <point x="506" y="720"/>
      <point x="481" y="714"/>
      <point x="460" y="712" type="curve"/>
      <point x="374" y="693" type="line"/>
      <point x="319" y="679" type="line"/>
      <point x="307" y="674"/>
      <point x="243" y="647"/>
      <point x="218" y="643" type="curve" smooth="yes"/>
      <point x="205" y="641"/>
      <point x="196" y="629"/>
      <point x="196" y="616" type="curve"/>
      <point x="195" y="593"/>
      <point x="205" y="574"/>
      <point x="211" y="561" type="curve"/>
      <point x="216" y="548"/>
      <point x="230" y="543"/>
      <point x="242" y="548" type="curve"/>
      <point x="251" y="551"/>
      <point x="306" y="576"/>
      <point x="324" y="582" type="curve" smooth="yes"/>
      <point x="368" y="598"/>
      <point x="381" y="602"/>
      <point x="431" y="613" type="curve" smooth="yes"/>
      <point x="436" y="614"/>
      <point x="442" y="615"/>
      <point x="448" y="616" type="curve"/>
      <point x="432" y="600"/>
      <point x="386" y="485"/>
      <point x="363" y="423" type="curve" smooth="yes"/>
      <point x="348" y="384"/>
      <point x="317" y="275"/>
      <point x="308" y="242" type="curve"/>
      <point x="290" y="188"/>
      <point x="288" y="183"/>
      <point x="287" y="164" type="curve"/>
      <point x="280" y="148"/>
      <point x="277" y="131"/>
      <point x="274" y="115" type="curve" smooth="yes"/>
      <point x="272" y="101"/>
      <point x="266" y="87"/>
      <point x="262" y="71" type="curve" smooth="yes"/>
      <point x="252" y="26"/>
      <point x="254" y="11"/>
      <point x="257" y="1" type="curve"/>
      <point x="263" y="-7"/>
      <point x="281" y="-16"/>
      <point x="294" y="-20" type="curve"/>
      <point x="313" y="-31"/>
      <point x="326" y="-34"/>
      <point x="338" y="-7" type="curve"/>
      <point x="344" y="2"/>
      <point x="344" y="30"/>
      <point x="350" y="57" type="curve"/>
      <point x="380" y="193" type="line"/>
      <point x="380" y="195"/>
      <point x="380" y="202"/>
      <point x="386" y="208" type="curve"/>
      <point x="414" y="244"/>
      <point x="407" y="252"/>
      <point x="441" y="291" type="curve"/>
      <point x="451" y="305"/>
      <point x="485" y="336"/>
      <point x="496" y="347" type="curve" smooth="yes"/>
      <point x="535" y="386"/>
      <point x="587" y="417"/>
      <point x="628" y="424" type="curve" smooth="yes"/>
      <point x="636" y="425"/>
      <point x="644" y="426"/>
      <point x="651" y="425" type="curve"/>
      <point x="652" y="413"/>
      <point x="635" y="350"/>
      <point x="617" y="312" type="curve"/>
      <point x="613" y="285"/>
      <point x="601" y="259"/>
      <point x="592" y="230" type="curve" smooth="yes"/>
      <point x="571" y="166"/>
      <point x="549" y="100"/>
      <point x="521" y="36" type="curve" smooth="yes"/>
      <point x="517" y="27"/>
      <point x="517" y="16"/>
      <point x="517" y="8" type="curve" smooth="yes"/>
      <point x="517" y="-13"/>
      <point x="542" y="-32"/>
      <point x="571" y="-38" type="curve"/>
      <point x="586" y="-33"/>
      <point x="592" y="-33"/>
      <point x="601" y="-19" type="curve"/>
      <point x="610" y="6"/>
      <point x="620" y="32"/>
      <point x="629" y="57" type="curve"/>
      <point x="647" y="111"/>
      <point x="674" y="188"/>
      <point x="696" y="254" type="curve"/>
      <point x="696" y="257"/>
      <point x="721" y="320"/>
      <point x="726" y="337" type="curve"/>
      <point x="734" y="372"/>
      <point x="749" y="413"/>
      <point x="733" y="450" type="curve" smooth="yes"/>
      <point x="724" y="469"/>
      <point x="717" y="476"/>
      <point x="709" y="476" type="curve"/>
      <point x="691" y="508"/>
      <point x="633" y="527"/>
      <point x="592" y="513" type="curve" smooth="yes"/>
      <point x="542" y="498"/>
      <point x="498" y="465"/>
      <point x="458" y="423" type="curve"/>
      <point x="461" y="431"/>
      <point x="464" y="440"/>
      <point x="467" y="448" type="curve" smooth="yes"/>
      <point x="469" y="452"/>
      <point x="470" y="457"/>
      <point x="472" y="461" type="curve" smooth="yes"/>
      <point x="488" y="507"/>
      <point x="505" y="551"/>
      <point x="505" y="553" type="curve"/>
      <point x="545" y="631" type="line"/>
      <point x="587" y="633" type="line"/>
      <point x="624.629" y="634.998"/>
      <point x="663" y="636"/>
      <point x="700" y="639" type="curve"/>
      <point x="726" y="639"/>
      <point x="744" y="643"/>
      <point x="750" y="651" type="curve"/>
      <point x="759" y="670"/>
      <point x="749" y="690"/>
    </contour>
  </outline>
</glyph>
<glyph name="Be-cy" format="2">
  <advance width="528"/>
  <unicode hex="0411"/>
  <outline>
    <contour>
      <point x="215" y="-17" type="curve" smooth="yes"/>
      <point x="225" y="-16"/>
      <point x="235" y="-17"/>
      <point x="246" y="-17" type="curve" smooth="yes"/>
      <point x="265" y="-17"/>
      <point x="287" y="-17"/>
      <point x="308" y="-5" type="curve"/>
      <point x="320" y="-2"/>
      <point x="331" y="0"/>
      <point x="343" y="3" type="curve" smooth="yes"/>
      <point x="372" y="9"/>
      <point x="376" y="11"/>
      <point x="417" y="31" type="curve" smooth="yes"/>
      <point x="446" y="44"/>
      <point x="479" y="62"/>
      <point x="503" y="92" type="curve"/>
      <point x="523" y="114"/>
      <point x="541" y="139"/>
      <point x="555" y="163" type="curve" smooth="yes"/>
      <point x="566" y="182"/>
      <point x="575" y="236"/>
      <point x="575" y="245" type="curve"/>
      <point x="578" y="281"/>
      <point x="564" y="312"/>
      <point x="552" y="339" type="curve"/>
      <point x="535" y="371"/>
      <point x="509" y="389"/>
      <point x="479" y="408" type="curve" smooth="yes"/>
      <point x="458" y="422"/>
      <point x="392" y="446"/>
      <point x="355" y="442" type="curve" smooth="yes"/>
      <point x="343" y="441"/>
      <point x="332" y="439"/>
      <point x="320" y="438" type="curve"/>
      <point x="324" y="445"/>
      <point x="328" y="453"/>
      <point x="332" y="460" type="curve"/>
      <point x="349" y="498"/>
      <point x="367" y="538"/>
      <point x="385" y="577" type="curve"/>
      <point x="389" y="586"/>
      <point x="394" y="596"/>
      <point x="398" y="605" type="curve"/>
      <point x="464" y="613"/>
      <point x="617" y="625"/>
      <point x="623" y="623" type="curve" smooth="yes"/>
      <point x="644" y="615"/>
      <point x="661" y="622"/>
      <point x="664" y="631" type="curve"/>
      <point x="693" y="637"/>
      <point x="669" y="668"/>
      <point x="665" y="679" type="curve"/>
      <point x="657" y="692"/>
      <point x="648" y="716"/>
      <point x="607" y="707" type="curve"/>
      <point x="575" y="704"/>
      <point x="542" y="702"/>
      <point x="510" y="699" type="curve"/>
      <point x="498" y="699"/>
      <point x="429" y="695"/>
      <point x="402" y="691" type="curve"/>
      <point x="390" y="687"/>
      <point x="383" y="688"/>
      <point x="376" y="690" type="curve"/>
      <point x="368" y="689"/>
      <point x="359" y="689"/>
      <point x="351" y="688" type="curve"/>
      <point x="330" y="690"/>
      <point x="315" y="688"/>
      <point x="296" y="687" type="curve"/>
      <point x="285" y="681"/>
      <point x="274" y="673"/>
      <point x="276" y="658" type="curve"/>
      <point x="276" y="636"/>
      <point x="289" y="623"/>
      <point x="300" y="612" type="curve"/>
      <point x="244" y="484" type="line"/>
      <point x="245" y="486"/>
      <point x="223" y="439"/>
      <point x="202" y="381" type="curve"/>
      <point x="194" y="362"/>
      <point x="183" y="342"/>
      <point x="178" y="319" type="curve" smooth="yes"/>
      <point x="177" y="315"/>
      <point x="141" y="215"/>
      <point x="144" y="209" type="curve"/>
      <point x="140" y="195"/>
      <point x="137" y="180"/>
      <point x="133" y="166" type="curve"/>
      <point x="121" y="83" type="line" smooth="yes"/>
      <point x="119" y="71"/>
      <point x="134" y="26"/>
      <point x="148" y="7" type="curve"/>
      <point x="160" y="-5"/>
      <point x="197" y="-18"/>
    </contour>
    <contour>
      <point x="204" y="68" type="curve"/>
      <point x="208" y="89"/>
      <point x="216.673" y="129.364"/>
      <point x="223" y="160" type="curve" smooth="yes"/>
      <point x="232" y="199"/>
      <point x="245" y="238"/>
      <point x="258" y="277" type="curve" smooth="yes"/>
      <point x="270" y="311"/>
      <point x="294" y="367"/>
      <point x="297" y="375" type="curve"/>
      <point x="322" y="371"/>
      <point x="346" y="368"/>
      <point x="371" y="364" type="curve" smooth="yes"/>
      <point x="393" y="361"/>
      <point x="423" y="357"/>
      <point x="436" y="346" type="curve"/>
      <point x="458" y="334"/>
      <point x="465" y="340"/>
      <point x="477" y="313" type="curve"/>
      <point x="482" y="286"/>
      <point x="488" y="273"/>
      <point x="484" y="258" type="curve"/>
      <point x="476" y="217"/>
      <point x="462" y="190"/>
      <point x="430" y="153" type="curve" smooth="yes"/>
      <point x="386" y="104"/>
      <point x="331" y="91"/>
      <point x="264" y="72" type="curve" smooth="yes"/>
      <point x="245" y="67"/>
      <point x="225" y="69"/>
    </contour>
  </outline>
</glyph>
<glyph name="Ge-cy" format="2">
  <advance width="463"/>
  <unicode hex="0413"/>
  <anchor x="439" y="0" name="bottomright"/>
  <anchor x="219" y="305" name="center"/>
  <anchor x="219" y="610" name="top"/>
  <outline>
    <contour>
      <point x="158" y="-31" type="curve"/>
      <point x="159" y="-28"/>
      <point x="165" y="-21"/>
      <point x="165" y="-12" type="curve"/>
      <point x="166" y="3"/>
      <point x="173" y="29"/>
      <point x="180" y="55" type="curve"/>
      <point x="186" y="75"/>
      <point x="191" y="96"/>
      <point x="194" y="112" type="curve"/>
      <point x="196" y="129"/>
      <point x="226" y="220"/>
      <point x="234" y="236" type="curve"/>
      <point x="287" y="379" type="line"/>
      <point x="298" y="411"/>
      <point x="312" y="444"/>
      <point x="330" y="481" type="curve"/>
      <point x="335" y="497"/>
      <point x="343.34" y="513.016"/>
      <point x="350" y="529" type="curve"/>
      <point x="355" y="531"/>
      <point x="378" y="537"/>
      <point x="403" y="542" type="curve"/>
      <point x="427" y="547"/>
      <point x="453" y="552"/>
      <point x="468" y="553" type="curve"/>
      <point x="486" y="561"/>
      <point x="499" y="551"/>
      <point x="517" y="563" type="curve"/>
      <point x="538" y="542"/>
      <point x="529" y="549"/>
      <point x="538" y="545" type="curve"/>
      <point x="541" y="544"/>
      <point x="545" y="542"/>
      <point x="552" y="538" type="curve"/>
      <point x="564" y="533"/>
      <point x="578" y="535"/>
      <point x="591" y="539" type="curve"/>
      <point x="600" y="542"/>
      <point x="608" y="546"/>
      <point x="616" y="550" type="curve"/>
      <point x="634" y="560"/>
      <point x="649" y="571"/>
      <point x="657" y="576" type="curve"/>
      <point x="662" y="613" type="line"/>
      <point x="656" y="631"/>
      <point x="651" y="643"/>
      <point x="632" y="653" type="curve"/>
      <point x="613" y="655"/>
      <point x="603" y="659"/>
      <point x="594" y="653" type="curve"/>
      <point x="583" y="649"/>
      <point x="568" y="652"/>
      <point x="553" y="647" type="curve"/>
      <point x="532" y="644"/>
      <point x="512" y="641"/>
      <point x="491" y="638" type="curve"/>
      <point x="489" y="638"/>
      <point x="479" y="639"/>
      <point x="462" y="638" type="curve"/>
      <point x="446" y="638"/>
      <point x="318" y="609"/>
      <point x="305" y="606" type="curve"/>
      <point x="286" y="600"/>
      <point x="266" y="593"/>
      <point x="247" y="587" type="curve"/>
      <point x="242" y="587"/>
      <point x="219" y="585"/>
      <point x="197" y="566" type="curve"/>
      <point x="198" y="551"/>
      <point x="199" y="535"/>
      <point x="204" y="518" type="curve"/>
      <point x="211" y="503"/>
      <point x="219" y="499"/>
      <point x="242" y="496" type="curve"/>
      <point x="239" y="489"/>
      <point x="235" y="481"/>
      <point x="231" y="472" type="curve"/>
      <point x="218" y="439"/>
      <point x="203" y="396"/>
      <point x="195" y="379" type="curve"/>
      <point x="185" y="356"/>
      <point x="175" y="329"/>
      <point x="165" y="300" type="curve"/>
      <point x="156" y="276"/>
      <point x="142" y="238"/>
      <point x="135" y="207" type="curve"/>
      <point x="112" y="160" type="line"/>
      <point x="103" y="123"/>
      <point x="98" y="88"/>
      <point x="89" y="59" type="curve"/>
      <point x="83" y="41"/>
      <point x="80" y="19"/>
      <point x="77" y="-1" type="curve"/>
      <point x="83" y="-23"/>
      <point x="86" y="-28"/>
      <point x="106" y="-36" type="curve"/>
      <point x="129" y="-38"/>
      <point x="142" y="-40"/>
    </contour>
  </outline>
</glyph>
<glyph name="De-cy" format="2">
  <advance width="743"/>
  <unicode hex="0414"/>
  <outline>
    <contour>
      <point x="63" y="-211" type="curve"/>
      <point x="104" y="-211"/>
      <point x="111" y="-201"/>
      <point x="112" y="-187" type="curve"/>
      <point x="114" y="-181"/>
      <point x="135" y="-85"/>
      <point x="155" y="-17" type="curve"/>
      <point x="170" y="-15"/>
      <point x="184" y="-13"/>
      <point x="199" y="-11" type="curve"/>
      <point x="254" y="-6"/>
      <point x="309" y="0"/>
      <point x="364" y="5" type="curve"/>
      <point x="389" y="9"/>
      <point x="397" y="3"/>
      <point x="428" y="11" type="curve"/>
      <point x="433" y="12"/>
      <point x="439" y="12"/>
      <point x="448" y="12" type="curve"/>
      <point x="511" y="14" type="line"/>
      <point x="520" y="16"/>
      <point x="523" y="18"/>
      <point x="527" y="15" type="curve"/>
      <point x="572" y="19"/>
      <point x="621" y="25"/>
      <point x="663" y="28" type="curve"/>
      <point x="660" y="15" type="line"/>
      <point x="650" y="-15"/>
      <point x="626" y="-55"/>
      <point x="603" y="-99" type="curve"/>
      <point x="587" y="-128"/>
      <point x="583" y="-146"/>
      <point x="588" y="-165" type="curve"/>
      <point x="615" y="-206"/>
      <point x="640" y="-216"/>
      <point x="657" y="-199" type="curve"/>
      <point x="662" y="-187"/>
      <point x="668" y="-174"/>
      <point x="673" y="-162" type="curve"/>
      <point x="705" y="-102"/>
      <point x="753" y="-11"/>
      <point x="757" y="58" type="curve"/>
      <point x="757" y="81"/>
      <point x="744" y="107"/>
      <point x="715" y="116" type="curve"/>
      <point x="710" y="118"/>
      <point x="704" y="118"/>
      <point x="697" y="117" type="curve"/>
      <point x="683" y="116"/>
      <point x="665" y="111"/>
      <point x="652" y="107" type="curve"/>
      <point x="638" y="103"/>
      <point x="632" y="103"/>
      <point x="636" y="118" type="curve"/>
      <point x="643" y="145"/>
      <point x="655" y="166"/>
      <point x="661" y="184" type="curve"/>
      <point x="675" y="220"/>
      <point x="683" y="241"/>
      <point x="692" y="267" type="curve"/>
      <point x="744" y="385"/>
      <point x="818" y="616"/>
      <point x="815" y="664" type="curve"/>
      <point x="809" y="687"/>
      <point x="779" y="707"/>
      <point x="753" y="707" type="curve"/>
      <point x="683.0" y="707.0"/>
      <point x="634" y="703"/>
      <point x="550" y="695" type="curve"/>
      <point x="535" y="690"/>
      <point x="512" y="688"/>
      <point x="456" y="679" type="curve"/>
      <point x="435" y="674"/>
      <point x="401" y="683"/>
      <point x="399" y="668" type="curve"/>
      <point x="391" y="641"/>
      <point x="405" y="607"/>
      <point x="433" y="595" type="curve"/>
      <point x="434" y="594"/>
      <point x="445" y="594"/>
      <point x="450" y="593" type="curve"/>
      <point x="445" y="580"/>
      <point x="441" y="566"/>
      <point x="436" y="553" type="curve"/>
      <point x="377" y="378"/>
      <point x="352" y="279"/>
      <point x="263" y="159" type="curve"/>
      <point x="233" y="117"/>
      <point x="186" y="74"/>
      <point x="164" y="69" type="curve"/>
      <point x="86" y="54" type="line"/>
      <point x="79" y="42"/>
      <point x="71" y="29"/>
      <point x="72" y="13" type="curve"/>
      <point x="55" y="-64" type="line"/>
      <point x="48" y="-92"/>
      <point x="40" y="-119"/>
      <point x="33" y="-147" type="curve"/>
      <point x="27" y="-173"/>
      <point x="25" y="-211"/>
    </contour>
    <contour>
      <point x="288" y="79" type="curve"/>
      <point x="406" y="212"/>
      <point x="527" y="546"/>
      <point x="533" y="565" type="curve"/>
      <point x="545" y="602" type="line"/>
      <point x="575" y="616"/>
      <point x="667" y="624"/>
      <point x="720" y="621" type="curve"/>
      <point x="710" y="577"/>
      <point x="686" y="511"/>
      <point x="654" y="416" type="curve"/>
      <point x="632" y="357"/>
      <point x="610" y="299"/>
      <point x="588" y="240" type="curve"/>
      <point x="568" y="196"/>
      <point x="566" y="190"/>
      <point x="546" y="101" type="curve"/>
      <point x="539" y="99"/>
      <point x="346" y="81"/>
    </contour>
  </outline>
</glyph>
<glyph name="Zhe-cy" format="2">
  <advance width="825"/>
  <unicode hex="0416"/>
  <outline>
    <contour>
      <point x="400" y="-44" type="curve"/>
      <point x="416" y="-50"/>
      <point x="430" y="-46"/>
      <point x="441" y="-38" type="curve"/>
      <point x="456" y="-31"/>
      <point x="458" y="-16"/>
      <point x="462" y="-2" type="curve" smooth="yes"/>
      <point x="478" y="51"/>
      <point x="495" y="99"/>
      <point x="517" y="154" type="curve" smooth="yes"/>
      <point x="520" y="161"/>
      <point x="523" y="169"/>
      <point x="526" y="177" type="curve" smooth="yes"/>
      <point x="537" y="206"/>
      <point x="551" y="235"/>
      <point x="562" y="268" type="curve"/>
      <point x="568" y="258"/>
      <point x="575" y="248"/>
      <point x="581" y="238" type="curve"/>
      <point x="585" y="238"/>
      <point x="602" y="205"/>
      <point x="607" y="191" type="curve"/>
      <point x="612" y="184"/>
      <point x="616" y="177"/>
      <point x="621" y="169" type="curve" smooth="yes"/>
      <point x="646" y="130"/>
      <point x="676" y="79"/>
      <point x="707" y="35" type="curve"/>
      <point x="726" y="4"/>
      <point x="758" y="-24"/>
      <point x="781" y="-29" type="curve"/>
      <point x="831" y="-25"/>
      <point x="840" y="-8"/>
      <point x="841" y="19" type="curve"/>
      <point x="834" y="36"/>
      <point x="825" y="57"/>
      <point x="811" y="63" type="curve"/>
      <point x="800" y="67"/>
      <point x="795" y="78"/>
      <point x="787" y="82" type="curve"/>
      <point x="774" y="107"/>
      <point x="753" y="123"/>
      <point x="744" y="145" type="curve"/>
      <point x="720" y="182"/>
      <point x="695" y="219"/>
      <point x="671" y="256" type="curve"/>
      <point x="660" y="268"/>
      <point x="654" y="283"/>
      <point x="646" y="299" type="curve"/>
      <point x="671" y="330"/>
      <point x="699" y="346"/>
      <point x="711" y="360" type="curve"/>
      <point x="724" y="373"/>
      <point x="798" y="445"/>
      <point x="827" y="463" type="curve" smooth="yes"/>
      <point x="849" y="478"/>
      <point x="881" y="508"/>
      <point x="916" y="526" type="curve"/>
      <point x="936" y="540"/>
      <point x="954" y="555"/>
      <point x="954" y="582" type="curve"/>
      <point x="948" y="608"/>
      <point x="930" y="634"/>
      <point x="899" y="633" type="curve"/>
      <point x="869" y="623"/>
      <point x="827" y="592"/>
      <point x="786" y="551" type="curve"/>
      <point x="761" y="533"/>
      <point x="704" y="479"/>
      <point x="662" y="438" type="curve"/>
      <point x="614" y="390" type="line"/>
      <point x="607" y="384"/>
      <point x="601" y="377"/>
      <point x="594" y="371" type="curve"/>
      <point x="596" y="381"/>
      <point x="599" y="391"/>
      <point x="601" y="403" type="curve"/>
      <point x="609" y="421"/>
      <point x="612" y="444"/>
      <point x="619" y="464" type="curve" smooth="yes"/>
      <point x="622" y="470"/>
      <point x="635" y="513"/>
      <point x="645" y="547" type="curve"/>
      <point x="657" y="590" type="line"/>
      <point x="669" y="610"/>
      <point x="665" y="622"/>
      <point x="661" y="641" type="curve"/>
      <point x="654" y="660"/>
      <point x="627" y="687"/>
      <point x="595" y="680" type="curve"/>
      <point x="583" y="673"/>
      <point x="577" y="661"/>
      <point x="567" y="609" type="curve"/>
      <point x="565" y="601"/>
      <point x="563" y="584"/>
      <point x="561" y="580" type="curve"/>
      <point x="553" y="570"/>
      <point x="549" y="559"/>
      <point x="546" y="544" type="curve" smooth="yes"/>
      <point x="539" y="509"/>
      <point x="528" y="478"/>
      <point x="516" y="444" type="curve"/>
      <point x="512" y="425"/>
      <point x="501" y="403"/>
      <point x="503" y="378" type="curve"/>
      <point x="500" y="383"/>
      <point x="497" y="389"/>
      <point x="494" y="394" type="curve"/>
      <point x="486" y="408"/>
      <point x="477" y="423"/>
      <point x="469" y="436" type="curve"/>
      <point x="340" y="618" type="line"/>
      <point x="326" y="644"/>
      <point x="313" y="651"/>
      <point x="308" y="656" type="curve"/>
      <point x="295" y="676"/>
      <point x="278" y="680"/>
      <point x="266" y="686" type="curve" smooth="yes"/>
      <point x="250" y="695"/>
      <point x="225" y="686"/>
      <point x="216" y="670" type="curve"/>
      <point x="216" y="644"/>
      <point x="217" y="634"/>
      <point x="241" y="607" type="curve"/>
      <point x="244" y="598"/>
      <point x="316" y="496"/>
      <point x="317" y="494" type="curve"/>
      <point x="335" y="473"/>
      <point x="352" y="451"/>
      <point x="370" y="430" type="curve"/>
      <point x="378" y="422"/>
      <point x="430" y="338"/>
      <point x="431" y="332" type="curve"/>
      <point x="421" y="323"/>
      <point x="410" y="315"/>
      <point x="400" y="306" type="curve" smooth="yes"/>
      <point x="279" y="213"/>
      <point x="269" y="209"/>
      <point x="261" y="199" type="curve"/>
      <point x="257" y="195"/>
      <point x="163" y="138"/>
      <point x="152" y="131" type="curve"/>
      <point x="134" y="117"/>
      <point x="49" y="66"/>
      <point x="37" y="52" type="curve"/>
      <point x="24" y="43"/>
      <point x="25" y="22"/>
      <point x="36" y="6" type="curve"/>
      <point x="49" y="-18"/>
      <point x="79" y="-28"/>
      <point x="111" y="-9" type="curve"/>
      <point x="161" y="16"/>
      <point x="167" y="29"/>
      <point x="203" y="50" type="curve" smooth="yes"/>
      <point x="237" y="70"/>
      <point x="300" y="112"/>
      <point x="315" y="124" type="curve" smooth="yes"/>
      <point x="365" y="168"/>
      <point x="385" y="176"/>
      <point x="434" y="225" type="curve"/>
      <point x="438" y="230"/>
      <point x="442" y="235"/>
      <point x="448" y="240" type="curve"/>
      <point x="445" y="231"/>
      <point x="442" y="223"/>
      <point x="438" y="215" type="curve" smooth="yes"/>
      <point x="424" y="186"/>
      <point x="414" y="155"/>
      <point x="404" y="123" type="curve" smooth="yes"/>
      <point x="398" y="105"/>
      <point x="395" y="89"/>
      <point x="387" y="74" type="curve"/>
      <point x="376" y="56"/>
      <point x="373" y="34"/>
      <point x="365" y="18" type="curve"/>
      <point x="355" y="3"/>
      <point x="370" y="-35"/>
    </contour>
  </outline>
</glyph>
<glyph name="Ze-cy" format="2">
  <advance width="565"/>
  <unicode hex="0417"/>
  <outline>
    <contour>
      <point x="297" y="-35" type="curve"/>
      <point x="329" y="-39"/>
      <point x="369" y="-36"/>
      <point x="410" y="-24" type="curve" smooth="yes"/>
      <point x="431" y="-19"/>
      <point x="462" y="-5"/>
      <point x="492" y="16" type="curve" smooth="yes"/>
      <point x="516" y="34"/>
      <point x="539" y="56"/>
      <point x="553" y="83" type="curve"/>
      <point x="563" y="99"/>
      <point x="571" y="116"/>
      <point x="583" y="139" type="curve"/>
      <point x="597" y="209"/>
      <point x="589" y="266"/>
      <point x="561" y="311" type="curve"/>
      <point x="557" y="324"/>
      <point x="537" y="344"/>
      <point x="514" y="358" type="curve"/>
      <point x="522" y="363"/>
      <point x="528" y="368"/>
      <point x="530" y="371" type="curve"/>
      <point x="544" y="388"/>
      <point x="555" y="401"/>
      <point x="568" y="418" type="curve" smooth="yes"/>
      <point x="588" y="442"/>
      <point x="600" y="470"/>
      <point x="615" y="497" type="curve"/>
      <point x="644" y="560"/>
      <point x="636" y="654"/>
      <point x="600" y="676" type="curve"/>
      <point x="560" y="710"/>
      <point x="547" y="723"/>
      <point x="498" y="727" type="curve"/>
      <point x="465" y="732"/>
      <point x="432" y="717"/>
      <point x="419" y="713" type="curve" smooth="yes"/>
      <point x="396" y="706"/>
      <point x="375" y="691"/>
      <point x="354" y="680" type="curve" smooth="yes"/>
      <point x="326" y="664"/>
      <point x="307" y="640"/>
      <point x="288" y="616" type="curve" smooth="yes"/>
      <point x="267" y="589"/>
      <point x="265" y="564"/>
      <point x="282" y="534" type="curve" smooth="yes"/>
      <point x="292" y="518"/>
      <point x="332" y="522"/>
      <point x="341" y="539" type="curve"/>
      <point x="347" y="548"/>
      <point x="373" y="573"/>
      <point x="406" y="601" type="curve" smooth="yes"/>
      <point x="413" y="607"/>
      <point x="466" y="627"/>
      <point x="490" y="628" type="curve"/>
      <point x="499" y="632"/>
      <point x="534" y="626"/>
      <point x="537" y="615" type="curve"/>
      <point x="545" y="597"/>
      <point x="543" y="569"/>
      <point x="531" y="547" type="curve"/>
      <point x="518" y="508"/>
      <point x="495" y="480"/>
      <point x="460" y="436" type="curve"/>
      <point x="460" y="438"/>
      <point x="415" y="404"/>
      <point x="396" y="397" type="curve" smooth="yes"/>
      <point x="375" y="389"/>
      <point x="364" y="387"/>
      <point x="351" y="390" type="curve"/>
      <point x="329" y="393"/>
      <point x="311" y="382"/>
      <point x="303" y="368" type="curve"/>
      <point x="289" y="348"/>
      <point x="309" y="306"/>
      <point x="333" y="297" type="curve"/>
      <point x="348" y="288"/>
      <point x="356" y="280"/>
      <point x="386" y="290" type="curve" smooth="yes"/>
      <point x="421" y="301"/>
      <point x="437" y="288"/>
      <point x="470" y="280" type="curve"/>
      <point x="474" y="277"/>
      <point x="479" y="273"/>
      <point x="483" y="270" type="curve"/>
      <point x="489" y="247"/>
      <point x="497" y="229"/>
      <point x="495" y="209" type="curve" smooth="yes"/>
      <point x="493" y="172"/>
      <point x="488" y="155"/>
      <point x="467" y="127" type="curve"/>
      <point x="437" y="91"/>
      <point x="405" y="70"/>
      <point x="363" y="58" type="curve"/>
      <point x="349" y="51"/>
      <point x="336" y="55"/>
      <point x="323" y="51" type="curve" smooth="yes"/>
      <point x="320" y="50"/>
      <point x="306" y="55"/>
      <point x="301" y="52" type="curve"/>
      <point x="289" y="49"/>
      <point x="251" y="60"/>
      <point x="235" y="73" type="curve" smooth="yes"/>
      <point x="220" y="84"/>
      <point x="208" y="97"/>
      <point x="198" y="112" type="curve"/>
      <point x="209" y="120"/>
      <point x="212" y="130"/>
      <point x="220" y="154" type="curve"/>
      <point x="218" y="158"/>
      <point x="213" y="188"/>
      <point x="190" y="192" type="curve"/>
      <point x="181" y="195"/>
      <point x="166" y="206"/>
      <point x="141" y="191" type="curve" smooth="yes"/>
      <point x="128" y="183"/>
      <point x="115" y="169"/>
      <point x="107" y="153" type="curve" smooth="yes"/>
      <point x="98" y="136"/>
      <point x="96" y="115"/>
      <point x="108" y="96" type="curve" smooth="yes"/>
      <point x="128" y="62"/>
      <point x="154" y="23"/>
      <point x="200" y="-3" type="curve" smooth="yes"/>
      <point x="242" y="-26"/>
      <point x="264" y="-33"/>
    </contour>
  </outline>
</glyph>
<glyph name="El-cy" format="2">
  <advance width="658"/>
  <unicode hex="041B"/>
  <anchor x="467" y="-20" name="bottomright"/>
  <outline>
    <contour>
      <point x="155" y="-51" type="curve"/>
      <point x="174" y="-43"/>
      <point x="211" y="-9"/>
      <point x="233" y="20" type="curve" smooth="yes"/>
      <point x="270" y="65"/>
      <point x="287" y="87"/>
      <point x="318" y="132" type="curve" smooth="yes"/>
      <point x="357" y="192"/>
      <point x="417" y="310"/>
      <point x="429" y="346" type="curve"/>
      <point x="444" y="379"/>
      <point x="457" y="411"/>
      <point x="474" y="443" type="curve" smooth="yes"/>
      <point x="485" y="465"/>
      <point x="515" y="533"/>
      <point x="527" y="567" type="curve" smooth="yes"/>
      <point x="530" y="576"/>
      <point x="532" y="583"/>
      <point x="532" y="586" type="curve"/>
      <point x="535" y="589"/>
      <point x="606" y="592"/>
      <point x="630" y="593" type="curve"/>
      <point x="629" y="589"/>
      <point x="628" y="584"/>
      <point x="627" y="580" type="curve"/>
      <point x="622" y="555"/>
      <point x="616" y="530"/>
      <point x="611" y="505" type="curve"/>
      <point x="595" y="434" type="line"/>
      <point x="588" y="411"/>
      <point x="581" y="383"/>
      <point x="574" y="344" type="curve" smooth="yes"/>
      <point x="570" y="325"/>
      <point x="566" y="305"/>
      <point x="561" y="281" type="curve"/>
      <point x="551" y="263"/>
      <point x="537" y="216"/>
      <point x="529" y="169" type="curve"/>
      <point x="524" y="152"/>
      <point x="476" y="25"/>
      <point x="471" y="16" type="curve"/>
      <point x="466" y="-11"/>
      <point x="478" y="-24"/>
      <point x="504" y="-35" type="curve" smooth="yes"/>
      <point x="520" y="-42"/>
      <point x="537" y="-37"/>
      <point x="554" y="-21" type="curve" smooth="yes"/>
      <point x="565" y="-11"/>
      <point x="572" y="14"/>
      <point x="577" y="23" type="curve"/>
      <point x="593" y="84"/>
      <point x="646" y="208"/>
      <point x="656" y="285" type="curve"/>
      <point x="666" y="323"/>
      <point x="671" y="347"/>
      <point x="680" y="382" type="curve" smooth="yes"/>
      <point x="687" y="407"/>
      <point x="693" y="429"/>
      <point x="698" y="449" type="curve" smooth="yes"/>
      <point x="721" y="537"/>
      <point x="726" y="572"/>
      <point x="722" y="592" type="curve" smooth="yes"/>
      <point x="718" y="608"/>
      <point x="713" y="622"/>
      <point x="706" y="634" type="curve"/>
      <point x="685" y="664" type="line"/>
      <point x="680" y="669"/>
      <point x="675" y="673"/>
      <point x="669" y="677" type="curve" smooth="yes"/>
      <point x="651" y="689"/>
      <point x="627" y="695"/>
      <point x="599" y="694" type="curve"/>
      <point x="587" y="690"/>
      <point x="531" y="682"/>
      <point x="509" y="681" type="curve"/>
      <point x="483" y="671"/>
      <point x="454" y="662"/>
      <point x="419" y="652" type="curve"/>
      <point x="381" y="638"/>
      <point x="343" y="625"/>
      <point x="305" y="611" type="curve" smooth="yes"/>
      <point x="276" y="600"/>
      <point x="261" y="557"/>
      <point x="284" y="526" type="curve" smooth="yes"/>
      <point x="298" y="507"/>
      <point x="330" y="512"/>
      <point x="401" y="546" type="curve" smooth="yes"/>
      <point x="414" y="553"/>
      <point x="424" y="558"/>
      <point x="433" y="561" type="curve"/>
      <point x="419" y="530"/>
      <point x="397" y="481"/>
      <point x="384" y="453" type="curve" smooth="yes"/>
      <point x="379" y="443"/>
      <point x="376" y="435"/>
      <point x="375" y="433" type="curve"/>
      <point x="370" y="421"/>
      <point x="346.986" y="356.962"/>
      <point x="333" y="319" type="curve"/>
      <point x="329" y="307" type="line"/>
      <point x="323" y="299"/>
      <point x="317" y="290"/>
      <point x="311" y="282" type="curve"/>
      <point x="303" y="270"/>
      <point x="293" y="253"/>
      <point x="282" y="236" type="curve" smooth="yes"/>
      <point x="269" y="216"/>
      <point x="255" y="196"/>
      <point x="245" y="181" type="curve" smooth="yes"/>
      <point x="211" y="135"/>
      <point x="198" y="118"/>
      <point x="175" y="92" type="curve"/>
      <point x="178" y="95"/>
      <point x="119" y="33"/>
      <point x="117" y="33" type="curve" smooth="yes"/>
      <point x="112" y="33"/>
      <point x="107" y="32"/>
      <point x="102" y="30" type="curve" smooth="yes"/>
      <point x="91" y="25"/>
      <point x="83" y="17"/>
      <point x="78" y="5" type="curve"/>
      <point x="80" y="-40"/>
      <point x="124" y="-67"/>
    </contour>
  </outline>
</glyph>
<glyph name="U-cy" format="2">
  <advance width="543"/>
  <unicode hex="0423"/>
  <anchor x="441" y="769" name="topUC"/>
  <outline>
    <contour>
      <point x="648" y="687" type="curve" smooth="yes"/>
      <point x="643" y="688"/>
      <point x="626" y="687"/>
      <point x="626" y="687" type="curve"/>
      <point x="612" y="687"/>
      <point x="603" y="679"/>
      <point x="599" y="664" type="curve"/>
      <point x="593" y="616"/>
      <point x="569" y="560"/>
      <point x="555" y="514" type="curve"/>
      <point x="490" y="391" type="line"/>
      <point x="479" y="370"/>
      <point x="464" y="349"/>
      <point x="450" y="323" type="curve" smooth="yes"/>
      <point x="440" y="302"/>
      <point x="422" y="282"/>
      <point x="411" y="255" type="curve" smooth="yes"/>
      <point x="407" y="245"/>
      <point x="400" y="237"/>
      <point x="392" y="227" type="curve"/>
      <point x="378" y="209" type="line"/>
      <point x="362" y="249"/>
      <point x="342" y="320"/>
      <point x="340" y="348" type="curve" smooth="yes"/>
      <point x="337" y="377"/>
      <point x="330" y="453"/>
      <point x="331" y="435" type="curve"/>
      <point x="327" y="472"/>
      <point x="332" y="583"/>
      <point x="335" y="604" type="curve"/>
      <point x="339" y="624"/>
      <point x="333" y="634"/>
      <point x="339" y="644" type="curve" smooth="yes"/>
      <point x="355" y="671"/>
      <point x="312" y="718"/>
      <point x="280" y="713" type="curve"/>
      <point x="244" y="713"/>
      <point x="251" y="670"/>
      <point x="250" y="663" type="curve"/>
      <point x="248" y="634"/>
      <point x="242" y="562"/>
      <point x="243" y="575" type="curve"/>
      <point x="246" y="398" type="line"/>
      <point x="247" y="385"/>
      <point x="251" y="378"/>
      <point x="248" y="364" type="curve"/>
      <point x="260" y="300" type="line"/>
      <point x="262" y="292"/>
      <point x="263" y="284"/>
      <point x="265" y="276" type="curve"/>
      <point x="271" y="248"/>
      <point x="297" y="188"/>
      <point x="329" y="146" type="curve"/>
      <point x="320" y="134"/>
      <point x="307" y="119"/>
      <point x="279" y="87" type="curve"/>
      <point x="251" y="62"/>
      <point x="192" y="1"/>
      <point x="188" y="-9" type="curve" smooth="yes"/>
      <point x="180" y="-29"/>
      <point x="189" y="-46"/>
      <point x="212" y="-60" type="curve" smooth="yes"/>
      <point x="231" y="-72"/>
      <point x="250" y="-69"/>
      <point x="264" y="-51" type="curve"/>
      <point x="287" y="-30"/>
      <point x="288" y="-26"/>
      <point x="316" y="3" type="curve" smooth="yes"/>
      <point x="346" y="33"/>
      <point x="378" y="64"/>
      <point x="404" y="102" type="curve"/>
      <point x="418" y="118"/>
      <point x="469" y="186"/>
      <point x="481" y="206" type="curve" smooth="yes"/>
      <point x="505" y="243"/>
      <point x="530" y="282"/>
      <point x="552" y="322" type="curve" smooth="yes"/>
      <point x="568" y="348"/>
      <point x="582" y="375"/>
      <point x="596" y="403" type="curve"/>
      <point x="607" y="420"/>
      <point x="656" y="545"/>
      <point x="674" y="581" type="curve" smooth="yes"/>
      <point x="679" y="592"/>
      <point x="684" y="602"/>
      <point x="687" y="614" type="curve" smooth="yes"/>
      <point x="697" y="648"/>
      <point x="676" y="680"/>
    </contour>
  </outline>
</glyph>
<glyph name="Shcha-cy" format="2">
  <advance width="853"/>
  <unicode hex="0429"/>
  <outline>
    <contour>
      <point x="850" y="409" type="curve" smooth="yes"/>
      <point x="878" y="476"/>
      <point x="890" y="501"/>
      <point x="899" y="531" type="curve"/>
      <point x="901" y="544"/>
      <point x="895" y="558"/>
      <point x="886" y="564" type="curve" smooth="yes"/>
      <point x="842" y="595"/>
      <point x="836" y="594"/>
      <point x="804" y="567" type="curve"/>
      <point x="801" y="557"/>
      <point x="780" y="497"/>
      <point x="776" y="488" type="curve" smooth="yes"/>
      <point x="770" y="474"/>
      <point x="751" y="418"/>
      <point x="733" y="366" type="curve" smooth="yes"/>
      <point x="718" y="324"/>
      <point x="704" y="284"/>
      <point x="699" y="271" type="curve" smooth="yes"/>
      <point x="679" y="219"/>
      <point x="666" y="166"/>
      <point x="648" y="114" type="curve"/>
      <point x="623" y="109"/>
      <point x="553" y="102"/>
      <point x="543" y="98" type="curve"/>
      <point x="537" y="96"/>
      <point x="497" y="94"/>
      <point x="476" y="93" type="curve"/>
      <point x="480" y="114"/>
      <point x="489" y="150"/>
      <point x="499" y="185" type="curve" smooth="yes"/>
      <point x="508" y="221"/>
      <point x="518" y="255"/>
      <point x="523" y="272" type="curve" smooth="yes"/>
      <point x="536" y="316"/>
      <point x="549" y="361"/>
      <point x="562" y="405" type="curve" smooth="yes"/>
      <point x="579" y="460"/>
      <point x="596" y="505"/>
      <point x="616" y="547" type="curve"/>
      <point x="613" y="585"/>
      <point x="587" y="592"/>
      <point x="551" y="602" type="curve"/>
      <point x="531" y="597"/>
      <point x="519" y="583"/>
      <point x="518" y="563" type="curve"/>
      <point x="518" y="554"/>
      <point x="470" y="433"/>
      <point x="462" y="404" type="curve"/>
      <point x="460" y="395"/>
      <point x="454" y="374"/>
      <point x="447" y="347" type="curve" smooth="yes"/>
      <point x="425" y="268"/>
      <point x="386" y="137"/>
      <point x="378" y="85" type="curve"/>
      <point x="365" y="84"/>
      <point x="351" y="82"/>
      <point x="335" y="81" type="curve" smooth="yes"/>
      <point x="298" y="77"/>
      <point x="254" y="73"/>
      <point x="208" y="79" type="curve" smooth="yes"/>
      <point x="190" y="81"/>
      <point x="181" y="89"/>
      <point x="173" y="109" type="curve"/>
      <point x="159" y="150"/>
      <point x="188" y="189"/>
      <point x="187" y="241" type="curve"/>
      <point x="202" y="284"/>
      <point x="235" y="404"/>
      <point x="255" y="435" type="curve"/>
      <point x="272" y="469"/>
      <point x="292" y="520"/>
      <point x="307" y="563" type="curve"/>
      <point x="323" y="608" type="line"/>
      <point x="317" y="639"/>
      <point x="297" y="656"/>
      <point x="261" y="662" type="curve"/>
      <point x="237" y="656"/>
      <point x="228" y="634"/>
      <point x="213" y="585" type="curve"/>
      <point x="166" y="470" type="line"/>
      <point x="148" y="426" type="line"/>
      <point x="135" y="391"/>
      <point x="113" y="319"/>
      <point x="107" y="301" type="curve" smooth="yes"/>
      <point x="86" y="246"/>
      <point x="80" y="189"/>
      <point x="77" y="133" type="curve" smooth="yes"/>
      <point x="73" y="79"/>
      <point x="102" y="63"/>
      <point x="123" y="34" type="curve"/>
      <point x="154" y="13"/>
      <point x="188" y="-6"/>
      <point x="228" y="-5" type="curve" smooth="yes"/>
      <point x="252" y="-5"/>
      <point x="296" y="-4"/>
      <point x="336" y="-2" type="curve" smooth="yes"/>
      <point x="379" y="-1"/>
      <point x="419" y="1"/>
      <point x="428" y="3" type="curve"/>
      <point x="474" y="8"/>
      <point x="521" y="13"/>
      <point x="567" y="18" type="curve"/>
      <point x="588" y="21"/>
      <point x="608" y="23"/>
      <point x="629" y="26" type="curve"/>
      <point x="654" y="29" type="line"/>
      <point x="660" y="30"/>
      <point x="694.687" y="33.669"/>
      <point x="715" y="36" type="curve"/>
      <point x="720" y="37"/>
      <point x="725" y="37"/>
      <point x="730" y="38" type="curve"/>
      <point x="727" y="30"/>
      <point x="712" y="-1"/>
      <point x="696" y="-35" type="curve"/>
      <point x="651" y="-129" type="line"/>
      <point x="644" y="-151"/>
      <point x="632" y="-167"/>
      <point x="629" y="-189" type="curve" smooth="yes"/>
      <point x="626" y="-212"/>
      <point x="634" y="-228"/>
      <point x="655" y="-236" type="curve" smooth="yes"/>
      <point x="668" y="-241"/>
      <point x="682" y="-251"/>
      <point x="700" y="-238" type="curve" smooth="yes"/>
      <point x="716" y="-227"/>
      <point x="724" y="-207"/>
      <point x="729" y="-193" type="curve"/>
      <point x="760" y="-120"/>
      <point x="776" y="-91"/>
      <point x="816" y="-11" type="curve" smooth="yes"/>
      <point x="823" y="4"/>
      <point x="830" y="20"/>
      <point x="839" y="38" type="curve" smooth="yes"/>
      <point x="868" y="102"/>
      <point x="852" y="130"/>
      <point x="796" y="130" type="curve" smooth="yes"/>
      <point x="777" y="130"/>
      <point x="764" y="126"/>
      <point x="752" y="124" type="curve"/>
      <point x="762" y="151"/>
      <point x="771" y="184"/>
      <point x="773" y="195" type="curve" smooth="yes"/>
      <point x="776" y="210"/>
      <point x="828" y="354"/>
    </contour>
  </outline>
</glyph>
<glyph name="Hardsign-cy" format="2">
  <advance width="637"/>
  <unicode hex="042A"/>
  <outline>
    <contour>
      <point x="337" y="-26" type="curve" smooth="yes"/>
      <point x="372" y="-28"/>
      <point x="395" y="-22"/>
      <point x="425" y="-10" type="curve"/>
      <point x="448" y="-7"/>
      <point x="469" y="5"/>
      <point x="487" y="15" type="curve"/>
      <point x="556" y="48"/>
      <point x="619" y="116"/>
      <point x="653" y="197" type="curve"/>
      <point x="666" y="234"/>
      <point x="661" y="258"/>
      <point x="666" y="273" type="curve" smooth="yes"/>
      <point x="673" y="294"/>
      <point x="641" y="356"/>
      <point x="613" y="382" type="curve"/>
      <point x="571" y="417"/>
      <point x="553" y="426"/>
      <point x="520" y="435" type="curve" smooth="yes"/>
      <point x="508" y="438"/>
      <point x="495" y="440"/>
      <point x="478" y="444" type="curve"/>
      <point x="483" y="453"/>
      <point x="490" y="466"/>
      <point x="499" y="485" type="curve"/>
      <point x="547" y="604"/>
      <point x="549" y="587"/>
      <point x="537" y="616" type="curve"/>
      <point x="516" y="637"/>
      <point x="508" y="654"/>
      <point x="483" y="657" type="curve"/>
      <point x="466" y="658"/>
      <point x="450" y="660"/>
      <point x="434" y="663" type="curve" smooth="yes"/>
      <point x="420" y="665"/>
      <point x="403" y="666"/>
      <point x="392" y="659" type="curve"/>
      <point x="368" y="659"/>
      <point x="317" y="652"/>
      <point x="303" y="646" type="curve"/>
      <point x="294" y="641"/>
      <point x="254" y="631"/>
      <point x="237" y="629" type="curve" smooth="yes"/>
      <point x="218" y="627"/>
      <point x="206" y="613"/>
      <point x="208" y="593" type="curve"/>
      <point x="215" y="574"/>
      <point x="212" y="584"/>
      <point x="225" y="558" type="curve"/>
      <point x="236" y="550"/>
      <point x="246" y="546"/>
      <point x="257" y="546" type="curve"/>
      <point x="299" y="559"/>
      <point x="337" y="569"/>
      <point x="374" y="575" type="curve" smooth="yes"/>
      <point x="401" y="579"/>
      <point x="414" y="581"/>
      <point x="437" y="579" type="curve"/>
      <point x="425" y="553"/>
      <point x="388" y="472"/>
      <point x="381" y="455" type="curve"/>
      <point x="368" y="428"/>
      <point x="353" y="395"/>
      <point x="337" y="361" type="curve" smooth="yes"/>
      <point x="290" y="259"/>
      <point x="239" y="140"/>
      <point x="223" y="95" type="curve"/>
      <point x="217" y="82"/>
      <point x="215" y="72"/>
      <point x="215" y="63" type="curve" smooth="yes"/>
      <point x="214" y="50"/>
      <point x="220" y="39"/>
      <point x="228" y="20" type="curve"/>
      <point x="233" y="2"/>
      <point x="250" y="-14"/>
      <point x="270" y="-19" type="curve"/>
      <point x="292" y="-20"/>
      <point x="314.689" y="-23.669"/>
    </contour>
    <contour>
      <point x="366" y="74" type="curve"/>
      <point x="318" y="71" type="line"/>
      <point x="326" y="102"/>
      <point x="342" y="131"/>
      <point x="385" y="235" type="curve" smooth="yes"/>
      <point x="388" y="244"/>
      <point x="392" y="253"/>
      <point x="396" y="263" type="curve"/>
      <point x="394" y="260"/>
      <point x="430" y="336"/>
      <point x="442" y="360" type="curve"/>
      <point x="463" y="360"/>
      <point x="472" y="360"/>
      <point x="481" y="356" type="curve"/>
      <point x="505" y="355"/>
      <point x="525" y="342"/>
      <point x="549" y="333" type="curve" smooth="yes"/>
      <point x="566" y="327"/>
      <point x="575" y="316"/>
      <point x="580" y="290" type="curve"/>
      <point x="585" y="277"/>
      <point x="565" y="232"/>
      <point x="533" y="182" type="curve" smooth="yes"/>
      <point x="517" y="158"/>
      <point x="488" y="131"/>
      <point x="440" y="100" type="curve"/>
      <point x="412" y="85"/>
      <point x="389" y="78"/>
    </contour>
  </outline>
</glyph>
<glyph name="Yeru-cy" format="2">
  <advance width="662"/>
  <unicode hex="042B"/>
  <outline>
    <contour>
      <point x="226" y="-15" type="curve"/>
      <point x="283" y="-4" type="line"/>
      <point x="356" y="20"/>
      <point x="428" y="78"/>
      <point x="469" y="133" type="curve" smooth="yes"/>
      <point x="504" y="181"/>
      <point x="542" y="285"/>
      <point x="491" y="368" type="curve" smooth="yes"/>
      <point x="446" y="438"/>
      <point x="385" y="487"/>
      <point x="329" y="501" type="curve"/>
      <point x="346" y="529"/>
      <point x="375.69" y="589.711"/>
      <point x="399" y="634" type="curve"/>
      <point x="413" y="653"/>
      <point x="410" y="669"/>
      <point x="410" y="687" type="curve"/>
      <point x="386" y="716"/>
      <point x="381" y="724"/>
      <point x="351" y="728" type="curve"/>
      <point x="329" y="716"/>
      <point x="320" y="712"/>
      <point x="315" y="688" type="curve"/>
      <point x="311" y="675"/>
      <point x="309" y="671"/>
      <point x="294" y="643" type="curve" smooth="yes"/>
      <point x="284" y="623"/>
      <point x="254" y="570"/>
      <point x="236" y="528" type="curve" smooth="yes"/>
      <point x="227" y="509"/>
      <point x="218" y="488"/>
      <point x="210" y="468" type="curve" smooth="yes"/>
      <point x="185" y="411"/>
      <point x="161" y="351"/>
      <point x="143" y="297" type="curve"/>
      <point x="128" y="264"/>
      <point x="112" y="220"/>
      <point x="100" y="176" type="curve" smooth="yes"/>
      <point x="87" y="129"/>
      <point x="77" y="84"/>
      <point x="77" y="57" type="curve"/>
      <point x="107" y="19"/>
      <point x="129" y="1"/>
      <point x="180" y="-12" type="curve" smooth="yes"/>
      <point x="195" y="-15"/>
      <point x="210" y="-16"/>
    </contour>
    <contour>
      <point x="617" y="3" type="curve"/>
      <point x="649" y="66"/>
      <point x="638" y="72"/>
      <point x="671" y="172" type="curve" smooth="yes"/>
      <point x="684" y="215"/>
      <point x="699" y="255"/>
      <point x="714" y="294" type="curve" smooth="yes"/>
      <point x="737" y="352"/>
      <point x="761" y="407"/>
      <point x="783" y="460" type="curve" smooth="yes"/>
      <point x="797" y="490"/>
      <point x="810" y="521"/>
      <point x="822" y="555" type="curve" smooth="yes"/>
      <point x="826" y="566"/>
      <point x="839" y="596"/>
      <point x="834" y="616" type="curve"/>
      <point x="804" y="654"/>
      <point x="764" y="668"/>
      <point x="746" y="643" type="curve"/>
      <point x="740" y="625"/>
      <point x="733" y="608"/>
      <point x="727" y="590" type="curve"/>
      <point x="711" y="548"/>
      <point x="696" y="505"/>
      <point x="680" y="463" type="curve"/>
      <point x="679" y="456"/>
      <point x="677" y="451"/>
      <point x="674" y="446" type="curve"/>
      <point x="654" y="419"/>
      <point x="551" y="118"/>
      <point x="539" y="66" type="curve"/>
      <point x="534" y="36"/>
      <point x="539" y="25"/>
      <point x="555" y="8" type="curve"/>
      <point x="583" y="-2"/>
      <point x="599" y="-4"/>
    </contour>
    <contour>
      <point x="219" y="79" type="curve" smooth="yes"/>
      <point x="207" y="78"/>
      <point x="193" y="79"/>
      <point x="177" y="82" type="curve"/>
      <point x="192" y="152"/>
      <point x="214" y="213"/>
      <point x="233" y="273" type="curve"/>
      <point x="241" y="293"/>
      <point x="249" y="314"/>
      <point x="257" y="334" type="curve"/>
      <point x="267" y="364"/>
      <point x="283.68" y="400.033"/>
      <point x="297" y="433" type="curve"/>
      <point x="350" y="411"/>
      <point x="377" y="397"/>
      <point x="388" y="383" type="curve" smooth="yes"/>
      <point x="417" y="349"/>
      <point x="423" y="333"/>
      <point x="423" y="291" type="curve"/>
      <point x="425" y="264"/>
      <point x="417" y="237"/>
      <point x="399" y="206" type="curve" smooth="yes"/>
      <point x="383" y="178"/>
      <point x="339" y="138"/>
      <point x="298" y="112" type="curve" smooth="yes"/>
      <point x="266" y="90"/>
      <point x="244" y="81"/>
    </contour>
  </outline>
</glyph>
<glyph name="Ereversed-cy" format="2">
  <advance width="504"/>
  <unicode hex="042D"/>
  <outline>
    <contour>
      <point x="540" y="635" type="curve" smooth="yes"/>
      <point x="508" y="671"/>
      <point x="430" y="705"/>
      <point x="389" y="705" type="curve" smooth="yes"/>
      <point x="379" y="705"/>
      <point x="371" y="702"/>
      <point x="367" y="697" type="curve"/>
      <point x="359" y="695"/>
      <point x="352" y="693"/>
      <point x="344" y="691" type="curve"/>
      <point x="309" y="671"/>
      <point x="281" y="647"/>
      <point x="258" y="618" type="curve"/>
      <point x="234" y="591"/>
      <point x="256" y="557"/>
      <point x="256" y="554" type="curve"/>
      <point x="262" y="529"/>
      <point x="291" y="522"/>
      <point x="311" y="542" type="curve"/>
      <point x="318" y="550"/>
      <point x="324" y="559"/>
      <point x="331" y="567" type="curve"/>
      <point x="333" y="569"/>
      <point x="336" y="572"/>
      <point x="338" y="574" type="curve" smooth="yes"/>
      <point x="367" y="600"/>
      <point x="397" y="615"/>
      <point x="408" y="609" type="curve"/>
      <point x="430" y="609"/>
      <point x="447" y="604"/>
      <point x="466" y="593" type="curve"/>
      <point x="479" y="588"/>
      <point x="486" y="568"/>
      <point x="486" y="549" type="curve"/>
      <point x="482" y="505"/>
      <point x="485" y="493"/>
      <point x="480" y="443" type="curve"/>
      <point x="481" y="432"/>
      <point x="473" y="395"/>
      <point x="473" y="373" type="curve"/>
      <point x="469" y="372"/>
      <point x="465" y="372"/>
      <point x="461" y="372" type="curve" smooth="yes"/>
      <point x="428" y="369"/>
      <point x="386" y="377"/>
      <point x="350" y="373" type="curve"/>
      <point x="275" y="373" type="line"/>
      <point x="256" y="365"/>
      <point x="243" y="352"/>
      <point x="250" y="326" type="curve" smooth="yes"/>
      <point x="258" y="299"/>
      <point x="266" y="282"/>
      <point x="287" y="273" type="curve"/>
      <point x="323" y="267"/>
      <point x="395" y="284"/>
      <point x="433" y="284" type="curve"/>
      <point x="428" y="273"/>
      <point x="423" y="263"/>
      <point x="418" y="252" type="curve"/>
      <point x="398" y="218"/>
      <point x="378" y="182"/>
      <point x="358" y="146" type="curve"/>
      <point x="337" y="117"/>
      <point x="281" y="57"/>
      <point x="236" y="55" type="curve"/>
      <point x="224" y="57"/>
      <point x="211" y="59"/>
      <point x="199" y="61" type="curve"/>
      <point x="179" y="69"/>
      <point x="161" y="88"/>
      <point x="161" y="100" type="curve"/>
      <point x="156" y="109"/>
      <point x="154" y="116"/>
      <point x="127" y="129" type="curve" smooth="yes"/>
      <point x="98" y="143"/>
      <point x="74" y="90"/>
      <point x="85" y="72" type="curve"/>
      <point x="85" y="72"/>
      <point x="83" y="55"/>
      <point x="96" y="45" type="curve"/>
      <point x="112" y="30"/>
      <point x="127" y="14"/>
      <point x="143" y="-1" type="curve" smooth="yes"/>
      <point x="156" y="-14"/>
      <point x="215" y="-36"/>
      <point x="236" y="-34" type="curve" smooth="yes"/>
      <point x="251" y="-33"/>
      <point x="264" y="-32"/>
      <point x="277" y="-34" type="curve" smooth="yes"/>
      <point x="295" y="-36"/>
      <point x="330" y="-19"/>
      <point x="364" y="7" type="curve" smooth="yes"/>
      <point x="414" y="48"/>
      <point x="466" y="118"/>
      <point x="498" y="189" type="curve" smooth="yes"/>
      <point x="512" y="221"/>
      <point x="527" y="254"/>
      <point x="541" y="286" type="curve"/>
      <point x="544" y="308"/>
      <point x="560" y="331"/>
      <point x="560" y="354" type="curve"/>
      <point x="569" y="372"/>
      <point x="573" y="463"/>
      <point x="576" y="471" type="curve"/>
      <point x="586" y="526"/>
      <point x="569" y="604"/>
    </contour>
  </outline>
</glyph>
<glyph name="ve-cy" format="2">
  <advance width="360"/>
  <unicode hex="0432"/>
  <outline>
    <contour>
      <point x="200" y="-13" type="curve"/>
      <point x="212" y="-13" type="line"/>
      <point x="238" y="5"/>
      <point x="275" y="24"/>
      <point x="292" y="45" type="curve"/>
      <point x="302" y="60"/>
      <point x="325" y="95"/>
      <point x="333" y="112" type="curve"/>
      <point x="345" y="140"/>
      <point x="352" y="178"/>
      <point x="361" y="199" type="curve"/>
      <point x="361" y="214"/>
      <point x="363" y="233"/>
      <point x="365" y="249" type="curve"/>
      <point x="367" y="256"/>
      <point x="364" y="268"/>
      <point x="356" y="275" type="curve"/>
      <point x="340" y="289"/>
      <point x="322" y="302"/>
      <point x="295" y="308" type="curve"/>
      <point x="285" y="310"/>
      <point x="278" y="310"/>
      <point x="269" y="274" type="curve"/>
      <point x="275" y="257"/>
      <point x="276" y="251"/>
      <point x="276" y="210" type="curve"/>
      <point x="269" y="196"/>
      <point x="263" y="175"/>
      <point x="258" y="160" type="curve"/>
      <point x="249" y="136"/>
      <point x="243" y="122"/>
      <point x="232" y="104" type="curve"/>
      <point x="222" y="93"/>
      <point x="217" y="82"/>
      <point x="203" y="79" type="curve"/>
      <point x="196" y="82"/>
      <point x="194" y="86"/>
      <point x="197" y="101" type="curve"/>
      <point x="203" y="131"/>
      <point x="219" y="220"/>
      <point x="226" y="227" type="curve"/>
      <point x="229" y="231"/>
      <point x="235" y="240"/>
      <point x="236" y="252" type="curve"/>
      <point x="242" y="269"/>
      <point x="243" y="282"/>
      <point x="253" y="285" type="curve"/>
      <point x="272" y="291"/>
      <point x="290" y="299"/>
      <point x="307" y="308" type="curve"/>
      <point x="335" y="323"/>
      <point x="367" y="343"/>
      <point x="393" y="366" type="curve"/>
      <point x="449" y="404"/>
      <point x="504" y="457"/>
      <point x="531" y="511" type="curve"/>
      <point x="566" y="586"/>
      <point x="571" y="601"/>
      <point x="542" y="653" type="curve"/>
      <point x="532" y="665"/>
      <point x="500" y="685"/>
      <point x="479" y="679" type="curve"/>
      <point x="460" y="673"/>
      <point x="420" y="668"/>
      <point x="409" y="656" type="curve"/>
      <point x="384" y="631"/>
      <point x="332" y="599"/>
      <point x="306" y="556" type="curve"/>
      <point x="278" y="530"/>
      <point x="256" y="490"/>
      <point x="235" y="463" type="curve"/>
      <point x="224" y="443"/>
      <point x="201" y="399"/>
      <point x="196" y="386" type="curve"/>
      <point x="189" y="371"/>
      <point x="181" y="361"/>
      <point x="169" y="352" type="curve"/>
      <point x="161" y="345"/>
      <point x="156" y="328"/>
      <point x="157" y="317" type="curve"/>
      <point x="158" y="305"/>
      <point x="157" y="292"/>
      <point x="154" y="282" type="curve"/>
      <point x="146" y="269"/>
      <point x="139" y="245"/>
      <point x="137" y="240" type="curve"/>
      <point x="135" y="235"/>
      <point x="124" y="198"/>
      <point x="108" y="110" type="curve"/>
      <point x="102" y="83"/>
      <point x="109" y="52"/>
      <point x="122" y="27" type="curve" smooth="yes"/>
      <point x="139" y="-5"/>
      <point x="171" y="-14"/>
    </contour>
    <contour>
      <point x="274" y="385" type="curve"/>
      <point x="304" y="443"/>
      <point x="377" y="516"/>
      <point x="404" y="543" type="curve"/>
      <point x="439" y="579"/>
      <point x="462" y="600"/>
      <point x="486" y="617" type="curve"/>
      <point x="489" y="610" type="line"/>
      <point x="487" y="581"/>
      <point x="475" y="558"/>
      <point x="467" y="543" type="curve"/>
      <point x="442" y="494"/>
      <point x="370" y="423"/>
      <point x="299" y="391" type="curve"/>
      <point x="291" y="387"/>
      <point x="282" y="382"/>
    </contour>
  </outline>
</glyph>
<glyph name="de-cy" format="2">
  <advance width="386"/>
  <unicode hex="0434"/>
  <outline>
    <contour>
      <point x="218" y="-6" type="curve"/>
      <point x="316" y="15"/>
      <point x="391" y="114"/>
      <point x="430" y="223" type="curve" smooth="yes"/>
      <point x="436" y="240"/>
      <point x="442" y="257"/>
      <point x="446" y="274" type="curve"/>
      <point x="454" y="290"/>
      <point x="460" y="313"/>
      <point x="464" y="336" type="curve" smooth="yes"/>
      <point x="470" y="366"/>
      <point x="472" y="397"/>
      <point x="471" y="416" type="curve" smooth="yes"/>
      <point x="469" y="523"/>
      <point x="451" y="613"/>
      <point x="342" y="649" type="curve"/>
      <point x="316" y="664"/>
      <point x="292" y="659"/>
      <point x="273" y="655" type="curve" smooth="yes"/>
      <point x="239" y="648"/>
      <point x="220" y="635"/>
      <point x="218" y="607" type="curve"/>
      <point x="223" y="591"/>
      <point x="229" y="581"/>
      <point x="246" y="572" type="curve"/>
      <point x="288" y="590"/>
      <point x="347" y="575"/>
      <point x="376" y="535" type="curve" smooth="yes"/>
      <point x="400" y="502"/>
      <point x="390" y="392"/>
      <point x="383" y="343" type="curve"/>
      <point x="375" y="352"/>
      <point x="364" y="365"/>
      <point x="348" y="369" type="curve"/>
      <point x="315" y="380"/>
      <point x="270" y="369"/>
      <point x="250" y="357" type="curve"/>
      <point x="207" y="336"/>
      <point x="152" y="277"/>
      <point x="138" y="240" type="curve"/>
      <point x="129" y="223"/>
      <point x="106" y="181"/>
      <point x="106" y="145" type="curve"/>
      <point x="107" y="123"/>
      <point x="106" y="100"/>
      <point x="114" y="83" type="curve"/>
      <point x="114" y="65"/>
      <point x="120" y="49"/>
      <point x="137" y="31" type="curve" smooth="yes"/>
      <point x="157" y="10"/>
      <point x="208" y="-9"/>
    </contour>
    <contour>
      <point x="208" y="77" type="curve" smooth="yes"/>
      <point x="192" y="76"/>
      <point x="185" y="95"/>
      <point x="185" y="116" type="curve" smooth="yes"/>
      <point x="185" y="137"/>
      <point x="190" y="162"/>
      <point x="198" y="176" type="curve"/>
      <point x="202" y="183"/>
      <point x="209" y="195"/>
      <point x="217" y="207" type="curve" smooth="yes"/>
      <point x="231" y="230"/>
      <point x="251" y="257"/>
      <point x="272" y="272" type="curve" smooth="yes"/>
      <point x="301" y="293"/>
      <point x="336" y="308"/>
      <point x="350" y="297" type="curve" smooth="yes"/>
      <point x="359" y="290"/>
      <point x="353" y="261"/>
      <point x="341" y="231" type="curve" smooth="yes"/>
      <point x="332" y="209"/>
      <point x="320" y="187"/>
      <point x="307" y="170" type="curve" smooth="yes"/>
      <point x="278" y="132"/>
      <point x="242" y="78"/>
    </contour>
  </outline>
</glyph>
<glyph name="zhe-cy" format="2">
  <advance width="546"/>
  <unicode hex="0436"/>
  <outline>
    <contour>
      <point x="622" y="301" type="curve"/>
      <point x="629" y="308"/>
      <point x="632" y="320"/>
      <point x="631" y="331" type="curve"/>
      <point x="627" y="348"/>
      <point x="617" y="360"/>
      <point x="598" y="373" type="curve"/>
      <point x="577" y="379"/>
      <point x="567" y="371"/>
      <point x="553" y="356" type="curve" smooth="yes"/>
      <point x="532" y="333"/>
      <point x="474" y="279"/>
      <point x="447" y="258" type="curve" smooth="yes"/>
      <point x="436" y="250"/>
      <point x="403" y="226"/>
      <point x="362" y="199" type="curve"/>
      <point x="359" y="197" type="line"/>
      <point x="380" y="243"/>
      <point x="398" y="283"/>
      <point x="418" y="328" type="curve"/>
      <point x="425" y="356"/>
      <point x="409" y="383"/>
      <point x="377" y="404" type="curve"/>
      <point x="358" y="418"/>
      <point x="337" y="407"/>
      <point x="334" y="392" type="curve"/>
      <point x="331" y="385"/>
      <point x="329" y="373"/>
      <point x="330" y="365" type="curve"/>
      <point x="331" y="361"/>
      <point x="330" y="350"/>
      <point x="327" y="336" type="curve" smooth="yes"/>
      <point x="322" y="310"/>
      <point x="312" y="271"/>
      <point x="305" y="238" type="curve"/>
      <point x="289" y="267"/>
      <point x="283" y="284"/>
      <point x="262" y="318" type="curve"/>
      <point x="251" y="346"/>
      <point x="238" y="366"/>
      <point x="218" y="383" type="curve"/>
      <point x="187" y="398"/>
      <point x="160" y="391"/>
      <point x="152" y="365" type="curve"/>
      <point x="149" y="351"/>
      <point x="163" y="330"/>
      <point x="194" y="282" type="curve"/>
      <point x="207" y="266"/>
      <point x="223" y="239"/>
      <point x="237" y="217" type="curve"/>
      <point x="222" y="205"/>
      <point x="202" y="190"/>
      <point x="195" y="181" type="curve"/>
      <point x="190" y="180"/>
      <point x="148" y="146"/>
      <point x="139" y="137" type="curve" smooth="yes"/>
      <point x="115" y="113"/>
      <point x="68" y="72"/>
      <point x="60" y="65" type="curve"/>
      <point x="42" y="56"/>
      <point x="37" y="44"/>
      <point x="39" y="18" type="curve"/>
      <point x="54" y="-5" type="line"/>
      <point x="81" y="-18"/>
      <point x="103" y="-15"/>
      <point x="116" y="1" type="curve"/>
      <point x="130" y="23"/>
      <point x="153" y="45"/>
      <point x="175" y="65" type="curve"/>
      <point x="208" y="98"/>
      <point x="234" y="122"/>
      <point x="257" y="144" type="curve" smooth="yes"/>
      <point x="270" y="156"/>
      <point x="283" y="168"/>
      <point x="296" y="180" type="curve"/>
      <point x="285" y="155"/>
      <point x="264" y="115"/>
      <point x="247" y="76" type="curve"/>
      <point x="247" y="43"/>
      <point x="252" y="17"/>
      <point x="289" y="10" type="curve"/>
      <point x="308" y="12" type="line"/>
      <point x="323" y="13"/>
      <point x="334" y="34"/>
      <point x="344" y="58" type="curve" smooth="yes"/>
      <point x="352" y="81"/>
      <point x="359" y="108"/>
      <point x="364" y="123" type="curve"/>
      <point x="368" y="132"/>
      <point x="373" y="147"/>
      <point x="378" y="160" type="curve"/>
      <point x="385" y="140"/>
      <point x="394" y="120"/>
      <point x="404" y="100" type="curve" smooth="yes"/>
      <point x="434" y="38"/>
      <point x="475" y="-16"/>
      <point x="518" y="-16" type="curve" smooth="yes"/>
      <point x="555" y="-15"/>
      <point x="560" y="5"/>
      <point x="544" y="32" type="curve"/>
      <point x="534" y="43"/>
      <point x="481" y="110"/>
      <point x="462" y="143" type="curve"/>
      <point x="459" y="147"/>
      <point x="456" y="153"/>
      <point x="453" y="158" type="curve"/>
      <point x="515" y="208" type="line"/>
      <point x="551" y="238"/>
      <point x="610" y="290"/>
    </contour>
  </outline>
</glyph>
<glyph name="ka-cy" format="2">
  <advance width="396"/>
  <unicode hex="043A"/>
  <anchor x="375" y="0" name="bottomright"/>
  <anchor x="203" y="200" name="center"/>
  <anchor x="358" y="400" name="top"/>
  <outline>
    <contour>
      <point x="346" y="3" type="curve"/>
      <point x="392" y="-15"/>
      <point x="416" y="18"/>
      <point x="420" y="38" type="curve"/>
      <point x="417" y="53"/>
      <point x="426" y="69"/>
      <point x="391" y="85" type="curve"/>
      <point x="358" y="85"/>
      <point x="360" y="96"/>
      <point x="345" y="118" type="curve"/>
      <point x="336" y="134"/>
      <point x="324" y="159"/>
      <point x="309" y="184" type="curve"/>
      <point x="364" y="224"/>
      <point x="426" y="277"/>
      <point x="461" y="303" type="curve"/>
      <point x="478" y="317"/>
      <point x="489" y="354"/>
      <point x="473" y="370" type="curve"/>
      <point x="468" y="383"/>
      <point x="452" y="387"/>
      <point x="428" y="389" type="curve"/>
      <point x="409" y="383"/>
      <point x="399" y="367"/>
      <point x="390" y="355" type="curve"/>
      <point x="388" y="352"/>
      <point x="308" y="277"/>
      <point x="293" y="261" type="curve"/>
      <point x="279" y="245"/>
      <point x="267" y="244"/>
      <point x="247" y="241" type="curve"/>
      <point x="261" y="275"/>
      <point x="271" y="288"/>
      <point x="293" y="328" type="curve" smooth="yes"/>
      <point x="305" y="348"/>
      <point x="300" y="371"/>
      <point x="287" y="386" type="curve"/>
      <point x="283" y="392"/>
      <point x="278" y="393"/>
      <point x="273" y="395" type="curve"/>
      <point x="254" y="423"/>
      <point x="212" y="412"/>
      <point x="204" y="377" type="curve" smooth="yes"/>
      <point x="197" y="344"/>
      <point x="171" y="314"/>
      <point x="162" y="284" type="curve"/>
      <point x="160" y="272"/>
      <point x="105" y="130"/>
      <point x="99" y="106" type="curve"/>
      <point x="94" y="90"/>
      <point x="91" y="70"/>
      <point x="102" y="48" type="curve"/>
      <point x="120" y="25"/>
      <point x="128" y="21"/>
      <point x="156" y="23" type="curve"/>
      <point x="171" y="34"/>
      <point x="183" y="49"/>
      <point x="187" y="67" type="curve"/>
      <point x="191" y="78"/>
      <point x="200" y="117"/>
      <point x="212" y="138" type="curve"/>
      <point x="212" y="154"/>
      <point x="217" y="170"/>
      <point x="224" y="188" type="curve"/>
      <point x="245" y="143"/>
      <point x="278" y="60"/>
      <point x="289" y="46" type="curve"/>
      <point x="305" y="28"/>
      <point x="323" y="11"/>
    </contour>
  </outline>
</glyph>
<glyph name="en-cy" format="2">
  <advance width="442"/>
  <unicode hex="043D"/>
  <outline>
    <contour>
      <point x="406" y="370" type="curve"/>
      <point x="395" y="354"/>
      <point x="391" y="333"/>
      <point x="390" y="331" type="curve"/>
      <point x="368" y="294"/>
      <point x="364" y="268"/>
      <point x="347" y="227" type="curve"/>
      <point x="319" y="232"/>
      <point x="289" y="229"/>
      <point x="280" y="227" type="curve"/>
      <point x="267" y="227"/>
      <point x="252" y="222"/>
      <point x="239" y="222" type="curve"/>
      <point x="241" y="227" type="line"/>
      <point x="286" y="339" type="line"/>
      <point x="288" y="343"/>
      <point x="288" y="350"/>
      <point x="289" y="358" type="curve"/>
      <point x="290" y="377"/>
      <point x="277" y="406"/>
      <point x="234" y="406" type="curve"/>
      <point x="226" y="406"/>
      <point x="211" y="402"/>
      <point x="207" y="388" type="curve"/>
      <point x="206" y="386"/>
      <point x="185" y="323"/>
      <point x="178" y="304" type="curve"/>
      <point x="172" y="291"/>
      <point x="161" y="256"/>
      <point x="157" y="245" type="curve"/>
      <point x="145" y="225"/>
      <point x="135" y="186"/>
      <point x="124" y="157" type="curve"/>
      <point x="118" y="141"/>
      <point x="115" y="124"/>
      <point x="110" y="106" type="curve"/>
      <point x="95" y="30" type="line"/>
      <point x="97" y="22"/>
      <point x="99" y="17"/>
      <point x="104" y="13" type="curve"/>
      <point x="144" y="-25"/>
      <point x="180" y="-13"/>
      <point x="182" y="16" type="curve"/>
      <point x="183" y="34"/>
      <point x="191" y="68"/>
      <point x="193" y="86" type="curve"/>
      <point x="193" y="108"/>
      <point x="207" y="133"/>
      <point x="209" y="146" type="curve"/>
      <point x="213" y="149" type="line"/>
      <point x="230" y="145"/>
      <point x="243" y="146"/>
      <point x="256" y="146" type="curve"/>
      <point x="280" y="149"/>
      <point x="299" y="156"/>
      <point x="329" y="157" type="curve"/>
      <point x="323" y="123"/>
      <point x="318" y="114"/>
      <point x="311" y="94" type="curve"/>
      <point x="306" y="78"/>
      <point x="304" y="51"/>
      <point x="312" y="46" type="curve"/>
      <point x="320" y="39"/>
      <point x="328" y="36"/>
      <point x="355" y="26" type="curve"/>
      <point x="382" y="28"/>
      <point x="386" y="43"/>
      <point x="389" y="54" type="curve"/>
      <point x="399" y="85"/>
      <point x="407" y="115"/>
      <point x="413" y="153" type="curve"/>
      <point x="414" y="158"/>
      <point x="417" y="158"/>
      <point x="423" y="160" type="curve"/>
      <point x="445" y="167"/>
      <point x="447" y="167"/>
      <point x="456" y="182" type="curve"/>
      <point x="460" y="191"/>
      <point x="456" y="220"/>
      <point x="440" y="225" type="curve"/>
      <point x="440" y="228" type="line"/>
      <point x="446" y="250"/>
      <point x="471" y="291"/>
      <point x="481" y="313" type="curve"/>
      <point x="497" y="373"/>
      <point x="434" y="386"/>
    </contour>
  </outline>
</glyph>
<glyph name="pe-cy" format="2">
  <advance width="429"/>
  <unicode hex="043F"/>
  <outline>
    <contour>
      <point x="147" y="6" type="curve"/>
      <point x="166" y="10"/>
      <point x="183" y="14"/>
      <point x="187" y="38" type="curve"/>
      <point x="188" y="51"/>
      <point x="189" y="67"/>
      <point x="197" y="77" type="curve"/>
      <point x="199" y="103"/>
      <point x="237" y="181"/>
      <point x="241" y="202" type="curve"/>
      <point x="247" y="232"/>
      <point x="265" y="278"/>
      <point x="273" y="311" type="curve" smooth="yes"/>
      <point x="274" y="317"/>
      <point x="274" y="317"/>
      <point x="282" y="317" type="curve" smooth="yes"/>
      <point x="296" y="317"/>
      <point x="342" y="321"/>
      <point x="371" y="322" type="curve"/>
      <point x="369" y="290"/>
      <point x="350" y="215"/>
      <point x="328" y="163" type="curve"/>
      <point x="327" y="158"/>
      <point x="320" y="149"/>
      <point x="318" y="136" type="curve"/>
      <point x="315" y="115"/>
      <point x="312" y="87"/>
      <point x="312" y="75" type="curve"/>
      <point x="307" y="35"/>
      <point x="359" y="7"/>
      <point x="388" y="36" type="curve"/>
      <point x="400" y="49"/>
      <point x="404" y="68"/>
      <point x="408" y="88" type="curve" smooth="yes"/>
      <point x="410" y="98"/>
      <point x="413" y="109"/>
      <point x="416" y="119" type="curve"/>
      <point x="420" y="147"/>
      <point x="454" y="218"/>
      <point x="456" y="233" type="curve"/>
      <point x="470" y="256"/>
      <point x="467" y="283"/>
      <point x="471" y="302" type="curve"/>
      <point x="475" y="352"/>
      <point x="432" y="372"/>
      <point x="390" y="388" type="curve"/>
      <point x="372" y="388"/>
      <point x="356" y="396"/>
      <point x="334" y="395" type="curve"/>
      <point x="315" y="393"/>
      <point x="262" y="396"/>
      <point x="252" y="391" type="curve"/>
      <point x="247" y="388"/>
      <point x="241" y="388"/>
      <point x="226" y="393" type="curve"/>
      <point x="204" y="393"/>
      <point x="186" y="374"/>
      <point x="186" y="346" type="curve"/>
      <point x="178" y="323"/>
      <point x="171" y="299"/>
      <point x="163" y="272" type="curve" smooth="yes"/>
      <point x="155" y="242"/>
      <point x="138" y="212"/>
      <point x="133" y="179" type="curve"/>
      <point x="114" y="132"/>
      <point x="94.0" y="84"/>
      <point x="95" y="51" type="curve"/>
      <point x="106" y="27"/>
      <point x="112" y="6"/>
    </contour>
  </outline>
</glyph>
<glyph name="tse-cy" format="2">
  <advance width="447"/>
  <unicode hex="0446"/>
  <outline>
    <contour>
      <point x="77" y="92" type="curve" smooth="yes"/>
      <point x="76" y="84"/>
      <point x="72" y="32"/>
      <point x="112" y="2" type="curve" smooth="yes"/>
      <point x="136" y="-16"/>
      <point x="161" y="-19"/>
      <point x="228" y="-17" type="curve"/>
      <point x="264" y="-6"/>
      <point x="276" y="-3"/>
      <point x="305" y="12" type="curve"/>
      <point x="318" y="20"/>
      <point x="339" y="29"/>
      <point x="349" y="37" type="curve" smooth="yes"/>
      <point x="354" y="41"/>
      <point x="359" y="43"/>
      <point x="361" y="44" type="curve"/>
      <point x="361" y="32"/>
      <point x="332" y="-17"/>
      <point x="329" y="-30" type="curve"/>
      <point x="317" y="-67"/>
      <point x="315" y="-76"/>
      <point x="317" y="-99" type="curve"/>
      <point x="338" y="-134"/>
      <point x="369" y="-135"/>
      <point x="389" y="-103" type="curve"/>
      <point x="400" y="-89"/>
      <point x="404" y="-83"/>
      <point x="410" y="-74" type="curve"/>
      <point x="435" y="-32"/>
      <point x="460" y="20"/>
      <point x="467" y="62" type="curve"/>
      <point x="465" y="66"/>
      <point x="453" y="109"/>
      <point x="447" y="108" type="curve"/>
      <point x="422" y="125"/>
      <point x="404" y="122"/>
      <point x="387" y="122" type="curve"/>
      <point x="375" y="121" type="line"/>
      <point x="379" y="131"/>
      <point x="385" y="149"/>
      <point x="396" y="177" type="curve"/>
      <point x="424" y="249" type="line"/>
      <point x="424" y="254"/>
      <point x="429" y="263"/>
      <point x="437" y="274" type="curve"/>
      <point x="446" y="288"/>
      <point x="447" y="303"/>
      <point x="452" y="311" type="curve"/>
      <point x="452" y="336"/>
      <point x="451" y="341"/>
      <point x="425" y="363" type="curve" smooth="yes"/>
      <point x="413" y="373"/>
      <point x="406" y="372"/>
      <point x="386" y="370" type="curve"/>
      <point x="362" y="359"/>
      <point x="343" y="323"/>
      <point x="340" y="282" type="curve"/>
      <point x="340" y="283"/>
      <point x="326" y="246"/>
      <point x="312" y="205" type="curve" smooth="yes"/>
      <point x="286" y="129"/>
      <point x="275" y="106"/>
      <point x="271" y="92" type="curve"/>
      <point x="238" y="76"/>
      <point x="202" y="57"/>
      <point x="176" y="64" type="curve" smooth="yes"/>
      <point x="168" y="66"/>
      <point x="165" y="69"/>
      <point x="168" y="79" type="curve" smooth="yes"/>
      <point x="176" y="104"/>
      <point x="191" y="147"/>
      <point x="204" y="180" type="curve" smooth="yes"/>
      <point x="214" y="206"/>
      <point x="242" y="264"/>
      <point x="252" y="295" type="curve" smooth="yes"/>
      <point x="264" y="331"/>
      <point x="264" y="350"/>
      <point x="253" y="362" type="curve"/>
      <point x="240" y="372"/>
      <point x="229" y="380"/>
      <point x="212" y="383" type="curve"/>
      <point x="186" y="377"/>
      <point x="168" y="364"/>
      <point x="163" y="330" type="curve"/>
      <point x="162" y="318"/>
      <point x="144" y="271"/>
      <point x="140" y="259" type="curve" smooth="yes"/>
      <point x="130" y="230"/>
      <point x="118" y="197"/>
      <point x="101" y="164" type="curve" smooth="yes"/>
      <point x="97" y="156"/>
      <point x="79" y="112"/>
    </contour>
  </outline>
</glyph>
<glyph name="ereversed-cy" format="2">
  <advance width="321"/>
  <unicode hex="044D"/>
  <outline>
    <contour>
      <point x="105" y="-15" type="curve"/>
      <point x="122" y="-15"/>
      <point x="145" y="-18"/>
      <point x="161" y="-10" type="curve"/>
      <point x="205" y="-10"/>
      <point x="220" y="9"/>
      <point x="292" y="55" type="curve" smooth="yes"/>
      <point x="311" y="74"/>
      <point x="323" y="86"/>
      <point x="341" y="126" type="curve" smooth="yes"/>
      <point x="357" y="160"/>
      <point x="366" y="195"/>
      <point x="374" y="256" type="curve"/>
      <point x="366" y="293"/>
      <point x="355" y="326"/>
      <point x="345" y="330" type="curve"/>
      <point x="339" y="349"/>
      <point x="310" y="375"/>
      <point x="290" y="381" type="curve"/>
      <point x="258" y="394"/>
      <point x="228" y="394"/>
      <point x="194" y="387" type="curve"/>
      <point x="151" y="383"/>
      <point x="138" y="363"/>
      <point x="137" y="355" type="curve"/>
      <point x="130" y="330"/>
      <point x="131" y="293"/>
      <point x="132" y="284" type="curve"/>
      <point x="137" y="260"/>
      <point x="169" y="253"/>
      <point x="209" y="285" type="curve"/>
      <point x="213" y="292"/>
      <point x="244" y="298"/>
      <point x="262" y="298" type="curve"/>
      <point x="269" y="293"/>
      <point x="274" y="291"/>
      <point x="280" y="277" type="curve"/>
      <point x="284" y="234"/>
      <point x="284.0" y="224.0"/>
      <point x="277" y="224" type="curve"/>
      <point x="276" y="224.0"/>
      <point x="274" y="224.0"/>
      <point x="273" y="224" type="curve"/>
      <point x="222" y="226"/>
      <point x="202" y="223"/>
      <point x="203" y="219" type="curve"/>
      <point x="196" y="223"/>
      <point x="189" y="224"/>
      <point x="183" y="224" type="curve" smooth="yes"/>
      <point x="171" y="225.0"/>
      <point x="168" y="223"/>
      <point x="158" y="215" type="curve"/>
      <point x="154" y="208"/>
      <point x="137" y="193"/>
      <point x="145" y="172" type="curve"/>
      <point x="156" y="142"/>
      <point x="178" y="142"/>
      <point x="212" y="147" type="curve"/>
      <point x="221" y="149"/>
      <point x="242" y="153"/>
      <point x="258" y="155" type="curve"/>
      <point x="255" y="147"/>
      <point x="253" y="140"/>
      <point x="252" y="139" type="curve"/>
      <point x="228" y="111"/>
      <point x="176" y="86"/>
      <point x="148" y="76" type="curve"/>
      <point x="144" y="74"/>
      <point x="132" y="77"/>
      <point x="123" y="72" type="curve"/>
      <point x="112" y="68"/>
      <point x="102" y="68"/>
      <point x="88" y="72" type="curve"/>
      <point x="68" y="79"/>
      <point x="55" y="77"/>
      <point x="40" y="62" type="curve"/>
      <point x="33" y="22"/>
      <point x="58" y="-18"/>
    </contour>
  </outline>
</glyph>
<glyph name="e-cy" format="2">
  <advance width="381"/>
  <unicode hex="0454"/>
  <outline>
    <contour>
      <point x="205" y="-8" type="curve"/>
      <point x="214" y="-4"/>
      <point x="225" y="-2"/>
      <point x="237" y="3" type="curve" smooth="yes"/>
      <point x="247" y="7"/>
      <point x="271" y="10"/>
      <point x="281" y="12" type="curve"/>
      <point x="304" y="20"/>
      <point x="323" y="36"/>
      <point x="346" y="48" type="curve"/>
      <point x="374" y="66"/>
      <point x="392" y="101"/>
      <point x="374" y="121" type="curve"/>
      <point x="366" y="126"/>
      <point x="371" y="132"/>
      <point x="359" y="144" type="curve"/>
      <point x="346" y="150"/>
      <point x="346" y="149"/>
      <point x="324" y="145" type="curve"/>
      <point x="318" y="140"/>
      <point x="308" y="129"/>
      <point x="297" y="123" type="curve"/>
      <point x="285" y="114"/>
      <point x="248" y="84"/>
      <point x="204" y="76" type="curve" smooth="yes"/>
      <point x="197" y="75"/>
      <point x="190" y="74"/>
      <point x="183" y="74" type="curve"/>
      <point x="157" y="85"/>
      <point x="154" y="121"/>
      <point x="155" y="146" type="curve" smooth="yes"/>
      <point x="156" y="151"/>
      <point x="156" y="156"/>
      <point x="157" y="160" type="curve"/>
      <point x="178" y="161"/>
      <point x="200" y="162"/>
      <point x="221" y="163" type="curve"/>
      <point x="244" y="167"/>
      <point x="266" y="171"/>
      <point x="287" y="173" type="curve"/>
      <point x="288" y="174"/>
      <point x="291" y="174"/>
      <point x="295" y="176" type="curve" smooth="yes"/>
      <point x="301" y="178"/>
      <point x="308" y="184"/>
      <point x="297" y="202" type="curve"/>
      <point x="291" y="215"/>
      <point x="285" y="222"/>
      <point x="276" y="228" type="curve"/>
      <point x="262" y="235"/>
      <point x="246" y="235"/>
      <point x="234" y="232" type="curve"/>
      <point x="218" y="229"/>
      <point x="191" y="225"/>
      <point x="170" y="221" type="curve"/>
      <point x="193" y="240"/>
      <point x="230" y="281"/>
      <point x="264" y="303" type="curve" smooth="yes"/>
      <point x="274" y="309"/>
      <point x="282" y="315"/>
      <point x="291" y="317" type="curve" smooth="yes"/>
      <point x="298" y="319"/>
      <point x="306" y="318"/>
      <point x="311" y="314" type="curve"/>
      <point x="316" y="310"/>
      <point x="320" y="307"/>
      <point x="325" y="303" type="curve"/>
      <point x="322" y="294"/>
      <point x="319" y="280"/>
      <point x="315" y="268" type="curve"/>
      <point x="319" y="249"/>
      <point x="326" y="236"/>
      <point x="337" y="225" type="curve" smooth="yes"/>
      <point x="341" y="221"/>
      <point x="352" y="212"/>
      <point x="361" y="212" type="curve"/>
      <point x="367" y="213"/>
      <point x="372" y="213"/>
      <point x="378" y="214" type="curve"/>
      <point x="396" y="225"/>
      <point x="405" y="239"/>
      <point x="404" y="258" type="curve" smooth="yes"/>
      <point x="403" y="313"/>
      <point x="398" y="328"/>
      <point x="379" y="352" type="curve"/>
      <point x="335" y="396"/>
      <point x="294" y="392"/>
      <point x="275" y="392" type="curve"/>
      <point x="269" y="392"/>
      <point x="262" y="390"/>
      <point x="254" y="388" type="curve" smooth="yes"/>
      <point x="235" y="382"/>
      <point x="215" y="370"/>
      <point x="205" y="359" type="curve"/>
      <point x="195" y="358"/>
      <point x="187" y="353"/>
      <point x="178" y="342" type="curve"/>
      <point x="146" y="311"/>
      <point x="117" y="271"/>
      <point x="93" y="222" type="curve" smooth="yes"/>
      <point x="76" y="190"/>
      <point x="72" y="153"/>
      <point x="69" y="117" type="curve"/>
      <point x="72" y="100"/>
      <point x="75" y="84"/>
      <point x="78" y="69" type="curve"/>
      <point x="86" y="53"/>
      <point x="94" y="38"/>
      <point x="103" y="26" type="curve" smooth="yes"/>
      <point x="114" y="12"/>
      <point x="127" y="1"/>
      <point x="145" y="-5" type="curve"/>
      <point x="165" y="-15"/>
      <point x="184" y="-16"/>
    </contour>
  </outline>
</glyph>
<glyph name="lje-cy" format="2">
  <advance width="507"/>
  <unicode hex="0459"/>
  <outline>
    <contour>
      <point x="345" y="-25" type="curve" smooth="yes"/>
      <point x="360" y="-24"/>
      <point x="377" y="-27"/>
      <point x="396" y="-21" type="curve" smooth="yes"/>
      <point x="468" y="0"/>
      <point x="525" y="44"/>
      <point x="542" y="107" type="curve"/>
      <point x="533" y="137"/>
      <point x="524" y="155"/>
      <point x="515" y="167" type="curve" smooth="yes"/>
      <point x="507" y="178"/>
      <point x="501" y="184"/>
      <point x="496" y="190" type="curve"/>
      <point x="489" y="194"/>
      <point x="467" y="206"/>
      <point x="463" y="207" type="curve"/>
      <point x="454" y="208"/>
      <point x="442" y="216"/>
      <point x="426" y="215" type="curve"/>
      <point x="412" y="215"/>
      <point x="408" y="218"/>
      <point x="397" y="218" type="curve"/>
      <point x="400" y="235"/>
      <point x="402" y="251"/>
      <point x="405" y="266" type="curve"/>
      <point x="411" y="282"/>
      <point x="405" y="297"/>
      <point x="404" y="304" type="curve"/>
      <point x="399" y="344"/>
      <point x="383" y="366"/>
      <point x="362" y="369" type="curve"/>
      <point x="344" y="382"/>
      <point x="324" y="388"/>
      <point x="296" y="388" type="curve" smooth="yes"/>
      <point x="252" y="388"/>
      <point x="238" y="387"/>
      <point x="195" y="377" type="curve"/>
      <point x="190" y="374"/>
      <point x="184" y="369"/>
      <point x="177" y="364" type="curve"/>
      <point x="171" y="335"/>
      <point x="174" y="302"/>
      <point x="217" y="303" type="curve"/>
      <point x="215" y="300"/>
      <point x="214" y="297"/>
      <point x="212" y="294" type="curve" smooth="yes"/>
      <point x="209" y="289"/>
      <point x="205" y="283"/>
      <point x="202" y="278" type="curve" smooth="yes"/>
      <point x="192" y="262"/>
      <point x="188" y="254"/>
      <point x="184" y="248" type="curve"/>
      <point x="166" y="221"/>
      <point x="140" y="163"/>
      <point x="113" y="136" type="curve" smooth="yes"/>
      <point x="98" y="120"/>
      <point x="87" y="101"/>
      <point x="71" y="87" type="curve"/>
      <point x="63" y="81"/>
      <point x="53" y="81"/>
      <point x="46" y="77" type="curve"/>
      <point x="29" y="62"/>
      <point x="20" y="48"/>
      <point x="28" y="32" type="curve"/>
      <point x="50" y="-1"/>
      <point x="65" y="-13"/>
      <point x="97" y="-6" type="curve"/>
      <point x="119" y="10"/>
      <point x="129" y="23"/>
      <point x="141" y="40" type="curve"/>
      <point x="158" y="67"/>
      <point x="188" y="91"/>
      <point x="200" y="126" type="curve"/>
      <point x="223" y="158"/>
      <point x="240" y="194"/>
      <point x="259" y="228" type="curve" smooth="yes"/>
      <point x="269" y="246"/>
      <point x="284" y="280"/>
      <point x="295" y="308" type="curve"/>
      <point x="306" y="308"/>
      <point x="315" y="307"/>
      <point x="324" y="307" type="curve"/>
      <point x="322" y="273"/>
      <point x="311" y="254"/>
      <point x="292" y="202" type="curve" smooth="yes"/>
      <point x="286" y="186"/>
      <point x="279" y="167"/>
      <point x="272" y="147" type="curve" smooth="yes"/>
      <point x="265" y="125"/>
      <point x="256" y="105"/>
      <point x="252" y="88" type="curve" smooth="yes"/>
      <point x="250" y="80"/>
      <point x="247" y="73"/>
      <point x="246" y="67" type="curve"/>
      <point x="235" y="41"/>
      <point x="267" y="-1"/>
      <point x="305" y="-17" type="curve"/>
      <point x="318" y="-24"/>
      <point x="331" y="-26"/>
    </contour>
    <contour>
      <point x="341" y="59" type="curve"/>
      <point x="343" y="67"/>
      <point x="351" y="90"/>
      <point x="369" y="142" type="curve"/>
      <point x="381" y="142"/>
      <point x="393" y="143"/>
      <point x="406" y="144" type="curve" smooth="yes"/>
      <point x="419" y="145"/>
      <point x="433" y="146"/>
      <point x="442" y="147" type="curve"/>
      <point x="450" y="139"/>
      <point x="454" y="135"/>
      <point x="458" y="125" type="curve"/>
      <point x="451" y="107"/>
      <point x="437" y="87"/>
      <point x="421" y="79" type="curve"/>
      <point x="393" y="68"/>
      <point x="369" y="57"/>
    </contour>
  </outline>
</glyph>
<glyph name="tshe-cy" format="2">
  <advance width="445"/>
  <unicode hex="045B"/>
  <outline>
    <contour>
      <point x="445" y="54" type="curve"/>
      <point x="453" y="70" type="line"/>
      <point x="453" y="94"/>
      <point x="445" y="112"/>
      <point x="449" y="136" type="curve"/>
      <point x="459" y="198" type="line"/>
      <point x="467" y="211"/>
      <point x="468" y="230"/>
      <point x="470" y="237" type="curve"/>
      <point x="473" y="243"/>
      <point x="471" y="251"/>
      <point x="480" y="273" type="curve"/>
      <point x="482" y="295"/>
      <point x="477" y="316"/>
      <point x="474" y="328" type="curve"/>
      <point x="473" y="344"/>
      <point x="470" y="350"/>
      <point x="464" y="355" type="curve" smooth="yes"/>
      <point x="457" y="360"/>
      <point x="448" y="363"/>
      <point x="436" y="371" type="curve"/>
      <point x="409" y="373"/>
      <point x="399" y="369"/>
      <point x="372" y="352" type="curve"/>
      <point x="366" y="352"/>
      <point x="345" y="335"/>
      <point x="328" y="317" type="curve"/>
      <point x="309" y="307"/>
      <point x="289" y="277"/>
      <point x="276" y="269" type="curve"/>
      <point x="257" y="244"/>
      <point x="232" y="236"/>
      <point x="208" y="202" type="curve"/>
      <point x="204" y="203"/>
      <point x="202" y="206"/>
      <point x="200" y="209" type="curve"/>
      <point x="224" y="282"/>
      <point x="256" y="338"/>
      <point x="283" y="412" type="curve" smooth="yes"/>
      <point x="284" y="415"/>
      <point x="286" y="416"/>
      <point x="293" y="417" type="curve"/>
      <point x="298" y="419"/>
      <point x="308" y="422"/>
      <point x="404" y="445" type="curve" smooth="yes"/>
      <point x="417" y="448"/>
      <point x="427" y="454"/>
      <point x="440" y="470" type="curve"/>
      <point x="451" y="482"/>
      <point x="452" y="492"/>
      <point x="439" y="500" type="curve"/>
      <point x="426" y="520"/>
      <point x="402" y="521"/>
      <point x="364" y="510" type="curve" smooth="yes"/>
      <point x="350" y="506"/>
      <point x="333" y="497"/>
      <point x="316" y="492" type="curve"/>
      <point x="318" y="497" type="line"/>
      <point x="336" y="542"/>
      <point x="372" y="598"/>
      <point x="361" y="636" type="curve"/>
      <point x="354" y="646"/>
      <point x="342" y="655"/>
      <point x="328" y="659" type="curve" smooth="yes"/>
      <point x="317" y="662"/>
      <point x="305" y="661"/>
      <point x="293" y="656" type="curve"/>
      <point x="282" y="653"/>
      <point x="270" y="624"/>
      <point x="270" y="609" type="curve" smooth="yes"/>
      <point x="270" y="604"/>
      <point x="266" y="597"/>
      <point x="259" y="581" type="curve" smooth="yes"/>
      <point x="249" y="557"/>
      <point x="235" y="517"/>
      <point x="222" y="486" type="curve"/>
      <point x="200" y="481"/>
      <point x="185" y="485"/>
      <point x="171" y="486" type="curve" smooth="yes"/>
      <point x="161" y="487"/>
      <point x="151" y="486"/>
      <point x="138" y="480" type="curve"/>
      <point x="124" y="472"/>
      <point x="119" y="453"/>
      <point x="121" y="445" type="curve"/>
      <point x="130" y="411"/>
      <point x="131" y="406"/>
      <point x="144" y="399" type="curve"/>
      <point x="160" y="399"/>
      <point x="167" y="399"/>
      <point x="178" y="401" type="curve"/>
      <point x="182" y="401"/>
      <point x="187" y="400"/>
      <point x="191" y="400" type="curve"/>
      <point x="183" y="390"/>
      <point x="182" y="383"/>
      <point x="174" y="364" type="curve" smooth="yes"/>
      <point x="171" y="357"/>
      <point x="165" y="342"/>
      <point x="158" y="323" type="curve" smooth="yes"/>
      <point x="145" y="291"/>
      <point x="129" y="250"/>
      <point x="126" y="237" type="curve"/>
      <point x="95" y="135" type="line" smooth="yes"/>
      <point x="83" y="98"/>
      <point x="86" y="68"/>
      <point x="103" y="56" type="curve"/>
      <point x="120" y="45"/>
      <point x="140" y="47"/>
      <point x="155" y="42" type="curve"/>
      <point x="166" y="40"/>
      <point x="188" y="55"/>
      <point x="194" y="69" type="curve"/>
      <point x="205" y="92"/>
      <point x="224" y="117"/>
      <point x="243" y="139" type="curve"/>
      <point x="283" y="184" type="line"/>
      <point x="311" y="217"/>
      <point x="348" y="257"/>
      <point x="376" y="270" type="curve" smooth="yes"/>
      <point x="382" y="273"/>
      <point x="388" y="274"/>
      <point x="393" y="274" type="curve"/>
      <point x="391" y="259"/>
      <point x="386" y="245"/>
      <point x="382" y="239" type="curve" smooth="yes"/>
      <point x="377" y="231"/>
      <point x="375" y="216"/>
      <point x="375" y="207" type="curve"/>
      <point x="364" y="184"/>
      <point x="365" y="159"/>
      <point x="361" y="141" type="curve" smooth="yes"/>
      <point x="357" y="123"/>
      <point x="362" y="112"/>
      <point x="362" y="104" type="curve"/>
      <point x="360" y="62"/>
      <point x="413" y="13"/>
    </contour>
  </outline>
</glyph>
<glyph name="yusbig-cy" format="2">
  <advance width="422"/>
  <unicode hex="046B"/>
  <outline>
    <contour>
      <point x="180" y="-201" type="curve"/>
      <point x="205" y="-208"/>
      <point x="245" y="-194"/>
      <point x="262" y="-170" type="curve"/>
      <point x="274" y="-152"/>
      <point x="283" y="-128"/>
      <point x="288" y="-104" type="curve"/>
      <point x="296" y="-64"/>
      <point x="300" y="-55"/>
      <point x="299" y="-21" type="curve"/>
      <point x="299" y="6"/>
      <point x="295" y="25"/>
      <point x="289" y="46" type="curve"/>
      <point x="294" y="51"/>
      <point x="298" y="54"/>
      <point x="307" y="62" type="curve"/>
      <point x="310" y="63"/>
      <point x="315" y="67"/>
      <point x="316" y="70" type="curve"/>
      <point x="319" y="79"/>
      <point x="331" y="85"/>
      <point x="342" y="92" type="curve"/>
      <point x="355" y="102"/>
      <point x="367" y="109"/>
      <point x="374" y="111" type="curve"/>
      <point x="374" y="97"/>
      <point x="371" y="79"/>
      <point x="371" y="79" type="curve"/>
      <point x="373" y="69"/>
      <point x="369" y="35"/>
      <point x="356" y="20" type="curve"/>
      <point x="353" y="16"/>
      <point x="351" y="8"/>
      <point x="353" y="-3" type="curve"/>
      <point x="363" y="-19"/>
      <point x="376" y="-24"/>
      <point x="384" y="-27" type="curve"/>
      <point x="390" y="-30"/>
      <point x="398" y="-27"/>
      <point x="401" y="-26" type="curve"/>
      <point x="434" y="-3"/>
      <point x="443" y="16"/>
      <point x="446" y="42" type="curve"/>
      <point x="449" y="51"/>
      <point x="451" y="58"/>
      <point x="447" y="65" type="curve"/>
      <point x="446" y="67"/>
      <point x="446" y="73"/>
      <point x="448" y="80" type="curve"/>
      <point x="453" y="94"/>
      <point x="451" y="161"/>
      <point x="450" y="164" type="curve"/>
      <point x="447" y="168"/>
      <point x="446" y="175"/>
      <point x="448" y="192" type="curve"/>
      <point x="451" y="225"/>
      <point x="431" y="304"/>
      <point x="414" y="332" type="curve"/>
      <point x="402" y="351"/>
      <point x="388" y="366"/>
      <point x="367" y="370" type="curve"/>
      <point x="358" y="371"/>
      <point x="354" y="372"/>
      <point x="349" y="375.0" type="curve"/>
      <point x="338" y="374"/>
      <point x="336" y="373"/>
      <point x="324" y="364" type="curve"/>
      <point x="309" y="345"/>
      <point x="257" y="308"/>
      <point x="233" y="283" type="curve"/>
      <point x="225" y="275"/>
      <point x="189" y="241"/>
      <point x="183" y="231" type="curve"/>
      <point x="177" y="219"/>
      <point x="152" y="189"/>
      <point x="137" y="177" type="curve"/>
      <point x="132" y="175"/>
      <point x="126" y="168"/>
      <point x="124" y="162" type="curve"/>
      <point x="122" y="160"/>
      <point x="98" y="138"/>
      <point x="64" y="89" type="curve"/>
      <point x="55" y="66"/>
      <point x="29" y="58"/>
      <point x="14" y="22" type="curve"/>
      <point x="11" y="17"/>
      <point x="11" y="15"/>
      <point x="12" y="3" type="curve"/>
      <point x="45" y="-29" type="line"/>
      <point x="49" y="-28"/>
      <point x="65" y="-28"/>
      <point x="73" y="-27" type="curve"/>
      <point x="96" y="-4" type="line"/>
      <point x="158" y="81" type="line"/>
      <point x="163" y="79"/>
      <point x="167" y="79"/>
      <point x="171" y="78" type="curve"/>
      <point x="179" y="76"/>
      <point x="186" y="72"/>
      <point x="193" y="64" type="curve"/>
      <point x="151" y="16"/>
      <point x="145" y="3"/>
      <point x="125" y="-45" type="curve"/>
      <point x="114" y="-59"/>
      <point x="112" y="-77"/>
      <point x="106" y="-90" type="curve"/>
      <point x="104" y="-94"/>
      <point x="102" y="-105"/>
      <point x="107" y="-119" type="curve"/>
      <point x="107" y="-132"/>
      <point x="109" y="-145"/>
      <point x="115" y="-157" type="curve"/>
      <point x="122" y="-169"/>
      <point x="133" y="-178"/>
      <point x="147" y="-186" type="curve"/>
      <point x="156" y="-192"/>
      <point x="171" y="-198"/>
    </contour>
    <contour>
      <point x="195" y="-138" type="curve"/>
      <point x="184" y="-141"/>
      <point x="169" y="-139"/>
      <point x="163" y="-131" type="curve"/>
      <point x="165" y="-123"/>
      <point x="166" y="-119"/>
      <point x="167" y="-114" type="curve"/>
      <point x="180" y="-91"/>
      <point x="189" y="-71"/>
      <point x="199" y="-54" type="curve"/>
      <point x="208" y="-38"/>
      <point x="216" y="-32"/>
      <point x="223" y="-21" type="curve"/>
      <point x="224" y="-18"/>
      <point x="228" y="-13"/>
      <point x="230" y="-9" type="curve"/>
      <point x="230" y="-28"/>
      <point x="229" y="-41"/>
      <point x="227" y="-57" type="curve"/>
      <point x="226" y="-66"/>
      <point x="224" y="-84"/>
      <point x="221" y="-94" type="curve"/>
      <point x="212" y="-125"/>
      <point x="206" y="-132"/>
    </contour>
    <contour>
      <point x="250" y="102" type="curve"/>
      <point x="239" y="119"/>
      <point x="228" y="133"/>
      <point x="209" y="143" type="curve"/>
      <point x="231" y="177"/>
      <point x="267" y="218"/>
      <point x="276" y="220" type="curve"/>
      <point x="291" y="234"/>
      <point x="325" y="262"/>
      <point x="351" y="282" type="curve"/>
      <point x="363" y="252"/>
      <point x="382" y="205"/>
      <point x="382" y="187" type="curve"/>
      <point x="373" y="186"/>
      <point x="365" y="183"/>
      <point x="359" y="181" type="curve"/>
      <point x="341" y="175"/>
      <point x="321" y="159"/>
      <point x="306" y="145" type="curve"/>
      <point x="304" y="143"/>
      <point x="298" y="140"/>
      <point x="293" y="137" type="curve"/>
      <point x="280" y="130"/>
      <point x="270" y="124"/>
      <point x="260" y="114" type="curve"/>
      <point x="255" y="110"/>
      <point x="254" y="107"/>
    </contour>
  </outline>
</glyph>
<glyph name="kadescender-cy" format="2">
  <advance width="441"/>
  <unicode hex="049B"/>
  <outline>
    <contour>
      <point x="274" y="-200" type="curve"/>
      <point x="323" y="-192"/>
      <point x="348" y="-180"/>
      <point x="367" y="-139" type="curve" smooth="yes"/>
      <point x="374" y="-125"/>
      <point x="384" y="-109"/>
      <point x="389" y="-89" type="curve" smooth="yes"/>
      <point x="393" y="-68"/>
      <point x="395" y="-33"/>
      <point x="393" y="-7" type="curve"/>
      <point x="414" y="3"/>
      <point x="449" y="18"/>
      <point x="470" y="41" type="curve"/>
      <point x="470" y="46"/>
      <point x="473" y="49"/>
      <point x="467" y="59" type="curve"/>
      <point x="455" y="65"/>
      <point x="435" y="74"/>
      <point x="423" y="78" type="curve"/>
      <point x="407" y="78"/>
      <point x="392" y="71"/>
      <point x="375" y="63" type="curve"/>
      <point x="374" y="65"/>
      <point x="372" y="69"/>
      <point x="369" y="74" type="curve" smooth="yes"/>
      <point x="358" y="99"/>
      <point x="333" y="152"/>
      <point x="331" y="154" type="curve" smooth="yes"/>
      <point x="323" y="162"/>
      <point x="315" y="178"/>
      <point x="309" y="193" type="curve"/>
      <point x="342" y="213"/>
      <point x="367" y="234"/>
      <point x="382" y="252" type="curve"/>
      <point x="397" y="263"/>
      <point x="426" y="303"/>
      <point x="436" y="315" type="curve"/>
      <point x="449" y="332"/>
      <point x="450" y="342"/>
      <point x="451" y="368" type="curve"/>
      <point x="441" y="388"/>
      <point x="432" y="389"/>
      <point x="425" y="397" type="curve"/>
      <point x="408" y="411"/>
      <point x="390" y="408"/>
      <point x="378" y="391" type="curve"/>
      <point x="372" y="378"/>
      <point x="362" y="362"/>
      <point x="355" y="348" type="curve"/>
      <point x="342" y="331"/>
      <point x="329" y="315"/>
      <point x="317" y="298" type="curve"/>
      <point x="298" y="280"/>
      <point x="284" y="276"/>
      <point x="271" y="262" type="curve"/>
      <point x="268" y="258"/>
      <point x="263" y="255"/>
      <point x="256" y="252" type="curve"/>
      <point x="258" y="257"/>
      <point x="259" y="261"/>
      <point x="261" y="266" type="curve" smooth="yes"/>
      <point x="277" y="305"/>
      <point x="301" y="347"/>
      <point x="293" y="377" type="curve"/>
      <point x="271" y="406"/>
      <point x="254" y="418"/>
      <point x="215" y="409" type="curve"/>
      <point x="208" y="401"/>
      <point x="189" y="326"/>
      <point x="183" y="317" type="curve"/>
      <point x="180" y="309"/>
      <point x="128" y="176"/>
      <point x="122" y="162" type="curve"/>
      <point x="112" y="134"/>
      <point x="106" y="115"/>
      <point x="101" y="96" type="curve"/>
      <point x="94" y="67"/>
      <point x="93" y="46"/>
      <point x="99" y="24" type="curve"/>
      <point x="112" y="6"/>
      <point x="121" y="-1"/>
      <point x="139" y="-11" type="curve"/>
      <point x="156" y="-16"/>
      <point x="172" y="-8"/>
      <point x="181" y="17" type="curve"/>
      <point x="181" y="21"/>
      <point x="179" y="57"/>
      <point x="183" y="73" type="curve"/>
      <point x="186" y="77"/>
      <point x="191" y="83"/>
      <point x="192" y="90" type="curve"/>
      <point x="198" y="119"/>
      <point x="211" y="151"/>
      <point x="225" y="183" type="curve"/>
      <point x="226" y="178"/>
      <point x="228" y="173"/>
      <point x="230" y="168" type="curve" smooth="yes"/>
      <point x="240" y="141"/>
      <point x="260" y="113"/>
      <point x="276" y="98" type="curve"/>
      <point x="278" y="95"/>
      <point x="280" y="92"/>
      <point x="282" y="89" type="curve"/>
      <point x="285" y="79"/>
      <point x="300" y="48"/>
      <point x="311" y="30" type="curve"/>
      <point x="294" y="17"/>
      <point x="267" y="-6"/>
      <point x="255" y="-20" type="curve"/>
      <point x="233" y="-38"/>
      <point x="216" y="-61"/>
      <point x="211" y="-76" type="curve"/>
      <point x="206" y="-86"/>
      <point x="202" y="-109"/>
      <point x="205" y="-138" type="curve"/>
      <point x="209" y="-167"/>
      <point x="238" y="-192"/>
    </contour>
    <contour>
      <point x="269" y="-133" type="curve"/>
      <point x="269" y="-126"/>
      <point x="270" y="-119"/>
      <point x="270" y="-112" type="curve"/>
      <point x="275" y="-88"/>
      <point x="296" y="-69"/>
      <point x="312" y="-49" type="curve"/>
      <point x="318" y="-39"/>
      <point x="331" y="-33"/>
      <point x="344" y="-30" type="curve"/>
      <point x="344" y="-44"/>
      <point x="339" y="-49"/>
      <point x="334" y="-58" type="curve"/>
      <point x="329" y="-71"/>
      <point x="312" y="-94"/>
      <point x="306" y="-106" type="curve"/>
      <point x="301" y="-118"/>
      <point x="289" y="-139"/>
    </contour>
  </outline>
</glyph>
<glyph name="Kaverticalstroke-cy" format="2">
  <advance width="632"/>
  <unicode hex="049C"/>
  <outline>
    <contour>
      <point x="809" y="672" type="curve"/>
      <point x="805" y="684"/>
      <point x="795" y="691"/>
      <point x="780" y="693" type="curve" smooth="yes"/>
      <point x="770" y="694"/>
      <point x="762" y="690"/>
      <point x="757" y="688" type="curve"/>
      <point x="739" y="682"/>
      <point x="728" y="672"/>
      <point x="717" y="663" type="curve" smooth="yes"/>
      <point x="692" y="643"/>
      <point x="668" y="620"/>
      <point x="642" y="595" type="curve" smooth="yes"/>
      <point x="633" y="586"/>
      <point x="626" y="579"/>
      <point x="620" y="573" type="curve" smooth="yes"/>
      <point x="605" y="557"/>
      <point x="592" y="544"/>
      <point x="556" y="511" type="curve"/>
      <point x="532" y="486"/>
      <point x="510" y="458"/>
      <point x="485" y="438" type="curve"/>
      <point x="472" y="426"/>
      <point x="421" y="375"/>
      <point x="421" y="373" type="curve"/>
      <point x="416" y="363"/>
      <point x="405" y="355"/>
      <point x="395" y="345" type="curve"/>
      <point x="400" y="365"/>
      <point x="404" y="385"/>
      <point x="409" y="405" type="curve" smooth="yes"/>
      <point x="420" y="455"/>
      <point x="416" y="470"/>
      <point x="382" y="468" type="curve" smooth="yes"/>
      <point x="365" y="467"/>
      <point x="358" y="459"/>
      <point x="352" y="444" type="curve"/>
      <point x="344" y="434"/>
      <point x="339" y="424"/>
      <point x="337" y="414" type="curve" smooth="yes"/>
      <point x="332" y="394"/>
      <point x="318" y="356"/>
      <point x="307" y="326" type="curve"/>
      <point x="286" y="323"/>
      <point x="266" y="321"/>
      <point x="263" y="324" type="curve"/>
      <point x="263" y="324"/>
      <point x="266" y="330"/>
      <point x="269" y="339" type="curve"/>
      <point x="291" y="395" type="line"/>
      <point x="311" y="456" type="line"/>
      <point x="322" y="488"/>
      <point x="333" y="523"/>
      <point x="339" y="536" type="curve" smooth="yes"/>
      <point x="352" y="565"/>
      <point x="357" y="594"/>
      <point x="368" y="622" type="curve" smooth="yes"/>
      <point x="379" y="651"/>
      <point x="376" y="658"/>
      <point x="345" y="680" type="curve"/>
      <point x="335" y="686"/>
      <point x="325" y="689"/>
      <point x="311" y="687" type="curve" smooth="yes"/>
      <point x="293" y="684"/>
      <point x="290" y="679"/>
      <point x="289" y="673" type="curve"/>
      <point x="286" y="660"/>
      <point x="278" y="619"/>
      <point x="271" y="605" type="curve"/>
      <point x="269" y="603"/>
      <point x="268.332" y="598.997"/>
      <point x="267" y="596" type="curve"/>
      <point x="265" y="579"/>
      <point x="260" y="565"/>
      <point x="253" y="551" type="curve"/>
      <point x="252" y="546"/>
      <point x="213" y="440"/>
      <point x="212" y="436" type="curve" smooth="yes"/>
      <point x="209" y="422"/>
      <point x="204" y="410"/>
      <point x="199" y="399" type="curve"/>
      <point x="190" y="382"/>
      <point x="186" y="367"/>
      <point x="180" y="352" type="curve" smooth="yes"/>
      <point x="170" y="323"/>
      <point x="161" y="294"/>
      <point x="154" y="264" type="curve" smooth="yes"/>
      <point x="146" y="235"/>
      <point x="138" y="204"/>
      <point x="130" y="177" type="curve" smooth="yes"/>
      <point x="125" y="159"/>
      <point x="97" y="63"/>
      <point x="92" y="38" type="curve" smooth="yes"/>
      <point x="89" y="20"/>
      <point x="86" y="7"/>
      <point x="79" y="-8" type="curve" smooth="yes"/>
      <point x="77" y="-12"/>
      <point x="77" y="-14"/>
      <point x="77" y="-17" type="curve" smooth="yes"/>
      <point x="77" y="-31"/>
      <point x="82" y="-38"/>
      <point x="90" y="-45" type="curve" smooth="yes"/>
      <point x="98" y="-52"/>
      <point x="116" y="-57"/>
      <point x="127" y="-58" type="curve"/>
      <point x="140" y="-58"/>
      <point x="138" y="-76"/>
      <point x="168" y="-49" type="curve"/>
      <point x="169" y="-44"/>
      <point x="170" y="-40"/>
      <point x="171" y="-35" type="curve"/>
      <point x="202" y="100" type="line"/>
      <point x="213" y="152"/>
      <point x="233" y="202"/>
      <point x="242" y="253" type="curve"/>
      <point x="242" y="254"/>
      <point x="244" y="258"/>
      <point x="245" y="261" type="curve"/>
      <point x="254" y="257"/>
      <point x="267" y="255"/>
      <point x="283" y="256" type="curve"/>
      <point x="274" y="222"/>
      <point x="263" y="174"/>
      <point x="263" y="170" type="curve"/>
      <point x="245" y="138"/>
      <point x="272" y="114"/>
      <point x="308" y="124" type="curve" smooth="yes"/>
      <point x="333" y="131"/>
      <point x="334" y="144"/>
      <point x="345" y="170" type="curve" smooth="yes"/>
      <point x="353" y="189"/>
      <point x="365" y="229"/>
      <point x="376" y="271" type="curve"/>
      <point x="388" y="269"/>
      <point x="390" y="265"/>
      <point x="396" y="253" type="curve" smooth="yes"/>
      <point x="402" y="240"/>
      <point x="404" y="234"/>
      <point x="406" y="226" type="curve" smooth="yes"/>
      <point x="411" y="206"/>
      <point x="424" y="192"/>
      <point x="436" y="170" type="curve" smooth="yes"/>
      <point x="465" y="118"/>
      <point x="484" y="79"/>
      <point x="527" y="40" type="curve" smooth="yes"/>
      <point x="541" y="26"/>
      <point x="552" y="16"/>
      <point x="566" y="8" type="curve"/>
      <point x="598" y="-13" type="line" smooth="yes"/>
      <point x="612" y="-23"/>
      <point x="631" y="-29"/>
      <point x="650" y="-29" type="curve" smooth="yes"/>
      <point x="670" y="-29"/>
      <point x="687" y="-23"/>
      <point x="695" y="-12" type="curve" smooth="yes"/>
      <point x="700" y="-7"/>
      <point x="702" y="0"/>
      <point x="699" y="8" type="curve"/>
      <point x="690" y="31"/>
      <point x="670" y="44"/>
      <point x="645" y="47" type="curve" smooth="yes"/>
      <point x="636" y="48"/>
      <point x="634" y="47"/>
      <point x="633" y="49" type="curve"/>
      <point x="614" y="67"/>
      <point x="594" y="82"/>
      <point x="579" y="103" type="curve" smooth="yes"/>
      <point x="558" y="132"/>
      <point x="542" y="163"/>
      <point x="523" y="194" type="curve"/>
      <point x="502" y="235"/>
      <point x="518" y="216"/>
      <point x="504" y="244" type="curve"/>
      <point x="496" y="255"/>
      <point x="489" y="271"/>
      <point x="482" y="290" type="curve"/>
      <point x="476" y="305" type="line"/>
      <point x="501" y="334"/>
      <point x="529" y="362"/>
      <point x="558" y="390" type="curve" smooth="yes"/>
      <point x="576" y="407"/>
      <point x="621" y="455"/>
      <point x="650" y="486" type="curve" smooth="yes"/>
      <point x="675" y="513" type="line"/>
      <point x="689" y="526"/>
      <point x="706" y="537"/>
      <point x="718" y="551" type="curve"/>
      <point x="741" y="572"/>
      <point x="761" y="593"/>
      <point x="786" y="606" type="curve"/>
      <point x="820" y="612"/>
      <point x="811" y="637"/>
      <point x="815" y="652" type="curve"/>
      <point x="814" y="655"/>
      <point x="810" y="671"/>
    </contour>
  </outline>
</glyph>
<glyph name="Kastroke-cy" format="2">
  <advance width="564"/>
  <unicode hex="049E"/>
  <outline>
    <contour>
      <point x="286" y="539" type="curve" smooth="yes"/>
      <point x="321" y="539"/>
      <point x="426" y="543"/>
      <point x="438" y="543" type="curve" smooth="yes"/>
      <point x="462" y="543"/>
      <point x="509" y="546.0"/>
      <point x="497" y="546" type="curve"/>
      <point x="532" y="542"/>
      <point x="543" y="570"/>
      <point x="520" y="597" type="curve" smooth="yes"/>
      <point x="505" y="615"/>
      <point x="492" y="612"/>
      <point x="462" y="612" type="curve" smooth="yes"/>
      <point x="411" y="612"/>
      <point x="310" y="608"/>
      <point x="265" y="601" type="curve" smooth="yes"/>
      <point x="215" y="595"/>
      <point x="202" y="586"/>
      <point x="218" y="559" type="curve" smooth="yes"/>
      <point x="225" y="547"/>
      <point x="239.0" y="546.0"/>
      <point x="251.0" y="543.0" type="curve"/>
      <point x="265.0" y="539.0"/>
      <point x="278" y="539"/>
    </contour>
    <component base="Ka-cy" xOffset="56"/>
  </outline>
</glyph>
<glyph name="kastroke-cy" format="2">
  <advance width="391"/>
  <unicode hex="049F"/>
  <outline>
    <contour>
      <point x="341" y="3" type="curve"/>
      <point x="385" y="-14"/>
      <point x="407" y="20"/>
      <point x="409" y="22" type="curve"/>
      <point x="411" y="27"/>
      <point x="413" y="33"/>
      <point x="415" y="38" type="curve"/>
      <point x="412" y="53"/>
      <point x="421" y="69"/>
      <point x="386" y="85" type="curve"/>
      <point x="353" y="85"/>
      <point x="355" y="96"/>
      <point x="340" y="118" type="curve"/>
      <point x="331" y="134"/>
      <point x="319" y="159"/>
      <point x="304" y="184" type="curve"/>
      <point x="359" y="224"/>
      <point x="421" y="277"/>
      <point x="456" y="303" type="curve"/>
      <point x="473" y="317"/>
      <point x="484" y="354"/>
      <point x="468" y="370" type="curve"/>
      <point x="463" y="383"/>
      <point x="447" y="387"/>
      <point x="423" y="389" type="curve"/>
      <point x="404" y="383"/>
      <point x="394" y="367"/>
      <point x="385" y="355" type="curve"/>
      <point x="383" y="352"/>
      <point x="303" y="277"/>
      <point x="288" y="261" type="curve"/>
      <point x="274" y="245"/>
      <point x="262" y="244"/>
      <point x="242" y="241" type="curve"/>
      <point x="273" y="322"/>
      <point x="349" y="509"/>
      <point x="375" y="551" type="curve" smooth="yes"/>
      <point x="387" y="571"/>
      <point x="382" y="594"/>
      <point x="369" y="609" type="curve"/>
      <point x="365" y="615"/>
      <point x="359" y="617"/>
      <point x="354" y="620" type="curve"/>
      <point x="338" y="644"/>
      <point x="294" y="635"/>
      <point x="286" y="600" type="curve" smooth="yes"/>
      <point x="278" y="567"/>
      <point x="253" y="537"/>
      <point x="157" y="284" type="curve"/>
      <point x="155" y="272"/>
      <point x="100" y="130"/>
      <point x="94" y="106" type="curve"/>
      <point x="89" y="90"/>
      <point x="86" y="70"/>
      <point x="97" y="48" type="curve"/>
      <point x="115" y="25"/>
      <point x="123" y="21"/>
      <point x="151" y="23" type="curve"/>
      <point x="166" y="34"/>
      <point x="178" y="49"/>
      <point x="182" y="67" type="curve"/>
      <point x="186" y="78"/>
      <point x="195" y="117"/>
      <point x="207" y="138" type="curve"/>
      <point x="207" y="154"/>
      <point x="212" y="170"/>
      <point x="219" y="188" type="curve"/>
      <point x="240" y="143"/>
      <point x="273" y="60"/>
      <point x="284" y="46" type="curve"/>
      <point x="300" y="28"/>
      <point x="318" y="11"/>
    </contour>
    <contour>
      <point x="224" y="435" type="curve" smooth="yes"/>
      <point x="266" y="435"/>
      <point x="309" y="440"/>
      <point x="323" y="440" type="curve" smooth="yes"/>
      <point x="401" y="440"/>
      <point x="433" y="442"/>
      <point x="445" y="443" type="curve"/>
      <point x="480" y="440"/>
      <point x="485" y="465"/>
      <point x="464" y="490" type="curve" smooth="yes"/>
      <point x="450" y="507"/>
      <point x="439" y="504"/>
      <point x="401" y="504" type="curve" smooth="yes"/>
      <point x="339" y="504"/>
      <point x="254" y="499"/>
      <point x="199" y="491" type="curve"/>
      <point x="144" y="485"/>
      <point x="135" y="479"/>
      <point x="150" y="454" type="curve"/>
      <point x="156" y="443"/>
      <point x="161" y="440"/>
      <point x="185" y="440" type="curve"/>
      <point x="199" y="435"/>
      <point x="214" y="435"/>
    </contour>
  </outline>
</glyph>
<glyph name="endescender-cy" format="2">
  <advance width="444"/>
  <unicode hex="04A3"/>
  <outline>
    <contour>
      <point x="371" y="-133" type="curve"/>
      <point x="391" y="-130"/>
      <point x="411.92782557175576" y="-97.10826164236633"/>
      <point x="426" y="-76" type="curve" smooth="yes"/>
      <point x="452" y="-31"/>
      <point x="472" y="17"/>
      <point x="480" y="54" type="curve"/>
      <point x="475" y="68"/>
      <point x="467" y="94"/>
      <point x="462" y="100" type="curve"/>
      <point x="450" y="109"/>
      <point x="432" y="115"/>
      <point x="415" y="115" type="curve"/>
      <point x="370" y="115"/>
      <point x="340" y="112"/>
      <point x="326" y="111" type="curve"/>
      <point x="311" y="62" type="line"/>
      <point x="311" y="47"/>
      <point x="317" y="38"/>
      <point x="324" y="32" type="curve" smooth="yes"/>
      <point x="332" y="26"/>
      <point x="343" y="25"/>
      <point x="350" y="25" type="curve"/>
      <point x="365" y="26"/>
      <point x="382" y="30"/>
      <point x="394" y="37" type="curve"/>
      <point x="393" y="32"/>
      <point x="391" y="27"/>
      <point x="387" y="20" type="curve" smooth="yes"/>
      <point x="377" y="0"/>
      <point x="359" y="-26"/>
      <point x="356" y="-37" type="curve"/>
      <point x="353" y="-47"/>
      <point x="342" y="-73"/>
      <point x="343" y="-104" type="curve"/>
      <point x="355" y="-127"/>
      <point x="358" y="-135"/>
    </contour>
    <component base="en-cy"/>
  </outline>
</glyph>
<glyph name="enghe-cy" format="2">
  <advance width="481"/>
  <unicode hex="04A5"/>
  <outline>
    <contour>
      <point x="359" y="299" type="curve"/>
      <point x="433" y="287" type="line"/>
      <point x="444" y="290"/>
      <point x="471" y="290"/>
      <point x="488" y="294" type="curve" smooth="yes"/>
      <point x="510" y="299"/>
      <point x="558" y="303"/>
      <point x="570" y="303" type="curve"/>
      <point x="586" y="305"/>
      <point x="593" y="314"/>
      <point x="595" y="333" type="curve"/>
      <point x="595" y="354" type="line"/>
      <point x="576" y="378"/>
      <point x="555" y="391"/>
      <point x="538" y="391" type="curve"/>
      <point x="512" y="394"/>
      <point x="510" y="391"/>
      <point x="490" y="388" type="curve"/>
      <point x="472" y="380"/>
      <point x="436" y="379"/>
      <point x="419" y="378" type="curve"/>
      <point x="408" y="379"/>
      <point x="397" y="375"/>
      <point x="389" y="369" type="curve" smooth="yes"/>
      <point x="372" y="358"/>
      <point x="362" y="337"/>
      <point x="359" y="315" type="curve"/>
      <point x="359" y="305"/>
      <point x="360" y="301"/>
    </contour>
    <component base="en-cy"/>
  </outline>
</glyph>
<glyph name="Esdescender-cy" format="2">
  <advance width="477"/>
  <unicode hex="04AA"/>
  <outline>
    <contour>
      <point x="252" y="-194" type="curve"/>
      <point x="269" y="-180"/>
      <point x="274" y="-160"/>
      <point x="279" y="-139" type="curve"/>
      <point x="300" y="-69"/>
      <point x="293" y="-77"/>
      <point x="309" y="-42" type="curve"/>
      <point x="312" y="-35"/>
      <point x="312" y="-28"/>
      <point x="321" y="0" type="curve"/>
      <point x="229" y="8" type="line"/>
      <point x="202" y="-80" type="line"/>
      <point x="196" y="-107"/>
      <point x="183" y="-131"/>
      <point x="182" y="-157" type="curve"/>
      <point x="181" y="-175"/>
      <point x="187" y="-188"/>
      <point x="208" y="-194" type="curve"/>
      <point x="228" y="-198"/>
      <point x="240" y="-205"/>
    </contour>
    <component base="Es-cy"/>
  </outline>
</glyph>
